<?xml version="1.0" standalone="no"?>
<!DOCTYPE svg PUBLIC "-//W3C//DTD SVG 1.1//EN" "http://www.w3.org/Graphics/SVG/1.1/DTD/svg11.dtd" >
<svg>
<font id="Stolen-Victory-Duo-Regular" horiz-adv-x="60" >
<font-face units-per-em="100" ascent="80" descent="-20" />
<glyph unicode=" " horiz-adv-x="60" d="" />
<glyph unicode="!" horiz-adv-x="60" d="M25.6 49.5 C25.6 54.575 25.6 64.725 25.6 69.8 C27.8 69.8 32.2 69.8 34.4 69.8 C34.4 64.725 34.4 54.575 34.4 49.5 C33.7 42.95 32.3 29.85 31.6 23.3 C30.8 23.3 29.2 23.3 28.4 23.3 C27.7 29.85 26.3 42.95 25.6 49.5 zM24.4 0.7 Q22.6 2.4 22.6 5.1 C22.6 5.7 22.6 6.45 22.6 6.9 Q22.6 9.6 24.4 11.25 Q26.2 12.9 30 12.9 Q33.8 12.9 35.6 11.25 Q37.4 9.6 37.4 6.9 C37.4 6.3 37.4 5.55 37.4 5.1 Q37.4 2.4 35.6 0.75 Q33.8 -0.9 30 -0.9 Q26.2 -0.9 24.4 0.7 z" />
<glyph unicode="&#x22;" horiz-adv-x="60" d="M17.3 74 C19.2 74 23 74 24.9 74 C24.9 67.075 24.9 53.225 24.9 46.3 C23 46.3 19.2 46.3 17.3 46.3 C17.3 53.225 17.3 67.075 17.3 74 zM35.1 74 C37 74 40.8 74 42.7 74 C42.7 67.075 42.7 53.225 42.7 46.3 C40.8 46.3 37 46.3 35.1 46.3 C35.1 53.225 35.1 67.075 35.1 74 z" />
<glyph unicode="#" horiz-adv-x="60" d="M1.6 21.6 C1.6 23.25 1.6 26.55 1.6 28.2 C5.2 28.2 12.4 28.2 16 28.2 C16.575 31.55 17.725 38.25 18.3 41.6 C15.025 41.6 8.475 41.6 5.2 41.6 C5.2 43.25 5.2 46.55 5.2 48.2 C8.775 48.2 15.925 48.2 19.5 48.2 C20.45 53.6 22.35 64.4 23.3 69.8 C25.125 69.8 28.775 69.8 30.6 69.8 C27.525 52.35 21.375 17.45 18.3 0 C16.475 0 12.825 0 11 0 C11.95 5.4 13.85 16.2 14.8 21.6 C11.5 21.6 4.9 21.6 1.6 21.6 zM49 69.8 C48.05 64.4 46.15 53.6 45.2 48.2 C48.5 48.2 55.1 48.2 58.4 48.2 C58.4 46.55 58.4 43.25 58.4 41.6 C54.8 41.6 47.6 41.6 44 41.6 C43.425 38.25 42.275 31.55 41.7 28.2 C44.975 28.2 51.525 28.2 54.8 28.2 C54.8 26.55 54.8 23.25 54.8 21.6 C51.225 21.6 44.075 21.6 40.5 21.6 C39.55 16.2 37.65 5.4 36.7 0 C34.875 0 31.225 0 29.4 0 C32.475 17.45 38.625 52.35 41.7 69.8 C43.525 69.8 47.175 69.8 49 69.8 z" />
<glyph unicode="$" horiz-adv-x="60" d="M5 11.1 C6.525 12.35 9.575 14.85 11.1 16.1 Q14.8 11.5 18.85 9.05 Q22.9 6.6 28 6.1 C28 14.8 28 25.675 28 32.2 C27.425 32.3 26.275 32.5 25.7 32.6 Q16 34.2 11.75 39.35 Q7.5 44.5 7.5 52 Q7.5 60.3 12.95 65.25 Q18.4 70.2 27.9 70.9 C27.9 74.3 27.9 78.55 27.9 81.1 C29.45 81.1 32.55 81.1 34.1 81.1 C34.1 78.55 34.1 73.45 34.1 70.9 Q40.9 70.4 46 67.6 Q51.1 64.8 54.9 59.6 C52.8 58.1 50.175 56.225 48.6 55.1 Q45.8 58.9 42.3 61 Q38.8 63.1 34 63.6 C34 55.43333 34 45.225 34 39.1 C34.75 38.975 36.25 38.725 37 38.6 Q55.2 35.5 55.2 19.1 Q55.2 10.4 49.7 5.05 Q44.2 -0.3 34.1 -1.1 C34.1 -4.5 34.1 -8.75 34.1 -11.3 C32.55 -11.3 29.45 -11.3 27.9 -11.3 C27.9 -8.75 27.9 -3.65 27.9 -1.1 Q17 1 13 4 Q9 7 5 11.1 zM18.5 44.2 Q21.4 41.4 28 40.1 C28 47.96667 28 57.8 28 63.7 Q22 63.1 18.8 60.1 Q15.6 57.1 15.6 52 Q15.6 47.1 18.5 44.2 zM44 27.1 Q41 30 34 31.2 C34 22.86667 34 12.45 34 6.2 Q40.3 6.9 43.7 10.2 Q47.1 13.5 47.1 19 Q47.1 24.3 44 27.1 z" />
<glyph unicode="%" horiz-adv-x="90" d="M10.6 36.5 Q6.5 41.6 6.5 51.2 Q6.5 60.8 10.6 65.9 Q14.7 71 22.3 71 Q29.9 71 34 65.9 Q38.1 60.8 38.1 51.2 Q38.1 41.6 34 36.5 Q29.9 31.4 22.3 31.4 Q14.7 31.4 10.6 36.5 zM66.7 69.8 C68.625 69.8 72.475 69.8 74.4 69.8 C62.3 52.35 38.1 17.45 26 0 C24.075 0 20.225 0 18.3 0 C30.4 17.45 54.6 52.35 66.7 69.8 zM30.9 48.2 C30.9 49.7 30.9 52.7 30.9 54.2 Q30.9 65.8 22.3 65.8 Q13.7 65.8 13.7 54.2 C13.7 52.2 13.7 49.7 13.7 48.2 Q13.7 36.6 22.3 36.6 Q30.9 36.6 30.9 48.2 zM58.7 3.9 Q54.6 9 54.6 18.6 Q54.6 28.2 58.7 33.3 Q62.8 38.4 70.4 38.4 Q78 38.4 82.1 33.3 Q86.2 28.2 86.2 18.6 Q86.2 9 82.1 3.9 Q78 -1.2 70.4 -1.2 Q62.8 -1.2 58.7 3.9 zM79 15.6 C79 17.1 79 20.1 79 21.6 Q79 33.2 70.4 33.2 Q61.8 33.2 61.8 21.6 C61.8 19.6 61.8 17.1 61.8 15.6 Q61.8 4 70.4 4 Q79 4 79 15.6 z" />
<glyph unicode="&#x26;" horiz-adv-x="60" d="M11.4 1.3 Q7.1 3.9 4.8 8.3 Q2.5 12.7 2.5 18.1 Q2.5 24.1 5.5 29.5 Q8.5 34.9 15.4 38.4 Q12.3 42.4 10.6 46.2 Q8.9 50 8.9 54.1 Q8.9 59 11.35 62.85 Q13.8 66.7 17.9 68.8 Q22.1 71 27 71 Q38 71 39 58 Q40 45 24 36 C23 37.66667 21.75 39.75 21 41 Q34 52 32.5 58 Q31 64 27 64 Q22 64 19.4 61.35 Q16.8 58.7 16.8 54.4 C16.8 54.13333 16.8 53.8 16.8 53.6 Q16.8 50.5 18.35 47.5 Q19.9 44.5 23.9 39.5 C28.93333 32.66667 35.225 24.125 39 19 Q39 19 39 19 Q39 19 39 19 Q39.9 20 42 31 Q40 31 39.5 31 Q39 31 37 31 Q37 32 37 34.67857 Q37 37.35714 37 38 C43.36667 38.03333 51.325 38.075 56.1 38.1 C56.075 36.325 56.025 32.775 56 31 C54.25 31 50.75 31 49 31 Q47.4 27.6 46.30833 25.55277 Q45.21666 23.50553 42 16 C47.06667 10.66667 53.4 4 57.2 0 C54.825 0 50.075 0 47.7 0 C45.525 2.5 41.175 7.5 39 10 C39 10 39 10 39 10 Q35 4 31.65 1.4 Q28.3 -1.2 21.7 -1.2 Q15.8 -1.2 11.4 1.3 zM31.4 7.7 Q34.1 9.8 36 13 C30.4 19.9 23.4 28.525 19.2 33.7 Q10.8 28.5 10.8 19.2 C10.8 18.7 10.8 18.075 10.8 17.7 Q10.8 12.3 14.4 9.1 Q18 5.9 23.8 5.9 Q28.1 5.9 31.4 7.7 z" />
<glyph unicode="'" horiz-adv-x="60" d="M26.2 74 C28.1 74 31.9 74 33.8 74 C33.8 67.075 33.8 53.225 33.8 46.3 C31.9 46.3 28.1 46.3 26.2 46.3 C26.2 53.225 26.2 67.075 26.2 74 z" />
<glyph unicode="(" horiz-adv-x="60" d="M23.3 49.2 Q26.1 57.9 30.8 64.8 Q35.5 71.7 41.3 76 C44 76 47.375 76 49.4 76 Q40.1 69 34.05 58.3 Q28 47.6 28 35.4 C28 32.53333 28 28.95 28 26.8 Q28 14.6 34.05 3.9 Q40.1 -6.8 49.4 -13.8 C46.7 -13.8 43.325 -13.8 41.3 -13.8 Q35.5 -9.5 30.8 -2.6 Q26.1 4.3 23.3 13 Q20.5 21.7 20.5 31.1 Q20.5 40.5 23.3 49.2 z" />
<glyph unicode=")" horiz-adv-x="60" d="M36.7 13 Q33.9 4.3 29.2 -2.6 Q24.5 -9.5 18.7 -13.8 C16 -13.8 12.625 -13.8 10.6 -13.8 Q19.9 -6.8 25.95 3.9 Q32 14.6 32 26.8 C32 29.66667 32 33.25 32 35.4 Q32 47.6 25.95 58.3 Q19.9 69 10.6 76 C13.3 76 16.675 76 18.7 76 Q24.5 71.7 29.2 64.8 Q33.9 57.9 36.7 49.2 Q39.5 40.5 39.5 31.1 Q39.5 21.7 36.7 13 z" />
<glyph unicode="*" horiz-adv-x="60" d="M11.8 9.4 C14.9 13.65 21.1 22.15 24.2 26.4 C19.225 28.05 9.275 31.35 4.3 33 C4.825 34.65 5.875 37.95 6.4 39.6 C11.375 38 21.325 34.8 26.3 33.2 C26.3 38.6 26.3 49.4 26.3 54.8 C28.15 54.8 31.85 54.8 33.7 54.8 C33.7 49.4 33.7 38.6 33.7 33.2 C38.675 34.8 48.625 38 53.6 39.6 C54.125 37.95 55.175 34.65 55.7 33 C50.725 31.35 40.775 28.05 35.8 26.4 C38.9 22.15 45.1 13.65 48.2 9.4 C46.775 8.35 43.925 6.25 42.5 5.2 C39.375 9.5 33.125 18.1 30 22.4 C26.875 18.1 20.625 9.5 17.5 5.2 C16.075 6.25 13.225 8.35 11.8 9.4 z" />
<glyph unicode="+" horiz-adv-x="60" d="M26.2 27.1 C21.2 27.1 11.2 27.1 6.2 27.1 C6.2 28.8 6.2 32.2 6.2 33.9 C11.2 33.9 21.2 33.9 26.2 33.9 C26.2 39.125 26.2 49.575 26.2 54.8 C28.1 54.8 31.9 54.8 33.8 54.8 C33.8 49.575 33.8 39.125 33.8 33.9 C38.8 33.9 48.8 33.9 53.8 33.9 C53.8 32.2 53.8 28.8 53.8 27.1 C48.8 27.1 38.8 27.1 33.8 27.1 C33.8 21.875 33.8 11.425 33.8 6.2 C31.9 6.2 28.1 6.2 26.2 6.2 C26.2 11.425 26.2 21.875 26.2 27.1 z" />
<glyph unicode="," horiz-adv-x="60" d="M38.6 13.6 C35.725 6.675 29.975 -7.175 27.1 -14.1 C25.425 -14.1 22.075 -14.1 20.4 -14.1 C21.725 -7.175 24.375 6.675 25.7 13.6 C28.925 13.6 35.375 13.6 38.6 13.6 z" />
<glyph unicode="-" horiz-adv-x="60" d="M15.5 34.6 C22.75 34.6 37.25 34.6 44.5 34.6 C44.5 32.5 44.5 28.3 44.5 26.2 C37.25 26.2 22.75 26.2 15.5 26.2 C15.5 28.3 15.5 32.5 15.5 34.6 z" />
<glyph unicode="." horiz-adv-x="60" d="M24.4 0.7 Q22.6 2.4 22.6 5.1 C22.6 5.7 22.6 6.45 22.6 6.9 Q22.6 9.6 24.4 11.25 Q26.2 12.9 30 12.9 Q33.8 12.9 35.6 11.25 Q37.4 9.6 37.4 6.9 C37.4 6.3 37.4 5.55 37.4 5.1 Q37.4 2.4 35.6 0.75 Q33.8 -0.9 30 -0.9 Q26.2 -0.9 24.4 0.7 z" />
<glyph unicode="/" horiz-adv-x="60" d="M43.8 76 C45.6 76 49.2 76 51 76 C42.3 53.55 24.9 8.65 16.2 -13.8 C14.4 -13.8 10.8 -13.8 9 -13.8 C17.7 8.65 35.1 53.55 43.8 76 z" />
<glyph unicode="0" horiz-adv-x="60" d="M5.6 34.9 Q5.6 71 30 71 Q54.4 71 54.4 34.9 Q54.4 -1.2 30 -1.2 Q5.6 -1.2 5.6 34.9 zM41.9 12.1 Q45.7 18.2 45.7 29.2 C45.7 33 45.7 37.75 45.7 40.6 Q45.7 51.6 41.9 57.65 Q38.1 63.7 30 63.7 Q21.9 63.7 18.1 57.65 Q14.3 51.6 14.3 40.6 C14.3 36.8 14.3 32.05 14.3 29.2 Q14.3 18.2 18.1 12.15 Q21.9 6.1 30 6.1 Q38.1 6.1 41.9 12.1 zM23.8 33.8 C23.8 34.35 23.8 35.45 23.8 36 Q23.8 40.8 30 40.8 Q36.2 40.8 36.2 36 C36.2 35.26667 36.2 34.35 36.2 33.8 Q36.2 29 30 29 Q23.8 29 23.8 33.8 z" />
<glyph unicode="1" horiz-adv-x="60" d="M8.5 7.3 C13.5 7.3 23.5 7.3 28.5 7.3 C28.5 21.025 28.5 48.475 28.5 62.2 C23.425 59.275 13.275 53.425 8.2 50.5 C7.375 52.1 5.725 55.3 4.9 56.9 C10.6 60.125 22 66.575 27.7 69.8 C30 69.8 34.6 69.8 36.9 69.8 C36.9 54.175 36.9 22.925 36.9 7.3 C41.5 7.3 50.7 7.3 55.3 7.3 C55.3 5.475 55.3 1.825 55.3 0 C43.6 0 20.2 0 8.5 0 C8.5 1.825 8.5 5.475 8.5 7.3 z" />
<glyph unicode="2" horiz-adv-x="60" d="M7.1 0 C7.1 2.15 7.1 6.45 7.1 8.6 C12.925 13.85 24.575 24.35 30.4 29.6 Q36 34.6 39.05 39.45 Q42.1 44.3 42.1 49.3 C42.1 49.7 42.1 50.2 42.1 50.5 Q42.1 56.8 38.75 60.25 Q35.4 63.7 29 63.7 Q22.9 63.7 19.35 60.6 Q15.8 57.5 14 51.8 C11.5 52.73333 8.375 53.9 6.5 54.6 Q8.9 61.7 14.35 66.35 Q19.8 71 29.2 71 Q39.4 71 45.15 65.45 Q50.9 59.9 50.9 50.8 Q50.9 43.4 46.95 37.2 Q43 31 35.3 24.3 C28.8 18.63333 20.675 11.55 15.8 7.3 C25.275 7.3 44.225 7.3 53.7 7.3 C53.7 5.475 53.7 1.825 53.7 0 C42.05 0 18.75 0 7.1 0 z" />
<glyph unicode="3" horiz-adv-x="60" d="M37.8 43.4 Q41.6 46.6 41.6 51.8 C41.6 52.03333 41.6 52.325 41.6 52.5 Q41.6 57.9 38.15 60.8 Q34.7 63.7 28.8 63.7 Q23.5 63.7 19.95 61.4 Q16.4 59.1 14.1 54.8 C12 56.4 9.375 58.4 7.8 59.6 Q15.1 71 29 71 Q35 71 39.9 68.95 Q44.8 66.9 47.6 62.9 Q50.4 58.9 50.4 53.4 Q50.4 47 46.65 42.8 Q42.9 38.6 36.8 37.1 C36.8 36.96667 36.8 36.8 36.8 36.7 Q43.2 35.5 47.5 31 Q51.8 26.5 51.8 19.1 Q51.8 13.1 48.8 8.5 Q45.8 3.9 40.3 1.3 Q34.9 -1.2 27.7 -1.2 Q19.3 -1.2 14 2.05 Q8.7 5.3 4.8 10.7 C6.9 12.3 9.525 14.3 11.1 15.5 Q14.2 10.8 17.9 8.45 Q21.6 6.1 27.7 6.1 Q35 6.1 39 9.55 Q43 13 43 19.2 C43 19.46667 43 19.8 43 20 Q43 26.2 39.1 29.6 Q35.2 33 27.6 33 C24.83333 33 21.375 33 19.3 33 C19.3 34.8 19.3 38.4 19.3 40.2 C21.225 40.2 25.075 40.2 27 40.2 Q34.1 40.2 37.8 43.4 z" />
<glyph unicode="4" horiz-adv-x="60" d="M37.8 13.7 C29.2 13.7 12 13.7 3.4 13.7 C3.4 15.55 3.4 19.25 3.4 21.1 C10.95 33.275 26.05 57.625 33.6 69.8 C36.65 69.8 42.75 69.8 45.8 69.8 C45.8 57.5 45.8 32.9 45.8 20.6 C48.4 20.6 53.6 20.6 56.2 20.6 C56.2 18.875 56.2 15.425 56.2 13.7 C53.6 13.7 48.4 13.7 45.8 13.7 C45.8 10.275 45.8 3.425 45.8 0 C43.8 0 39.8 0 37.8 0 C37.8 3.425 37.8 10.275 37.8 13.7 zM37.8 20.6 C37.8 31.275 37.8 52.625 37.8 63.3 C37.7 63.3 37.5 63.3 37.4 63.3 C30.775 52.625 17.525 31.275 10.9 20.6 C17.625 20.6 31.075 20.6 37.8 20.6 z" />
<glyph unicode="5" horiz-adv-x="60" d="M18.9 62.5 C18.4 55.825 17.4 42.475 16.9 35.8 C17.075 35.8 17.425 35.8 17.6 35.8 Q20.4 39.6 23.7 41.5 Q27 43.4 32.2 43.4 Q38.3 43.4 43.1 40.8 Q47.9 38.2 50.6 33.3 Q53.3 28.5 53.3 21.9 Q53.3 15.1 50.45 9.85 Q47.6 4.6 42.2 1.7 Q36.8 -1.2 29.5 -1.2 Q21.5 -1.2 16.35 2.05 Q11.2 5.3 7.3 10.7 C9.4 12.3 12.025 14.3 13.6 15.5 Q16.8 10.8 20.3 8.45 Q23.8 6.1 29.7 6.1 Q36.8 6.1 40.7 10 Q44.6 13.9 44.6 20.8 C44.6 21.06667 44.6 21.4 44.6 21.6 Q44.6 28.5 40.65 32.4 Q36.7 36.3 29.5 36.3 Q25 36.3 22.15 34.8 Q19.3 33.3 16.7 30.4 C14.33333 30.73333 11.375 31.15 9.6 31.4 C10.225 41 11.475 60.2 12.1 69.8 C21.6 69.8 40.6 69.8 50.1 69.8 C50.1 67.975 50.1 64.325 50.1 62.5 C42.3 62.5 26.7 62.5 18.9 62.5 z" />
<glyph unicode="6" horiz-adv-x="60" d="M12.7 5.9 Q6.4 13.1 6.4 25.6 Q6.4 35.3 10.15 44 Q13.9 52.7 19.7 59.2 Q25.5 65.8 31.7 69.8 C35.3 69.8 39.8 69.8 42.5 69.8 Q30.4 61.1 24.1 53.15 Q17.8 45.2 15 33.6 C15.16667 33.53333 15.375 33.45 15.5 33.4 Q18.3 38.1 22.45 40.75 Q26.6 43.4 32.7 43.4 Q38.8 43.4 43.55 40.75 Q48.3 38.1 50.9 33.2 Q53.6 28.4 53.6 21.9 Q53.6 15.1 50.7 9.85 Q47.8 4.6 42.4 1.7 Q37.1 -1.2 30.1 -1.2 Q19.1 -1.2 12.7 5.9 zM41.1 9.8 Q45.1 13.8 45.1 20.8 C45.1 21.06667 45.1 21.4 45.1 21.6 Q45.1 28.6 41.1 32.55 Q37.1 36.5 30 36.5 Q22.9 36.5 18.9 32.55 Q14.9 28.6 14.9 21.6 C14.9 21.33333 14.9 21 14.9 20.8 Q14.9 13.8 18.9 9.85 Q22.9 5.9 30 5.9 Q37.1 5.9 41.1 9.8 z" />
<glyph unicode="7" horiz-adv-x="60" d="M44.6 62.6 C36.95 62.6 21.65 62.6 14 62.6 C14 59.35 14 52.85 14 49.6 C12.125 49.6 8.375 49.6 6.5 49.6 C6.5 54.65 6.5 64.75 6.5 69.8 C18.15 69.8 41.45 69.8 53.1 69.8 C53.1 67.95 53.1 64.25 53.1 62.4 C46.4 46.8 33 15.6 26.3 0 C24.05 0 19.55 0 17.3 0 C24.125 15.65 37.775 46.95 44.6 62.6 z" />
<glyph unicode="8" horiz-adv-x="60" d="M16.6 1.4 Q11.1 4 8.3 8.6 Q5.5 13.2 5.5 19 Q5.5 25.9 9.25 30.2 Q13 34.5 19.7 36.3 C19.7 36.56667 19.7 36.9 19.7 37.1 Q14.1 39 10.85 43.3 Q7.6 47.6 7.6 53.5 Q7.6 61.5 13.55 66.25 Q19.5 71 30 71 Q40.5 71 46.45 66.25 Q52.4 61.5 52.4 53.5 Q52.4 47.6 49.15 43.3 Q45.9 39 40.3 37.1 C40.3 36.83333 40.3 36.5 40.3 36.3 Q47 34.5 50.75 30.2 Q54.5 25.9 54.5 19 Q54.5 13.2 51.7 8.6 Q48.9 4 43.4 1.4 Q37.9 -1.2 30 -1.2 Q22.1 -1.2 16.6 1.4 zM40.3 43 Q43.9 45.9 43.9 51.3 C43.9 51.76667 43.9 52.35 43.9 52.7 Q43.9 58 40.25 60.9 Q36.6 63.8 30 63.8 Q23.4 63.8 19.75 60.9 Q16.1 58 16.1 52.7 C16.1 52.23333 16.1 51.65 16.1 51.3 Q16.1 45.9 19.7 43 Q23.3 40.1 30 40.1 Q36.7 40.1 40.3 43 zM41.6 9.2 Q45.8 12.6 45.8 18.5 C45.8 19.23333 45.8 20.15 45.8 20.7 Q45.8 26.7 41.65 30 Q37.5 33.3 30 33.3 Q22.5 33.3 18.35 30 Q14.2 26.7 14.2 20.7 C14.2 19.96667 14.2 19.05 14.2 18.5 Q14.2 12.6 18.4 9.25 Q22.6 5.9 30 5.9 Q37.4 5.9 41.6 9.2 z" />
<glyph unicode="9" horiz-adv-x="60" d="M49.8 25.8 Q46.1 17.1 40.3 10.55 Q34.5 4 28.3 0 C24.7 0 20.2 0 17.5 0 Q29.6 8.7 35.9 16.65 Q42.2 24.6 45 36.2 C44.83333 36.26667 44.625 36.35 44.5 36.4 Q41.7 31.7 37.55 29.05 Q33.4 26.4 27.3 26.4 Q21.2 26.4 16.45 29.05 Q11.7 31.7 9 36.5 Q6.4 41.4 6.4 47.9 Q6.4 54.7 9.3 59.95 Q12.2 65.2 17.5 68.1 Q22.9 71 29.9 71 Q40.9 71 47.25 63.85 Q53.6 56.7 53.6 44.2 Q53.6 34.5 49.8 25.8 zM41.1 37.2 Q45.1 41.2 45.1 48.2 C45.1 48.46667 45.1 48.8 45.1 49 Q45.1 56 41.1 59.95 Q37.1 63.9 30 63.9 Q22.9 63.9 18.9 59.95 Q14.9 56 14.9 49 C14.9 48.73333 14.9 48.4 14.9 48.2 Q14.9 41.2 18.9 37.25 Q22.9 33.3 30 33.3 Q37.1 33.3 41.1 37.2 z" />
<glyph unicode=":" horiz-adv-x="60" d="M24.4 40.3 Q22.6 42 22.6 44.7 C22.6 45.3 22.6 46.05 22.6 46.5 Q22.6 49.2 24.4 50.85 Q26.2 52.5 30 52.5 Q33.8 52.5 35.6 50.85 Q37.4 49.2 37.4 46.5 C37.4 45.9 37.4 45.15 37.4 44.7 Q37.4 42 35.6 40.35 Q33.8 38.7 30 38.7 Q26.2 38.7 24.4 40.3 zM24.4 0.7 Q22.6 2.4 22.6 5.1 C22.6 5.7 22.6 6.45 22.6 6.9 Q22.6 9.6 24.4 11.25 Q26.2 12.9 30 12.9 Q33.8 12.9 35.6 11.25 Q37.4 9.6 37.4 6.9 C37.4 6.3 37.4 5.55 37.4 5.1 Q37.4 2.4 35.6 0.75 Q33.8 -0.9 30 -0.9 Q26.2 -0.9 24.4 0.7 z" />
<glyph unicode=";" horiz-adv-x="60" d="M24.4 40.3 Q22.6 42 22.6 44.7 C22.6 45.3 22.6 46.05 22.6 46.5 Q22.6 49.2 24.4 50.85 Q26.2 52.5 30 52.5 Q33.8 52.5 35.6 50.85 Q37.4 49.2 37.4 46.5 C37.4 45.9 37.4 45.15 37.4 44.7 Q37.4 42 35.6 40.35 Q33.8 38.7 30 38.7 Q26.2 38.7 24.4 40.3 zM38.6 13.6 C35.725 6.675 29.975 -7.175 27.1 -14.1 C25.425 -14.1 22.075 -14.1 20.4 -14.1 C21.725 -7.175 24.375 6.675 25.7 13.6 C28.925 13.6 35.375 13.6 38.6 13.6 z" />
<glyph unicode="&#x3c;" horiz-adv-x="60" d="M8.5 34.5 C19.25 40.725 40.75 53.175 51.5 59.4 C51.5 57.325 51.5 53.175 51.5 51.1 C42.625 46.075 24.875 36.025 16 31 C16 30.8 16 30.4 16 30.2 C24.875 25.175 42.625 15.125 51.5 10.1 C51.5 7.975 51.5 3.725 51.5 1.6 C40.75 7.825 19.25 20.275 8.5 26.5 C8.5 28.5 8.5 32.5 8.5 34.5 z" />
<glyph unicode="=" horiz-adv-x="60" d="M6.2 44 C18.1 44 41.9 44 53.8 44 C53.8 42.3 53.8 38.9 53.8 37.2 C41.9 37.2 18.1 37.2 6.2 37.2 C6.2 38.9 6.2 42.3 6.2 44 zM6.2 24 C18.1 24 41.9 24 53.8 24 C53.8 22.3 53.8 18.9 53.8 17.2 C41.9 17.2 18.1 17.2 6.2 17.2 C6.2 18.9 6.2 22.3 6.2 24 z" />
<glyph unicode="&#x3e;" horiz-adv-x="60" d="M44 30 C44 30.2 44 30.6 44 30.8 C35.125 35.825 17.375 45.875 8.5 50.9 C8.5 53.025 8.5 57.275 8.5 59.4 C19.25 53.175 40.75 40.725 51.5 34.5 C51.5 32.5 51.5 28.5 51.5 26.5 C40.75 20.275 19.25 7.825 8.5 1.6 C8.5 3.675 8.5 7.825 8.5 9.9 C17.375 14.925 35.125 24.975 44 30 z" />
<glyph unicode="?" horiz-adv-x="60" d="M23.9 37.2 Q32.7 37.6 37.5 41.05 Q42.3 44.5 42.3 51.1 C42.3 51.56667 42.3 52.15 42.3 52.5 Q42.3 58 39 60.85 Q35.7 63.7 29.8 63.7 Q24.1 63.7 20.35 60.5 Q16.6 57.3 15.2 52 C12.7 52.93333 9.575 54.1 7.7 54.8 Q9.8 62 15.45 66.5 Q21.1 71 30.1 71 Q39.6 71 45.3 65.85 Q51 60.7 51 52.1 Q51 43.4 45.4 38.2 Q39.8 33 31.8 31.6 C31.8 28.23333 31.8 24.025 31.8 21.5 C29.825 21.5 25.875 21.5 23.9 21.5 C23.9 25.425 23.9 33.275 23.9 37.2 zM22.6 0.7 Q20.8 2.4 20.8 5.1 C20.8 5.7 20.8 6.45 20.8 6.9 Q20.8 9.6 22.6 11.25 Q24.4 12.9 28.2 12.9 Q32 12.9 33.8 11.25 Q35.6 9.6 35.6 6.9 C35.6 6.3 35.6 5.55 35.6 5.1 Q35.6 2.4 33.8 0.75 Q32 -0.9 28.2 -0.9 Q24.4 -0.9 22.6 0.7 z" />
<glyph unicode="@" horiz-adv-x="90" d="M44.7 -12.1 Q33.3 -12.1 24.65 -7.05 Q16 -2 11.2 7.3 Q6.5 16.6 6.5 28.8 Q6.5 41.1 11.35 50.65 Q16.2 60.2 25.1 65.5 Q34 70.8 45.6 70.8 Q55.5 70.8 63.9 66.75 Q72.3 62.7 77.4 54 Q82.6 45.4 82.6 32.3 Q82.6 21.1 78.35 14 Q74.1 6.9 65.2 6.9 Q60.6 6.9 58.1 9.2 Q55.6 11.5 55.1 15.5 C54.96667 15.5 54.8 15.5 54.7 15.5 Q52.6 11.3 49.65 9.1 Q46.7 6.9 42.3 6.9 Q37.5 6.9 33.55 9.35 Q29.6 11.8 27.2 16.7 Q24.9 21.7 24.9 28.9 Q24.9 36.1 27.25 41.05 Q29.6 46 33.5 48.4 Q37.5 50.9 42.3 50.9 Q46.6 50.9 49.4 48.8 Q52.2 46.7 53.7 43.2 C53.83333 43.2 54 43.2 54.1 43.2 C54.1 44.9 54.1 48.3 54.1 50 C55.825 50 59.275 50 61 50 C61 42.4 61 27.2 61 19.6 Q61 15.8 62.3 14.4 Q63.6 13 66.5 13 Q71.1 13 73.55 17.8 Q76 22.6 76 31 C76 32.53333 76 34.45 76 35.6 Q76 44.2 72 50.85 Q68 57.5 61 61.1 Q54.1 64.8 45.5 64.8 Q36.1 64.8 28.75 60.5 Q21.4 56.2 17.3 48.7 Q13.2 41.2 13.2 32.1 C13.2 30.13333 13.2 27.675 13.2 26.2 Q13.2 16.8 17.15 9.5 Q21.1 2.2 28.3 -1.9 Q35.5 -6 44.8 -6 C52.5 -6 62.125 -6 67.9 -6 C67.9 -7.525 67.9 -10.575 67.9 -12.1 C62.1 -12.1 50.5 -12.1 44.7 -12.1 zM51.5 16 Q54.1 18.5 54.1 23.1 C54.1 27.16667 54.1 32.25 54.1 35.3 Q54.1 39.3 51.45 41.8 Q48.8 44.3 43.7 44.3 Q38.5 44.3 35.9 41.25 Q33.3 38.2 33.3 32.9 C33.3 30.23333 33.3 26.9 33.3 24.9 Q33.3 19.6 35.9 16.55 Q38.5 13.5 43.7 13.5 Q48.9 13.5 51.5 16 z" />
<glyph unicode="A" horiz-adv-x="60" d="M42.2 19.9 C36.075 19.9 23.825 19.9 17.7 19.9 C16.225 14.925 13.275 4.975 11.8 0 C9.625 0 5.275 0 3.1 0 C8.45 17.45 19.15 52.35 24.5 69.8 C27.275 69.8 32.825 69.8 35.6 69.8 C40.95 52.35 51.65 17.45 57 0 C54.775 0 50.325 0 48.1 0 C46.625 4.975 43.675 14.925 42.2 19.9 zM29.5 60.9 C27.05 52.475 22.15 35.625 19.7 27.2 C24.825 27.2 35.075 27.2 40.2 27.2 C37.75 35.625 32.85 52.475 30.4 60.9 C30.175 60.9 29.725 60.9 29.5 60.9 z" />
<glyph unicode="B" horiz-adv-x="60" d="M32.5 69.8 Q41.4 69.8 46.55 64.9 Q51.7 60 51.7 51.8 Q51.7 45.8 48.8 42.1 Q45.9 38.4 40.8 36.8 C40.8 36.7 40.8 36.575 40.8 36.5 Q47.1 35.1 50.7 31.05 Q54.3 27 54.3 20.1 Q54.3 14.5 51.85 9.9 Q49.4 5.3 45.1 2.6 Q40.8 0 35.5 0 C26.6 0 15.475 0 8.8 0 C8.8 17.45 8.8 52.35 8.8 69.8 C14.725 69.8 26.575 69.8 32.5 69.8 zM39.9 41.9 Q42.9 44.3 42.9 49 C42.9 50.3 42.9 51.925 42.9 52.9 Q42.9 57.6 39.95 60.05 Q37 62.5 31.6 62.5 C26.8 62.5 20.8 62.5 17.2 62.5 C17.2 56.75 17.2 45.25 17.2 39.5 C20.8 39.5 28 39.5 31.6 39.5 Q37 39.5 39.9 41.9 zM42.1 10 Q45.4 12.7 45.4 17.9 C45.4 19.26667 45.4 20.975 45.4 22 Q45.4 27.2 42.15 29.9 Q38.9 32.6 33 32.6 C27.73333 32.6 21.15 32.6 17.2 32.6 C17.2 26.275 17.2 13.625 17.2 7.3 C21.15 7.3 29.05 7.3 33 7.3 Q38.9 7.3 42.1 10 z" />
<glyph unicode="C" horiz-adv-x="60" d="M13.3 8 Q7 17.3 7 34.9 Q7 52.5 13.35 61.75 Q19.7 71 32.3 71 Q41 71 45.85 66.85 Q50.7 62.7 53.8 55.7 C51.4 54.6 48.4 53.225 46.6 52.4 Q44.4 57.9 41.25 60.8 Q38.1 63.7 32.3 63.7 Q24.2 63.7 20.05 57.55 Q15.9 51.4 15.9 40.6 C15.9 36.8 15.9 32.05 15.9 29.2 Q15.9 18.4 20.05 12.25 Q24.2 6.1 32.3 6.1 Q38.1 6.1 41.25 9 Q44.4 11.9 46.6 17.4 C49 16.3 52 14.925 53.8 14.1 Q50.7 7.1 45.85 2.95 Q41 -1.2 32.3 -1.2 Q19.7 -1.2 13.3 8 z" />
<glyph unicode="D" horiz-adv-x="60" d="M29 69.8 Q41.7 69.8 48.05 61 Q54.4 52.2 54.4 34.9 Q54.4 17.6 48.05 8.8 Q41.7 0 29 0 C22.5 0 14.375 0 9.5 0 C9.5 17.45 9.5 52.35 9.5 69.8 C14.375 69.8 24.125 69.8 29 69.8 zM41.1 13.1 Q45.5 18.9 45.5 29.5 C45.5 33.1 45.5 37.6 45.5 40.3 Q45.5 50.9 41.15 56.7 Q36.8 62.5 28.6 62.5 C25.03333 62.5 20.575 62.5 17.9 62.5 C17.9 48.7 17.9 21.1 17.9 7.3 C20.575 7.3 25.925 7.3 28.6 7.3 Q36.8 7.3 41.1 13.1 z" />
<glyph unicode="E" horiz-adv-x="60" d="M9 69.8 C19.75 69.8 41.25 69.8 52 69.8 C52 67.975 52 64.325 52 62.5 C43.35 62.5 26.05 62.5 17.4 62.5 C17.4 56.625 17.4 44.875 17.4 39 C24.55 39 38.85 39 46 39 C46 37.175 46 33.525 46 31.7 C38.85 31.7 24.55 31.7 17.4 31.7 C17.4 25.6 17.4 13.4 17.4 7.3 C26.05 7.3 43.35 7.3 52 7.3 C52 5.475 52 1.825 52 0 C41.25 0 19.75 0 9 0 C9 17.45 9 52.35 9 69.8 z" />
<glyph unicode="F" horiz-adv-x="60" d="M9 69.8 C20 69.8 42 69.8 53 69.8 C53 67.975 53 64.325 53 62.5 C44.1 62.5 26.3 62.5 17.4 62.5 C17.4 56.625 17.4 44.875 17.4 39 C25.55 39 41.85 39 50 39 C50 37.175 50 33.525 50 31.7 C41.85 31.7 25.55 31.7 17.4 31.7 C17.4 23.775 17.4 7.925 17.4 0 C15.3 0 11.1 0 9 0 C9 17.45 9 52.35 9 69.8 z" />
<glyph unicode="G" horiz-adv-x="60" d="M43.9 9.3 Q41.9 4.5 38.3 1.65 Q34.7 -1.2 28.1 -1.2 Q16.9 -1.2 11.25 7.95 Q5.6 17.1 5.6 34.4 Q5.6 52.4 11.8 61.7 Q18 71 30.5 71 Q39.4 71 44.45 66.75 Q49.5 62.5 52.2 55.7 C49.8 54.6 46.8 53.225 45 52.4 Q42.8 57.9 39.7 60.8 Q36.6 63.7 30.8 63.7 Q22.6 63.7 18.55 57.6 Q14.5 51.5 14.5 40.6 C14.5 37 14.5 32.5 14.5 29.8 Q14.5 18.6 18.2 12.25 Q21.9 5.9 30 5.9 Q36.6 5.9 40.5 9.95 Q44.4 14 44.4 20.6 C44.4 23 44.4 26 44.4 27.8 C40.725 27.8 33.375 27.8 29.7 27.8 C29.7 29.475 29.7 32.825 29.7 34.5 C35.325 34.5 46.575 34.5 52.2 34.5 C52.2 25.875 52.2 8.625 52.2 0 C50.25 0 46.35 0 44.4 0 C44.4 2.325 44.4 6.975 44.4 9.3 C44.275 9.3 44.025 9.3 43.9 9.3 z" />
<glyph unicode="H" horiz-adv-x="60" d="M16.4 31.7 C16.4 23.775 16.4 7.925 16.4 0 C14.3 0 10.1 0 8 0 C8 17.45 8 52.35 8 69.8 C10.1 69.8 14.3 69.8 16.4 69.8 C16.4 62.1 16.4 46.7 16.4 39 C23.2 39 36.8 39 43.6 39 C43.6 46.7 43.6 62.1 43.6 69.8 C45.7 69.8 49.9 69.8 52 69.8 C52 52.35 52 17.45 52 0 C49.9 0 45.7 0 43.6 0 C43.6 7.925 43.6 23.775 43.6 31.7 C36.8 31.7 23.2 31.7 16.4 31.7 z" />
<glyph unicode="I" horiz-adv-x="60" d="M8.4 6.7 C12.75 6.7 21.45 6.7 25.8 6.7 C25.8 20.8 25.8 49 25.8 63.1 C21.45 63.1 12.75 63.1 8.4 63.1 C8.4 64.775 8.4 68.125 8.4 69.8 C19.2 69.8 40.8 69.8 51.6 69.8 C51.6 68.125 51.6 64.775 51.6 63.1 C47.25 63.1 38.55 63.1 34.2 63.1 C34.2 49 34.2 20.8 34.2 6.7 C38.55 6.7 47.25 6.7 51.6 6.7 C51.6 5.025 51.6 1.675 51.6 0 C40.8 0 19.2 0 8.4 0 C8.4 1.675 8.4 5.025 8.4 6.7 z" />
<glyph unicode="J" horiz-adv-x="60" d="M48 18.1 Q48 12.3 45.4 7.9 Q42.8 3.5 38.1 1.1 Q33.4 -1.2 27.4 -1.2 Q19.5 -1.2 14.25 2.95 Q9 7.1 7.4 14.6 C10.06667 15.16667 13.4 15.875 15.4 16.3 Q16.5 11.6 19.35 8.9 Q22.2 6.2 27.6 6.2 Q33.4 6.2 36.5 9.55 Q39.6 12.9 39.6 19.6 C39.6 33.9 39.6 51.775 39.6 62.5 C36.52806 62.5054 30.38418 62.51619 27.31224 62.52158 C27.31224 64.34658 27.31224 67.99658 27.31224 69.82158 C32.48418 69.81618 42.82806 69.8054 48 69.8 C48 56.875 48 31.025 48 18.1 z" />
<glyph unicode="K" horiz-adv-x="60" d="M17 24.2 C16.975 18.15 16.925 6.05 16.9 0 C14.8 0 10.6 0 8.5 0 C8.5 17.45 8.5 52.35 8.5 69.8 C10.6 69.8 14.8 69.8 16.9 69.8 C16.9 60.7 16.9 42.5 16.9 33.4 C16.975 33.4 17.125 33.4 17.2 33.4 C18.7 34.4 21.7 36.4 23.2 37.4 C24.75 39.05 27.85 42.35 29.4 44 C33.8 50.45 42.6 63.35 47 69.8 C49.525 69.8 54.575 69.8 57.1 69.8 C50.475 60.8 37.225 42.8 30.6 33.8 C37.4 25.35 51 8.45 57.8 0 C55.35 0 50.45 0 48 0 C42.2 7.1 30.6 21.3 24.8 28.4 C22.85 27.35 18.95 25.25 17 24.2 z" />
<glyph unicode="L" horiz-adv-x="60" d="M12 69.8 C14.1 69.8 18.3 69.8 20.4 69.8 C20.4 54.175 20.4 22.925 20.4 7.3 C28.675 7.3 45.225 7.3 53.5 7.3 C53.5 5.475 53.5 1.825 53.5 0 C43.125 0 22.375 0 12 0 C12 17.45 12 52.35 12 69.8 z" />
<glyph unicode="M" horiz-adv-x="90" d="M67.8 58.8 C66.325 55.875 63.375 50.025 61.9 47.1 C57.725 39.5 49.375 24.3 45.2 16.7 C41.05 24.3 32.75 39.5 28.6 47.1 C27.125 50 24.175 55.8 22.7 58.7 C22.075 58.7 20.825 58.7 20.2 58.7 C20.2 44.025 20.2 14.675 20.2 0 C18.15 0 14.05 0 12 0 C12 17.45 12 52.35 12 69.8 C15.25 69.8 21.75 69.8 25 69.8 C30 60.4 40 41.6 45 32.2 C45.1 32.2 45.3 32.2 45.4 32.2 C50.425 41.6 60.475 60.4 65.5 69.8 C68.75 69.8 75.25 69.8 78.5 69.8 C78.5 52.35 78.5 17.45 78.5 0 C76.45 0 72.35 0 70.3 0 C70.3 14.7 70.3 44.1 70.3 58.8 C69.675 58.8 68.425 58.8 67.8 58.8 z" />
<glyph unicode="N" horiz-adv-x="60" d="M15.6 59.1 C15.6 44.325 15.6 14.775 15.6 0 C13.7 0 9.9 0 8 0 C8 17.45 8 52.35 8 69.8 C10.975 69.8 16.925 69.8 19.9 69.8 C25.85 55.175 37.75 25.925 43.7 11.3 C43.875 11.3 44.225 11.3 44.4 11.3 C44.4 25.925 44.4 55.175 44.4 69.8 C46.3 69.8 50.1 69.8 52 69.8 C52 52.35 52 17.45 52 0 C49.025 0 43.075 0 40.1 0 C34.15 14.775 22.25 44.325 16.3 59.1 C16.125 59.1 15.775 59.1 15.6 59.1 z" />
<glyph unicode="O" horiz-adv-x="60" d="M5.6 34.9 Q5.6 71 30 71 Q54.4 71 54.4 34.9 Q54.4 -1.2 30 -1.2 Q5.6 -1.2 5.6 34.9 zM41.7 12.1 Q45.5 18.2 45.5 29.2 C45.5 33 45.5 37.75 45.5 40.6 Q45.5 51.6 41.75 57.65 Q38 63.7 30 63.7 Q22 63.7 18.25 57.65 Q14.5 51.6 14.5 40.6 C14.5 36.8 14.5 32.05 14.5 29.2 Q14.5 18.2 18.25 12.15 Q22 6.1 30 6.1 Q38 6.1 41.7 12.1 z" />
<glyph unicode="P" horiz-adv-x="60" d="M9 69.8 C15.35 69.8 28.05 69.8 34.4 69.8 Q44 69.8 49.15 64.5 Q54.3 59.2 54.3 49.7 Q54.3 40.2 49.15 34.9 Q44 29.6 34.4 29.6 C28.73333 29.6 21.65 29.6 17.4 29.6 C17.4 22.2 17.4 7.4 17.4 0 C15.3 0 11.1 0 9 0 C9 17.45 9 52.35 9 69.8 zM34.2 36.9 Q39.5 36.9 42.45 39.55 Q45.4 42.2 45.4 47.1 C45.4 48.83333 45.4 51 45.4 52.3 Q45.4 57.2 42.45 59.85 Q39.5 62.5 34.2 62.5 C28.6 62.5 21.6 62.5 17.4 62.5 C17.4 56.1 17.4 43.3 17.4 36.9 C21.6 36.9 30 36.9 34.2 36.9 z" />
<glyph unicode="Q" horiz-adv-x="60" d="M36.6 -8.1 Q36.6 -8.1 39.5 -8.5 C42.7 -8.86667 46.7 -9.325 49.1 -9.6 C49.1 -11.3 49.1 -14.7 49.1 -16.4 C46.325 -16.125 40.775 -15.575 38 -15.3 Q32 -14.7 30.4 -12.9 Q26.7 -8.7 26.4 -5.2 C26.26667 -3.76667 26.1 -1.975 26 -0.9 Q5.6 1.8 5.6 34.9 Q5.6 71 30 71 Q54.4 71 54.4 34.9 Q54.4 18.9 49.4 9.7 Q44.4 0.5 34 -0.9 C34.03333 -2.16667 34.075 -3.75 34.1 -4.7 C34.25 -5.2 34.55 -6.2 34.7 -6.7 Q35.7 -8 36.6 -8.1 zM41.7 12.1 Q45.5 18.2 45.5 29.2 C45.5 33 45.5 37.75 45.5 40.6 Q45.5 51.6 41.75 57.65 Q38 63.7 30 63.7 Q22 63.7 18.25 57.65 Q14.5 51.6 14.5 40.6 C14.5 36.8 14.5 32.05 14.5 29.2 Q14.5 18.2 18.25 12.15 Q22 6.1 30 6.1 Q38 6.1 41.7 12.1 z" />
<glyph unicode="R" horiz-adv-x="60" d="M9 0 C9 17.45 9 52.35 9 69.8 C15.35 69.8 28.05 69.8 34.4 69.8 Q44 69.8 49.15 64.5 Q54.3 59.2 54.3 49.7 Q54.3 41.2 49.85 36.1 Q45.4 31 37.1 30.2 C43.03333 20.13333 50.45 7.55 54.9 0 C52.55 0 47.85 0 45.5 0 C41.25 7.45 32.75 22.35 28.5 29.8 C25.725 29.8 20.175 29.8 17.4 29.8 C17.4 22.35 17.4 7.45 17.4 0 C15.3 0 11.1 0 9 0 zM42.4 39.5 Q45.4 42.2 45.4 47.1 C45.4 48.83333 45.4 51 45.4 52.3 Q45.4 57.2 42.45 59.85 Q39.5 62.5 34.2 62.5 C28.6 62.5 21.6 62.5 17.4 62.5 C17.4 56.1 17.4 43.3 17.4 36.9 C21.6 36.9 30 36.9 34.2 36.9 Q39.5 36.9 42.4 39.5 z" />
<glyph unicode="S" horiz-adv-x="60" d="M14.8 2 Q8.7 5.3 4.5 11.1 C6.53333 12.76667 9.075 14.85 10.6 16.1 Q14.7 10.9 19.3 8.45 Q23.9 6 30.1 6 Q37.6 6 41.65 9.5 Q45.7 13 45.7 19.3 Q45.7 24.5 42.7 27.3 Q39.7 30.1 32.7 31.3 C30.1 31.73333 26.85 32.275 24.9 32.6 Q15.3 34.2 11.1 39.25 Q6.9 44.3 6.9 51.6 Q6.9 61 13.1 66 Q19.3 71 30.2 71 Q46.1 71 53.6 60.3 C51.63333 58.6 49.175 56.475 47.7 55.2 Q44.5 59.4 40.35 61.6 Q36.2 63.8 30.1 63.8 Q23 63.8 19.2 60.75 Q15.4 57.7 15.4 51.8 Q15.4 46.9 18.35 44 Q21.3 41.1 28.5 39.9 C31 39.46667 34.125 38.925 36 38.6 Q54.2 35.4 54.2 19.5 Q54.2 9.8 47.8 4.3 Q41.4 -1.2 29.8 -1.2 Q20.9 -1.2 14.8 2 z" />
<glyph unicode="T" horiz-adv-x="60" d="M34.2 0 C32.1 0 27.9 0 25.8 0 C25.8 15.625 25.8 46.875 25.8 62.5 C19.975 62.5 8.325 62.5 2.5 62.5 C2.5 64.325 2.5 67.975 2.5 69.8 C16.25 69.8 43.75 69.8 57.5 69.8 C57.5 67.975 57.5 64.325 57.5 62.5 C51.675 62.5 40.025 62.5 34.2 62.5 C34.2 46.875 34.2 15.625 34.2 0 z" />
<glyph unicode="U" horiz-adv-x="60" d="M16.4 27.9 Q16.4 19.8 17.15 15.45 Q17.9 11.1 20.8 8.6 Q23.7 6.1 30 6.1 Q36.3 6.1 39.2 8.6 Q42.1 11.1 42.8 15.4 Q43.6 19.8 43.6 27.9 C43.6 41.86667 43.6 59.325 43.6 69.8 C45.7 69.8 49.9 69.8 52 69.8 C52 59.825 52 39.875 52 29.9 Q52 18.6 50.35 12.05 Q48.7 5.5 44 2.1 Q39.3 -1.2 30 -1.2 Q20.7 -1.2 16 2.15 Q11.3 5.5 9.6 12 Q8 18.6 8 29.9 C8 43.2 8 59.825 8 69.8 C10.1 69.8 14.3 69.8 16.4 69.8 C16.4 59.325 16.4 38.375 16.4 27.9 z" />
<glyph unicode="V" horiz-adv-x="60" d="M3.6 69.8 C5.825 69.8 10.275 69.8 12.5 69.8 C16.85 54.475 25.55 23.825 29.9 8.5 C30.025 8.5 30.275 8.5 30.4 8.5 C34.75 23.825 43.45 54.475 47.8 69.8 C49.95 69.8 54.25 69.8 56.4 69.8 C51.225 52.35 40.875 17.45 35.7 0 C32.85 0 27.15 0 24.3 0 C19.125 17.45 8.775 52.35 3.6 69.8 z" />
<glyph unicode="W" horiz-adv-x="90" d="M2.5 69.8 C4.725 69.8 9.175 69.8 11.4 69.8 C13.275 61.4 17.025 44.6 18.9 36.2 C20.35 29.675 23.25 16.625 24.7 10.1 C24.75 10.1 24.85 10.1 24.9 10.1 Q30 18 33.5 23.5 Q37 29 41.1 33.7 C43.86667 33.66667 47.325 33.625 49.4 33.6 Q53 29 55.5 25.5 Q58 22 64.8 10.2 C64.9 10.2 65.025 10.2 65.1 10.2 C66.6 16.7 69.6 29.7 71.1 36.2 C73.075 44.6 77.025 61.4 79 69.8 C81.15 69.8 85.45 69.8 87.6 69.8 C83.125 52.35 74.175 17.45 69.7 0 C67.375 0 62.725 0 60.4 0 Q53 13 51 17 Q49 21 45 26 Q41 21 38.5 17 Q36 13 28.8 0 C25.7 0 21.825 0 19.5 0 C15.25 17.45 6.75 52.35 2.5 69.8 z" />
<glyph unicode="X" horiz-adv-x="60" d="M48 0 C45.9 3.525 41.7 10.575 39.6 14.1 C37.3 17.9 32.7 25.5 30.4 29.3 C30.3 29.3 30.1 29.3 30 29.3 C27.625 25.5 22.875 17.9 20.5 14.1 C18.325 10.575 13.975 3.525 11.8 0 C9.5 0 4.9 0 2.6 0 C8.3 8.9 19.7 26.7 25.4 35.6 C20.025 44.15 9.275 61.25 3.9 69.8 C6.275 69.8 11.025 69.8 13.4 69.8 C15.425 66.425 19.475 59.675 21.5 56.3 C23.675 52.775 28.025 45.725 30.2 42.2 C30.3 42.2 30.5 42.2 30.6 42.2 C32.75 45.725 37.05 52.775 39.2 56.3 C41.3 59.675 45.5 66.425 47.6 69.8 C49.9 69.8 54.5 69.8 56.8 69.8 C51.4 61.275 40.6 44.225 35.2 35.7 C40.775 26.775 51.925 8.925 57.5 0 C55.125 0 50.375 0 48 0 z" />
<glyph unicode="Y" horiz-adv-x="60" d="M25.8 27.4 C19.775 38 7.725 59.2 1.7 69.8 C4.1 69.8 8.9 69.8 11.3 69.8 C13.8 65.25 18.8 56.15 21.3 51.6 C23.425 47.625 27.675 39.675 29.8 35.7 C29.9 35.7 30.1 35.7 30.2 35.7 C34.875 44.225 44.225 61.275 48.9 69.8 C51.25 69.8 55.95 69.8 58.3 69.8 C52.275 59.2 40.225 38 34.2 27.4 C34.2 20.55 34.2 6.85 34.2 0 C32.1 0 27.9 0 25.8 0 C25.8 6.85 25.8 20.55 25.8 27.4 z" />
<glyph unicode="Z" horiz-adv-x="60" d="M4.8 0 C4.8 1.875 4.8 5.625 4.8 7.5 C14.675 21.25 34.425 48.75 44.3 62.5 C34.85 62.5 15.95 62.5 6.5 62.5 C6.5 64.325 6.5 67.975 6.5 69.8 C18.25 69.8 41.75 69.8 53.5 69.8 C53.5 67.925 53.5 64.175 53.5 62.3 C43.6 48.55 23.8 21.05 13.9 7.3 C24.225 7.3 44.875 7.3 55.2 7.3 C55.2 5.475 55.2 1.825 55.2 0 C42.6 0 17.4 0 4.8 0 z" />
<glyph unicode="[" horiz-adv-x="60" d="M22.5 76 C29.5 76 43.5 76 50.5 76 C50.5 74.45 50.5 71.35 50.5 69.8 C45.225 69.8 34.675 69.8 29.4 69.8 C29.4 50.45 29.4 11.75 29.4 -7.6 C34.675 -7.6 45.225 -7.6 50.5 -7.6 C50.5 -9.15 50.5 -12.25 50.5 -13.8 C43.5 -13.8 29.5 -13.8 22.5 -13.8 C22.5 8.65 22.5 53.55 22.5 76 z" />
<glyph unicode="\" horiz-adv-x="60" d="M9 76 C10.8 76 14.4 76 16.2 76 C24.9 53.55 42.3 8.65 51 -13.8 C49.2 -13.8 45.6 -13.8 43.8 -13.8 C35.1 8.65 17.7 53.55 9 76 z" />
<glyph unicode="]" horiz-adv-x="60" d="M37.5 -13.8 C30.5 -13.8 16.5 -13.8 9.5 -13.8 C9.5 -12.25 9.5 -9.15 9.5 -7.6 C14.775 -7.6 25.325 -7.6 30.6 -7.6 C30.6 11.75 30.6 50.45 30.6 69.8 C25.325 69.8 14.775 69.8 9.5 69.8 C9.5 71.35 9.5 74.45 9.5 76 C16.5 76 30.5 76 37.5 76 C37.5 53.55 37.5 8.65 37.5 -13.8 z" />
<glyph unicode="^" horiz-adv-x="60" d="M30 62.9 C29.9 62.9 29.7 62.9 29.6 62.9 C24.875 54.35 15.425 37.25 10.7 28.7 C9.15 29.475 6.05 31.025 4.5 31.8 C9.75 41.3 20.25 60.3 25.5 69.8 C27.75 69.8 32.25 69.8 34.5 69.8 C39.75 60.3 50.25 41.3 55.5 31.8 C53.85 31.025 50.55 29.475 48.9 28.7 C44.175 37.25 34.725 54.35 30 62.9 z" />
<glyph unicode="_" horiz-adv-x="60" d="M6 -9.5 C18 -9.5 42 -9.5 54 -9.5 C54 -11.35 54 -15.05 54 -16.9 C42 -16.9 18 -16.9 6 -16.9 C6 -15.05 6 -11.35 6 -9.5 z" />
<glyph unicode="`" horiz-adv-x="60" d="M26 77.9 C28.125 73.65 32.375 65.15 34.5 60.9 C33.2 60.3 30.6 59.1 29.3 58.5 C26.65 62.475 21.35 70.425 18.7 74.4 C20.525 75.275 24.175 77.025 26 77.9 z" />
<glyph unicode="a" horiz-adv-x="60" d="M40.3 8.4 C40.30751 8.4 40.32253 8.4 40.33004 8.4 Q36.73004 -1.2 24.3 -1.2 Q16.2 -1.2 11.4 3 Q6.6 7.2 6.6 14.5 Q6.6 29.5 28.8 29.5 C32.46667 29.5 37.05 29.5 39.8 29.5 C39.8 30.775 39.8 33.325 39.8 34.6 Q39.8 40.2 36.6 43.1 Q33.4 46 27.5 46 Q19.07 46.34 12.92 42.78 C12.38 45.15333 11.705 48.12 11.3 49.9 Q14.99 51.62 17.795 52.21 Q20.6 52.8 28 52.8 Q37.1 52.8 42.45 48.15 Q47.8 43.5 47.8 35.4 Q47.82513 26.20977 47.55 17.88211 Q47.27487 9.55445 47.87539 7.82932 Q48.78272 6.9911 50.78062 6.9911 Q52.77853 6.9911 55 7 C55 4.66667 55 1.75 55 0 C53.625 0 50.875 0 49.5 0 Q42.97749 0.13037 41.43194 1.71362 Q39.88639 3.29686 40.3 8.4 zM35.8 8.2 Q39.8 11 39.8 15 C39.8 17.83333 39.8 21.375 39.8 23.5 C37.05 23.5 31.55 23.5 28.8 23.5 Q15 23.5 15 15.7 C15 15 15 14.125 15 13.6 Q15 9.7 17.85 7.6 Q20.7 5.5 25.7 5.5 Q31.8 5.5 35.8 8.2 z" />
<glyph unicode="b" horiz-adv-x="60" d="M17.5 74 C17.5 66.3 17.5 50.9 17.5 43.2 C17.6 43.2 17.8 43.2 17.9 43.2 Q22.9 52.8 33.8 52.8 Q43.3 52.8 48.65 45.65 Q54 38.5 54 25.8 Q54 13.1 48.65 5.95 Q43.3 -1.2 33.8 -1.2 Q22.9 -1.2 17.9 8.4 C17.76667 8.4 17.6 8.4 17.5 8.4 C17.5 6.3 17.5 2.1 17.5 0 C15.5 0 11.5 0 9.5 0 C9.5 18.5 9.5 55.5 9.5 74 C11.5 74 15.5 74 17.5 74 zM41.5 10.1 Q45.4 14.3 45.4 21.4 C45.4 24.33333 45.4 28 45.4 30.2 Q45.4 37.3 41.5 41.5 Q37.6 45.7 30.7 45.7 Q25.1 45.7 21.3 42.9 Q17.5 40.1 17.5 35.1 C17.5 28.9 17.5 21.15 17.5 16.5 Q17.5 11.5 21.3 8.7 Q25.1 5.9 30.7 5.9 Q37.6 5.9 41.5 10.1 z" />
<glyph unicode="c" horiz-adv-x="60" d="M14.6 6.1 Q8.4 13.4 8.4 25.8 Q8.4 38.2 14.6 45.5 Q20.8 52.8 31.7 52.8 Q38.9 52.8 43.7 49.6 Q48.5 46.4 50.8 40.9 C48.66667 39.76667 46 38.35 44.4 37.5 Q43 41.5 39.7 43.7 Q36.4 45.9 31.7 45.9 Q24.8 45.9 20.9 41.55 Q17 37.2 17 30.2 C17 27.26667 17 23.6 17 21.4 Q17 14.4 20.9 10.05 Q24.8 5.7 31.9 5.7 Q41.7 5.7 45.9 14.7 C47.8 13.4 50.175 11.775 51.6 10.8 Q49.2 5.3 44.2 2.05 Q39.2 -1.2 31.8 -1.2 Q20.8 -1.2 14.6 6.1 z" />
<glyph unicode="d" horiz-adv-x="60" d="M42.1 8.4 Q37.1 -1.2 26.2 -1.2 Q16.7 -1.2 11.35 5.95 Q6 13.1 6 25.8 Q6 38.5 11.35 45.65 Q16.7 52.8 26.2 52.8 Q37.1 52.8 42.1 43.2 C42.23333 43.2 42.4 43.2 42.5 43.2 C42.5 50.9 42.5 66.3 42.5 74 C44.5 74 48.5 74 50.5 74 C50.5 55.5 50.5 18.5 50.5 0 C48.5 0 44.5 0 42.5 0 C42.5 2.1 42.5 6.3 42.5 8.4 C42.4 8.4 42.2 8.4 42.1 8.4 zM38.7 8.7 Q42.5 11.5 42.5 16.5 C42.5 22.7 42.5 30.45 42.5 35.1 Q42.5 40.1 38.7 42.9 Q34.9 45.7 29.3 45.7 Q22.4 45.7 18.5 41.5 Q14.6 37.3 14.6 30.2 C14.6 27.26667 14.6 23.6 14.6 21.4 Q14.6 14.3 18.5 10.1 Q22.4 5.9 29.3 5.9 Q34.9 5.9 38.7 8.7 z" />
<glyph unicode="e" horiz-adv-x="60" d="M18.1 2.1 Q12.6 5.4 9.65 11.5 Q6.7 17.6 6.7 25.7 Q6.7 33.8 9.7 39.95 Q12.7 46.1 18 49.4 Q23.4 52.8 30.4 52.8 Q37.2 52.8 42.4 49.55 Q47.6 46.3 50.4 40.6 Q53.3 34.9 53.3 27.6 C53.3 26.33333 53.3 24.75 53.3 23.8 C43.75 23.8 24.65 23.8 15.1 23.8 C15.1 23.2 15.1 22 15.1 21.4 Q15.1 14.5 19.4 10.1 Q23.7 5.7 30.9 5.7 Q36 5.7 39.8 8.05 Q43.6 10.4 45.7 14.7 C47.66667 13.36667 50.125 11.7 51.6 10.7 Q49.2 5.3 43.75 2.05 Q38.3 -1.2 30.9 -1.2 Q23.6 -1.2 18.1 2.1 zM22.6 44.1 Q19.1 42.1 17.1 38.5 Q15.1 34.9 15.1 30.5 C15.1 30.26667 15.1 29.975 15.1 29.8 C22.5 29.8 37.3 29.8 44.7 29.8 C44.7 30.075 44.7 30.625 44.7 30.9 Q44.7 37.7 40.75 41.95 Q36.8 46.2 30.4 46.2 Q26.1 46.2 22.6 44.1 z" />
<glyph unicode="f" horiz-adv-x="60" d="M33.6 58.4 Q33.6 58.4 33.5 56.6 C33.56667 54.93333 33.65 52.85 33.7 51.6 C38.875 51.6 49.225 51.6 54.4 51.6 C54.4 49.9 54.4 46.5 54.4 44.8 C49.225 44.8 38.875 44.8 33.7 44.8 C33.7 35.3 33.7 16.3 33.7 6.8 C38.3 6.8 47.5 6.8 52.1 6.8 C52.1 5.1 52.1 1.7 52.1 0 C41.15 0 19.25 0 8.3 0 C8.3 1.7 8.3 5.1 8.3 6.8 C12.65 6.8 21.35 6.8 25.7 6.8 C25.7 16.3 25.7 35.3 25.7 44.8 C21.1 44.8 11.9 44.8 7.3 44.8 C7.3 46.5 7.3 49.9 7.3 51.6 C11.9 51.6 21.1 51.6 25.7 51.6 C25.675 52.875 25.625 55.425 25.6 56.7 Q25.5 62.4 30.8 68.4 Q35.7 74 40.8 74 C45.33333 74 51 74 54.4 74 C54.4 72.3 54.4 68.9 54.4 67.2 C52.975 67.2 50.125 67.2 48.7 67.2 C47.975 67.2 46.525 67.2 45.8 67.2 Q35.1 66.4 33.6 58.4 z" />
<glyph unicode="g" horiz-adv-x="60" d="M44.5 -15.1 Q38.5 -21.2 27.8 -21.2 Q16.2 -21.2 9.3 -14.1 C10.86667 -12.26667 12.825 -9.975 14 -8.6 Q19.4 -14.2 27.9 -14.2 Q42.5 -14.2 42.5 1.2 C42.5 4.06667 42.5 7.65 42.5 9.8 C42.4 9.8 42.2 9.8 42.1 9.8 Q37.1 0.2 26.2 0.2 Q16.8 0.2 11.4 7.25 Q6 14.3 6 26.5 Q6 38.7 11.4 45.75 Q16.8 52.8 26.2 52.8 Q37.1 52.8 42.1 43.2 C42.23333 43.2 42.4 43.2 42.5 43.2 C42.5 45.3 42.5 49.5 42.5 51.6 C44.5 51.6 48.5 51.6 50.5 51.6 C50.5 39.125 50.5 14.175 50.5 1.7 Q50.5 -9 44.5 -15.1 zM38.7 10.1 Q42.5 12.9 42.5 17.9 C42.5 23.63333 42.5 30.8 42.5 35.1 Q42.5 40.1 38.7 42.9 Q34.9 45.7 29.3 45.7 Q22.4 45.7 18.5 41.5 Q14.6 37.3 14.6 30.2 C14.6 27.73333 14.6 24.65 14.6 22.8 Q14.6 15.7 18.5 11.5 Q22.4 7.3 29.3 7.3 Q34.9 7.3 38.7 10.1 z" />
<glyph unicode="h" horiz-adv-x="60" d="M17.8 74 C17.8 66.3 17.8 50.9 17.8 43.2 C17.9 43.2 18.1 43.2 18.2 43.2 Q22.3 52.8 32.9 52.8 Q41.1 52.8 45.95 47.6 Q50.8 42.4 50.8 33.1 C50.8 22.06667 50.8 8.275 50.8 0 C48.8 0 44.8 0 42.8 0 C42.8 7.925 42.8 23.775 42.8 31.7 Q42.8 38.7 39.7 42.2 Q36.6 45.7 30.6 45.7 Q25.3 45.7 21.55 43.15 Q17.8 40.6 17.8 35.8 C17.8 23.86667 17.8 8.95 17.8 0 C15.8 0 11.8 0 9.8 0 C9.8 18.5 9.8 55.5 9.8 74 C11.8 74 15.8 74 17.8 74 z" />
<glyph unicode="i" horiz-adv-x="60" d="M27.19372 64.4 Q25.69372 65.8 25.69372 68.1 C25.69372 68.63333 25.69372 69.3 25.69372 69.7 Q25.69372 72 27.19372 73.4 Q28.69372 74.8 31.99372 74.8 Q35.29372 74.8 36.79372 73.4 Q38.29372 72 38.29372 69.7 C38.29372 69.16667 38.29372 68.5 38.29372 68.1 Q38.29372 65.8 36.79372 64.4 Q35.29372 63 31.99372 63 Q28.69372 63 27.19372 64.4 zM29.2 6.8 Q29.10524 15.81204 29.17299 27.47251 Q29.24073 39.13298 28.1445 42.7644 Q27.18592 44.91688 25.83406 44.82986 Q24.4822 44.74283 20 44.78 C20 47.04667 20 49.88 20 51.58 Q26.45 51.68 30.98 51.59 Q35.51 51.5 36 50 Q36.83 47.3 36.92574 32.34765 Q37.02147 17.39529 37.2 6.8 C43 6.8 50.25 6.8 54.6 6.8 C54.6 5.1 54.6 1.7 54.6 0 C43.6 0 21.6 0 10.6 0 C10.6 1.7 10.6 5.1 10.6 6.8 C15.25 6.8 24.55 6.8 29.2 6.8 z" />
<glyph unicode="j" horiz-adv-x="60" d="M35.2 4 Q35.19405 13.96104 35.22858 27.84478 Q35.26312 41.72852 34.64741 43.34946 Q33.46721 44.90589 31.84861 44.93295 Q30.23 44.96 24.06 44.84 C24.06 47.10667 24.06 49.94 24.06 51.64 Q32.63 51.68 36.67495 51.643 Q40.71991 51.606 41.72371 49.79278 Q43 49 43.03421 27.75056 Q43.06841 6.50112 43.2 -8.2 Q43.2 -11.8 35 -16 Q26 -20.6 15.8 -16.1 C13.23333 -14.96667 10.025 -13.55 8.1 -12.7 C8.975 -10.875 10.725 -7.225 11.6 -5.4 C13.925 -6.725 18.575 -9.375 20.9 -10.7 Q26.9 -12.8 31.5 -9.7 Q31.5 -9.7 34.1 -8 Q35.40127 -6.00116 35.32344 -3.89666 Q35.24562 -1.79216 35.2 4 zM34.4 64.4 Q32.9 65.8 32.9 68.1 C32.9 68.63333 32.9 69.3 32.9 69.7 Q32.9 72 34.4 73.4 Q35.9 74.8 39.2 74.8 Q42.5 74.8 44 73.4 Q45.5 72 45.5 69.7 C45.5 69.16667 45.5 68.5 45.5 68.1 Q45.5 65.8 44 64.4 Q42.5 63 39.2 63 Q35.9 63 34.4 64.4 z" />
<glyph unicode="k" horiz-adv-x="60" d="M18.5 74 C18.5 62.325 18.5 38.975 18.5 27.3 C18.6 27.3 18.8 27.3 18.9 27.3 C21.425 28.65 26.475 31.35 29 32.7 Q31.2 34.4 37.4 41.7 C39.96667 45 43.175 49.125 45.1 51.6 C47.55 51.6 52.45 51.6 54.9 51.6 C52.95 49.075 49.05 44.025 47.1 41.5 C45.675 39.65 42.825 35.95 41.4 34.1 C39.4 32.2 35.4 28.4 33.4 26.5 C39.4 19.875 51.4 6.625 57.4 0 C54.925 0 49.975 0 47.5 0 C42.275 5.725 31.825 17.175 26.6 22.9 C24.575 21.85 20.525 19.75 18.5 18.7 C18.5 14.025 18.5 4.675 18.5 0 C16.5 0 12.5 0 10.5 0 C10.5 18.5 10.5 55.5 10.5 74 C12.5 74 16.5 74 18.5 74 z" />
<glyph unicode="l" horiz-adv-x="60" d="M26 6.8 Q25.38743 20.80701 25.43669 40.94039 Q25.48596 61.07378 23.67183 63.43846 Q21.43361 66.35127 17.77726 66.78244 Q14.12091 67.2136 8 67.2 C8 69.46667 8 72.3 8 74 Q14 74 20.53498 73.94205 Q27.06996 73.88409 29.52189 71.3703 Q32.56379 68.02401 33.28189 46.012 Q34 24 34 6.8 C40 6.8 47.5 6.8 52 6.8 C52 5.1 52 1.7 52 0 C41 0 19 0 8 0 C8 1.7 8 5.1 8 6.8 C12.5 6.8 21.5 6.8 26 6.8 z" />
<glyph unicode="m" horiz-adv-x="90" d="M9.6 51.6 C11.6 51.6 15.6 51.6 17.6 51.6 C17.6 49.5 17.6 45.3 17.6 43.2 C17.7 43.2 17.9 43.2 18 43.2 Q20 47.7 23.2 50.25 Q26.4 52.8 31.9 52.8 Q37.3 52.8 41.5 50.2 Q45.7 47.6 47.7 42.3 C47.76667 42.3 47.85 42.3 47.9 42.3 Q49.5 46.9 53.45 49.85 Q57.4 52.8 63.6 52.8 Q71.5 52.8 75.95 47.6 Q80.4 42.4 80.4 33.1 C80.4 22.06667 80.4 8.275 80.4 0 C78.4 0 74.4 0 72.4 0 C72.4 7.925 72.4 23.775 72.4 31.7 Q72.4 38.6 69.65 42.1 Q66.9 45.6 61.1 45.6 Q56 45.6 52.5 43.05 Q49 40.5 49 35.8 C49 23.86667 49 8.95 49 0 C47 0 43 0 41 0 C41 7.925 41 23.775 41 31.7 Q41 38.7 38.3 42.15 Q35.6 45.6 29.9 45.6 Q24.8 45.6 21.2 43.05 Q17.6 40.5 17.6 35.8 C17.6 23.86667 17.6 8.95 17.6 0 C15.6 0 11.6 0 9.6 0 C9.6 12.9 9.6 38.7 9.6 51.6 z" />
<glyph unicode="n" horiz-adv-x="60" d="M9.8 51.6 C11.8 51.6 15.8 51.6 17.8 51.6 C17.8 49.5 17.8 45.3 17.8 43.2 C17.9 43.2 18.1 43.2 18.2 43.2 Q22.3 52.8 32.9 52.8 Q41.1 52.8 45.95 47.6 Q50.8 42.4 50.8 33.1 C50.8 22.06667 50.8 8.275 50.8 0 C48.8 0 44.8 0 42.8 0 C42.8 7.925 42.8 23.775 42.8 31.7 Q42.8 38.7 39.7 42.2 Q36.6 45.7 30.6 45.7 Q25.3 45.7 21.55 43.15 Q17.8 40.6 17.8 35.8 C17.8 23.86667 17.8 8.95 17.8 0 C15.8 0 11.8 0 9.8 0 C9.8 12.9 9.8 38.7 9.8 51.6 z" />
<glyph unicode="o" horiz-adv-x="60" d="M17.5 2.1 Q12.3 5.4 9.45 11.5 Q6.6 17.6 6.6 25.8 Q6.6 34 9.45 40.1 Q12.3 46.2 17.5 49.5 Q22.8 52.8 30 52.8 Q37.2 52.8 42.45 49.5 Q47.7 46.2 50.5 40.1 Q53.4 34 53.4 25.8 Q53.4 17.6 50.55 11.5 Q47.7 5.4 42.4 2.1 Q37.2 -1.2 30 -1.2 Q22.8 -1.2 17.5 2.1 zM40.9 9.8 Q44.9 14 44.9 22.1 C44.9 24.56667 44.9 27.65 44.9 29.5 Q44.9 37.6 40.9 41.75 Q36.9 45.9 30 45.9 Q23.1 45.9 19.1 41.75 Q15.1 37.6 15.1 29.5 C15.1 27.03333 15.1 23.95 15.1 22.1 Q15.1 14 19.1 9.85 Q23.1 5.7 30 5.7 Q36.9 5.7 40.9 9.8 z" />
<glyph unicode="p" horiz-adv-x="60" d="M17.5 51.6 C17.5 49.5 17.5 45.3 17.5 43.2 C17.6 43.2 17.8 43.2 17.9 43.2 Q22.9 52.8 33.8 52.8 Q43.3 52.8 48.65 45.65 Q54 38.5 54 25.8 Q54 13.1 48.65 5.95 Q43.3 -1.2 33.8 -1.2 Q22.9 -1.2 17.9 8.4 C17.76667 8.4 17.6 8.4 17.5 8.4 C17.5 1.3 17.5 -12.9 17.5 -20 C15.5 -20 11.5 -20 9.5 -20 C9.5 -2.1 9.5 33.7 9.5 51.6 C11.5 51.6 15.5 51.6 17.5 51.6 zM41.5 10.1 Q45.4 14.3 45.4 21.4 C45.4 24.33333 45.4 28 45.4 30.2 Q45.4 37.3 41.5 41.5 Q37.6 45.7 30.7 45.7 Q25.1 45.7 21.3 42.9 Q17.5 40.1 17.5 35.1 C17.5 28.9 17.5 21.15 17.5 16.5 Q17.5 11.5 21.3 8.7 Q25.1 5.9 30.7 5.9 Q37.6 5.9 41.5 10.1 z" />
<glyph unicode="q" horiz-adv-x="60" d="M42.1 8.4 Q37.1 -1.2 26.2 -1.2 Q16.7 -1.2 11.35 5.95 Q6 13.1 6 25.8 Q6 38.5 11.35 45.65 Q16.7 52.8 26.2 52.8 Q37.1 52.8 42.1 43.2 C42.23333 43.2 42.4 43.2 42.5 43.2 C42.5 45.3 42.5 49.5 42.5 51.6 C44.5 51.6 48.5 51.6 50.5 51.6 C50.5 33.7 50.5 -2.1 50.5 -20 C48.5 -20 44.5 -20 42.5 -20 C42.5 -12.9 42.5 1.3 42.5 8.4 C42.4 8.4 42.2 8.4 42.1 8.4 zM38.7 8.7 Q42.5 11.5 42.5 16.5 C42.5 22.7 42.5 30.45 42.5 35.1 Q42.5 40.1 38.7 42.9 Q34.9 45.7 29.3 45.7 Q22.4 45.7 18.5 41.5 Q14.6 37.3 14.6 30.2 C14.6 27.26667 14.6 23.6 14.6 21.4 Q14.6 14.3 18.5 10.1 Q22.4 5.9 29.3 5.9 Q34.9 5.9 38.7 8.7 z" />
<glyph unicode="r" horiz-adv-x="60" d="M22.8 6.8 Q22.72461 16.13037 22.78612 29.76806 Q22.84764 43.40576 22.49843 44.12147 Q21.86754 45.0644 19.89877 45.0422 Q17.93 45.02 14.12 45.01904 C14.08 47.20571 14.03 49.93904 14 51.57904 Q19.77607 51.54262 24.19616 51.59524 Q28.61626 51.64786 29.93376 50.86177 Q30.72107 49.96401 30.9 48.76455 Q31.07893 47.5651 31 45 Q32 48 34.375 49.8 Q36.75 51.6 46.8 51.6 C49.83333 51.6 53.625 51.6 55.9 51.6 C55.9 49.6 55.9 45.6 55.9 43.6 C53.225 43.6 47.875 43.6 45.2 43.6 Q38.6 43.6 34.7 41.25 Q30.8 38.9 30.8 35.1 C30.8 25.66667 30.8 13.875 30.8 6.8 C35.8 6.8 45.8 6.8 50.8 6.8 C50.8 5.1 50.8 1.7 50.8 0 C40.025 0 18.475 0 7.7 0 C7.7 1.7 7.7 5.1 7.7 6.8 C11.475 6.8 19.025 6.8 22.8 6.8 z" />
<glyph unicode="s" horiz-adv-x="60" d="M6.7 8.9 C8.05 10.075 10.75 12.425 12.1 13.6 Q15.9 9.5 20.4 7.5 Q24.9 5.5 30.8 5.5 Q37.1 5.5 40.8 7.75 Q44.5 10 44.5 14.4 Q44.5 18.1 42.1 19.7 Q39.7 21.3 35.4 21.9 C32.7 22.3 29.325 22.8 27.3 23.1 Q22.4 23.8 18.7 25.05 Q15 26.3 12.3 29.2 Q9.6 32.2 9.6 37.4 Q9.6 44.9 15.3 48.85 Q21 52.8 30.4 52.8 Q43.6 52.8 51.4 44.5 C49.66667 42.86667 47.5 40.825 46.2 39.6 Q40.8 46.1 30.1 46.1 Q24 46.1 20.75 44 Q17.5 41.9 17.5 37.9 Q17.5 34.2 19.95 32.6 Q22.4 31 26.6 30.4 C29.3 30 32.675 29.5 34.7 29.2 Q39.7 28.5 43.4 27.25 Q47.1 26 49.7 23 Q52.4 20.1 52.4 14.9 Q52.4 7.3 46.5 3.05 Q40.6 -1.2 30.6 -1.2 Q15.6 -1.2 6.7 8.9 z" />
<glyph unicode="t" horiz-adv-x="60" d="M26.7 5.9 Q21.4 11.2 21.4 15.3 C21.3 25.13333 21.175 37.425 21.1 44.8 C16.8 44.8 8.2 44.8 3.9 44.8 C3.9 46.5 3.9 49.9 3.9 51.6 C7.1 51.6 13.5 51.6 16.7 51.6 Q19.3 51.6 20.35 52.65 Q21.4 53.7 21.4 56.3 C21.4 60.8 21.4 66.425 21.4 69.8 C23.325 69.8 27.175 69.8 29.1 69.8 C29.1 65.25 29.1 56.15 29.1 51.6 C34.975 51.6 46.725 51.6 52.6 51.6 C52.6 49.9 52.6 46.5 52.6 44.8 C46.725 44.8 34.975 44.8 29.1 44.8 C29.1 38.575 29.1 26.125 29.1 19.9 Q29 15.1 32.5 11.2 Q36.8 6.6 45 6.8 C47.53333 6.8 50.7 6.8 52.6 6.8 C52.6 5.1 52.6 1.7 52.6 0 C49.475 0 43.225 0 40.1 0 Q32.5 0 26.7 5.9 z" />
<glyph unicode="u" horiz-adv-x="60" d="M41.8 8.4 Q37.7 -1.2 27.1 -1.2 Q18.9 -1.2 14.05 4 Q9.2 9.2 9.2 18.5 C9.2 29.53333 9.2 43.325 9.2 51.6 C11.2 51.6 15.2 51.6 17.2 51.6 C17.2 43.675 17.2 27.825 17.2 19.9 Q17.2 12.9 20.3 9.4 Q23.4 5.9 29.4 5.9 Q34.7 5.9 38.45 8.45 Q42.2 11 42.2 15.8 C42.2 27.73333 42.2 42.65 42.2 51.6 C44.2 51.6 48.2 51.6 50.2 51.6 C50.2 38.7 50.2 12.9 50.2 0 C48.2 0 44.2 0 42.2 0 C42.2 2.1 42.2 6.3 42.2 8.4 C42.1 8.4 41.9 8.4 41.8 8.4 z" />
<glyph unicode="v" horiz-adv-x="60" d="M6.4 51.6 C8.425 51.6 12.475 51.6 14.5 51.6 C18.35 40.375 26.05 17.925 29.9 6.7 C30 6.7 30.2 6.7 30.3 6.7 C34.15 17.925 41.85 40.375 45.7 51.6 C47.675 51.6 51.625 51.6 53.6 51.6 C48.975 38.7 39.725 12.9 35.1 0 C32.55 0 27.45 0 24.9 0 C20.275 12.9 11.025 38.7 6.4 51.6 z" />
<glyph unicode="w" horiz-adv-x="90.2" d="M22.5 0 C18.8 12.9 11.4 38.7 7.7 51.6 C9.675 51.6 13.625 51.6 15.6 51.6 C15.6 51.6 15.6 51.6 15.6 51.6 C18.6 40.375 24.6 17.925 27.6 6.7 C27.625 6.7 27.675 6.7 27.7 6.7 Q30 14 33.5 21 Q37 28 40.5 34.9 C43.7 34.9 47.7 34.9 50.1 34.9 C50.125 34.9 50.175 34.9 50.2 34.9 Q54 28 57 21 Q60 14 62.9 6.7 C62.93333 6.7 62.975 6.7 63 6.7 C65.975 17.925 71.925 40.375 74.9 51.6 C74.925 51.6 74.975 51.6 75 51.6 C76.875 51.6 80.625 51.6 82.5 51.6 C78.825 38.7 71.475 12.9 67.8 0 C67.8 0 67.8 0 67.8 0 C65.3 0 60.3 0 57.8 0 C57.8 0 57.8 0 57.8 0 Q55 7 51.5 14.5 Q48 22 45 27.8 Q42 22 38.5 14.5 Q35 7 32.3 0 C32.3 0 32.3 0 32.3 0 C29.875 0 25.025 0 22.6 0 C22.575 0 22.525 0 22.5 0 z" />
<glyph unicode="x" horiz-adv-x="60" d="M25.3 26.2 C20.625 32.55 11.275 45.25 6.6 51.6 C9 51.6 13.8 51.6 16.2 51.6 C18.15 48.875 22.05 43.425 24 40.7 C25.55 38.55 28.65 34.25 30.2 32.1 C30.3 32.1 30.5 32.1 30.6 32.1 C32.1 34.25 35.1 38.55 36.6 40.7 C38.525 43.425 42.375 48.875 44.3 51.6 C46.6 51.6 51.2 51.6 53.5 51.6 C48.775 45.275 39.325 32.625 34.6 26.3 C39.45 19.725 49.15 6.575 54 0 C51.6 0 46.8 0 44.4 0 C40.75 5.075 33.45 15.225 29.8 20.3 C29.7 20.3 29.5 20.3 29.4 20.3 C25.875 15.225 18.825 5.075 15.3 0 C13 0 8.4 0 6.1 0 C10.9 6.55 20.5 19.65 25.3 26.2 z" />
<glyph unicode="y" horiz-adv-x="60" d="M54.7 51.6 C49.525 38.95 39.175 13.65 34 1 Q28.7 -12 25.4 -14.8 Q19.3 -20 10.8 -20 C9.96667 -20 8.925 -20 8.3 -20 C8.3 -18.3 8.3 -14.9 8.3 -13.2 C8.65 -13.2 9.35 -13.2 9.7 -13.2 Q14.2 -13.2 19.4 -10.6 Q23.9 -8.4 25.3 -2.2 C25.56667 -1.13333 25.9 0.2 26.1 1 C20.9 13.65 10.5 38.95 5.3 51.6 C7.35 51.6 11.45 51.6 13.5 51.6 C15.675 46.2 20.025 35.4 22.2 30 C24.125 25.1 27.975 15.3 29.9 10.4 C30 10.4 30.2 10.4 30.3 10.4 C32.225 15.3 36.075 25.1 38 30 C40.175 35.4 44.525 46.2 46.7 51.6 C48.7 51.6 52.7 51.6 54.7 51.6 z" />
<glyph unicode="z" horiz-adv-x="60" d="M8.5 7.7 C16.825 16.975 33.475 35.525 41.8 44.8 C33.75 44.8 17.65 44.8 9.6 44.8 C9.6 46.5 9.6 49.9 9.6 51.6 C19.825 51.6 40.275 51.6 50.5 51.6 C50.5 49.675 50.5 45.825 50.5 43.9 C42.175 34.625 25.525 16.075 17.2 6.8 C25.775 6.8 42.925 6.8 51.5 6.8 C51.5 5.1 51.5 1.7 51.5 0 C40.75 0 19.25 0 8.5 0 C8.5 1.925 8.5 5.775 8.5 7.7 z" />
<glyph unicode="{" horiz-adv-x="60" d="M25.7 -11.5 Q23.5 -9.2 23.5 -5.6 C23.5 -3.5 23.5 -0.875 23.5 0.7 Q23.5 4 24.3 6.45 Q25.1 8.9 26 10.2 Q27 11.6 29.1 14.2 Q30.8 16.2 31.45 17.65 Q32.1 19.1 32.1 20.7 Q32.1 28 18.3 28 C15.7 28 12.45 28 10.5 28 C10.5 29.55 10.5 32.65 10.5 34.2 C12.45 34.2 16.35 34.2 18.3 34.2 Q32.1 34.2 32.1 41.5 Q32.1 43.1 31.45 44.55 Q30.8 46 29.1 48 Q28.8 48.4 27.1 50.45 Q25.4 52.5 24.4 55.3 Q23.5 58.2 23.5 61.5 C23.5 63.6 23.5 66.225 23.5 67.8 Q23.5 71.4 25.7 73.7 Q27.9 76 31.9 76 C37.76667 76 45.1 76 49.5 76 C49.5 74.45 49.5 71.35 49.5 69.8 C44.725 69.8 35.175 69.8 30.4 69.8 C30.4 67.875 30.4 64.025 30.4 62.1 Q30.4 58.4 31.35 56.35 Q32.3 54.3 34.4 51.5 Q36.8 48.3 37.95 46.25 Q39.1 44.2 39.1 41.4 Q39.1 37.3 36.15 34.65 Q33.2 32 28.1 31.3 C28.1 31.16667 28.1 31 28.1 30.9 Q33.2 30.2 36.15 27.55 Q39.1 24.9 39.1 20.8 Q39.1 18 37.95 15.95 Q36.8 13.9 34.4 10.7 Q32.3 7.9 31.35 5.85 Q30.4 3.8 30.4 0.1 C30.4 -2.46667 30.4 -5.675 30.4 -7.6 C35.175 -7.6 44.725 -7.6 49.5 -7.6 C49.5 -9.15 49.5 -12.25 49.5 -13.8 C45.1 -13.8 36.3 -13.8 31.9 -13.8 Q27.9 -13.8 25.7 -11.5 z" />
<glyph unicode="|" horiz-adv-x="60" d="M26.5 76 C28.25 76 31.75 76 33.5 76 C33.5 53.55 33.5 8.65 33.5 -13.8 C31.75 -13.8 28.25 -13.8 26.5 -13.8 C26.5 8.65 26.5 53.55 26.5 76 z" />
<glyph unicode="}" horiz-adv-x="60" d="M34.3 73.7 Q36.5 71.4 36.5 67.8 C36.5 65.7 36.5 63.075 36.5 61.5 Q36.5 58.2 35.7 55.75 Q34.9 53.3 33.9 51.9 Q33 50.6 30.9 48 Q29.2 46 28.55 44.55 Q27.9 43.1 27.9 41.5 Q27.9 34.2 41.7 34.2 C44.3 34.2 47.55 34.2 49.5 34.2 C49.5 32.65 49.5 29.55 49.5 28 C47.55 28 43.65 28 41.7 28 Q27.9 28 27.9 20.7 Q27.9 19.1 28.55 17.65 Q29.2 16.2 30.9 14.2 Q31.2 13.8 32.9 11.75 Q34.6 9.7 35.5 6.8 Q36.5 4 36.5 0.7 C36.5 -1.4 36.5 -4.025 36.5 -5.6 Q36.5 -9.2 34.3 -11.5 Q32.1 -13.8 28.1 -13.8 C22.23333 -13.8 14.9 -13.8 10.5 -13.8 C10.5 -12.25 10.5 -9.15 10.5 -7.6 C15.275 -7.6 24.825 -7.6 29.6 -7.6 C29.6 -5.675 29.6 -1.825 29.6 0.1 Q29.6 3.8 28.65 5.85 Q27.7 7.9 25.6 10.7 Q23.2 13.9 22.05 15.95 Q20.9 18 20.9 20.8 Q20.9 24.9 23.85 27.55 Q26.8 30.2 31.9 30.9 C31.9 31.03333 31.9 31.2 31.9 31.3 Q26.8 32 23.85 34.65 Q20.9 37.3 20.9 41.4 Q20.9 44.2 22.05 46.25 Q23.2 48.3 25.6 51.5 Q27.7 54.3 28.65 56.35 Q29.6 58.4 29.6 62.1 C29.6 64.66667 29.6 67.875 29.6 69.8 C24.825 69.8 15.275 69.8 10.5 69.8 C10.5 71.35 10.5 74.45 10.5 76 C14.9 76 23.7 76 28.1 76 Q32.1 76 34.3 73.7 z" />
<glyph unicode="~" horiz-adv-x="60" d="M35.9 24.4 Q33.2 25.3 29 27.3 Q25.4 29 22.8 29.85 Q20.2 30.7 17.4 30.7 Q15 30.7 13.2 29.95 Q11.4 29.2 9 27.5 C7.86667 28.96667 6.45 30.8 5.6 31.9 Q8 34.6 10.8 36 Q13.6 37.4 17.9 37.4 Q21.3 37.4 24.05 36.55 Q26.8 35.7 31 33.7 Q34.6 32 37.2 31.15 Q39.8 30.3 42.6 30.3 Q45 30.3 46.8 31.05 Q48.6 31.8 51 33.5 C52.13333 32.03333 53.55 30.2 54.4 29.1 Q52 26.4 49.2 25 Q46.4 23.6 42.1 23.6 Q38.7 23.6 35.9 24.4 z" />
<glyph unicode="" horiz-adv-x="60" d="" />
<glyph unicode="" horiz-adv-x="60" d="M24.4 40.3 Q22.6 42 22.6 44.7 C22.6 45.3 22.6 46.05 22.6 46.5 Q22.6 49.2 24.4 50.85 Q26.2 52.5 30 52.5 Q33.8 52.5 35.6 50.85 Q37.4 49.2 37.4 46.5 C37.4 45.9 37.4 45.15 37.4 44.7 Q37.4 42 35.6 40.35 Q33.8 38.7 30 38.7 Q26.2 38.7 24.4 40.3 zM25.6 2.1 C26.3 8.65 27.7 21.75 28.4 28.3 C29.2 28.3 30.8 28.3 31.6 28.3 C32.3 21.75 33.7 8.65 34.4 2.1 C34.4 -2.975 34.4 -13.125 34.4 -18.2 C32.2 -18.2 27.8 -18.2 25.6 -18.2 C25.6 -13.125 25.6 -2.975 25.6 2.1 z" />
<glyph unicode="" horiz-adv-x="60" d="M27.9 -0.9 Q18.7 0.4 13.55 7.5 Q8.4 14.6 8.4 25.8 Q8.4 37 13.55 44.1 Q18.7 51.2 27.9 52.5 C27.9 56 27.9 60.375 27.9 63 C29.45 63 32.55 63 34.1 63 C34.1 60.425 34.1 55.275 34.1 52.7 Q40.3 52.2 44.5 49.05 Q48.7 45.9 50.8 40.9 C48.66667 39.76667 46 38.35 44.4 37.5 Q43.1 41 40.45 43.15 Q37.8 45.3 34 45.8 C34 32.46667 34 15.8 34 5.8 Q42.2 6.7 45.9 14.7 C47.8 13.4 50.175 11.775 51.6 10.8 Q49.4 5.7 45 2.55 Q40.6 -0.6 34.1 -1.1 C34.1 -4.53333 34.1 -8.825 34.1 -11.4 C32.55 -11.4 29.45 -11.4 27.9 -11.4 C27.9 -8.775 27.9 -3.525 27.9 -0.9 zM19.8 11.3 Q22.7 7.2 28 6.1 C28 19.23333 28 35.65 28 45.5 Q22.8 44.4 19.9 40.3 Q17 36.2 17 30.2 C17 27.26667 17 23.6 17 21.4 Q17 15.4 19.8 11.3 z" />
<glyph unicode="" horiz-adv-x="60" d="M7.5 10.5 Q15.4 13.7 15.4 23.7 Q15.4 25.9 14.9 28.6 C11.66667 28.6 7.625 28.6 5.2 28.6 C5.2 30.325 5.2 33.775 5.2 35.5 C7.15 35.5 11.05 35.5 13 35.5 Q12.8 36.2 11.8 39.1 Q10.8 42 10.3 44.7 Q9.8 47.4 9.8 49.9 Q9.8 56.1 12.65 60.9 Q15.5 65.7 20.8 68.3 Q26.1 71 33.2 71 Q47.6 71 55 59.6 C52.9 58.1 50.275 56.225 48.7 55.1 Q45.8 59.4 42 61.55 Q38.2 63.7 32.7 63.7 Q18.4 63.7 18.4 49.4 Q18.4 45.9 19.1 43.05 Q19.8 40.2 21.4 35.5 C28.1 35.5 36.475 35.5 41.5 35.5 C41.5 33.775 41.5 30.325 41.5 28.6 C36.95 28.6 27.85 28.6 23.3 28.6 Q23.6 26.7 23.6 24.7 Q23.6 19.1 21.15 14.9 Q18.7 10.7 15.4 8.5 C15.4 8.33333 15.4 8.125 15.4 8 C25 8 44.2 8 53.8 8 C53.8 6 53.8 2 53.8 0 C42.225 0 19.075 0 7.5 0 C7.5 2.625 7.5 7.875 7.5 10.5 z" />
<glyph unicode="" horiz-adv-x="60" d="M17.7 52 Q23.2 55.3 30.1 55.3 Q37.4 55.3 42.2 52 C45.16667 54.96667 48.875 58.675 51.1 60.9 C52.475 59.55 55.225 56.85 56.6 55.5 C54.425 53.3 50.075 48.9 47.9 46.7 Q51.5 41.3 51.5 34.2 Q51.5 27.4 47.8 21.5 C50.73333 18.6 54.4 14.975 56.6 12.8 C55.225 11.45 52.475 8.75 51.1 7.4 C48.85 9.6 44.35 14 42.1 16.2 Q37.1 13 30.1 13 Q23 13 17.8 16.2 C14.83333 13.23333 11.125 9.525 8.9 7.3 C7.525 8.65 4.775 11.35 3.4 12.7 C5.625 14.925 10.075 19.375 12.3 21.6 Q8.8 27.2 8.8 34.2 Q8.8 41.2 12.2 46.5 C9.26667 49.53333 5.6 53.325 3.4 55.6 C4.775 56.95 7.525 59.65 8.9 61 C11.1 58.75 15.5 54.25 17.7 52 zM20.6 44.8 Q17.3 41 17.3 34.2 Q17.3 27.4 20.6 23.65 Q23.9 19.9 30.1 19.9 Q36.3 19.9 39.55 23.65 Q42.8 27.4 42.8 34.2 Q42.8 41 39.55 44.8 Q36.3 48.6 30.1 48.6 Q23.9 48.6 20.6 44.8 z" />
<glyph unicode="" horiz-adv-x="60" d="M26 6.9 C26 11.55 26 20.85 26 25.5 C21.375 25.5 12.125 25.5 7.5 25.5 C7.5 27.225 7.5 30.675 7.5 32.4 C11.025 32.4 18.075 32.4 21.6 32.4 C16.75 41.75 7.05 60.45 2.2 69.8 C4.525 69.8 9.175 69.8 11.5 69.8 C16.1 60.45 25.3 41.75 29.9 32.4 C30 32.4 30.2 32.4 30.3 32.4 C34.9 41.75 44.1 60.45 48.7 69.8 C50.975 69.8 55.525 69.8 57.8 69.8 C52.95 60.45 43.25 41.75 38.4 32.4 C41.925 32.4 48.975 32.4 52.5 32.4 C52.5 30.675 52.5 27.225 52.5 25.5 C47.875 25.5 38.625 25.5 34 25.5 C34 20.85 34 11.55 34 6.9 C38.625 6.9 47.875 6.9 52.5 6.9 C52.5 5.175 52.5 1.725 52.5 0 C41.25 0 18.75 0 7.5 0 C7.5 1.725 7.5 5.175 7.5 6.9 C12.125 6.9 21.375 6.9 26 6.9 z" />
<glyph unicode="" horiz-adv-x="60" d="M26.5 76 C28.25 76 31.75 76 33.5 76 C33.5 67.025 33.5 49.075 33.5 40.1 C31.75 40.1 28.25 40.1 26.5 40.1 C26.5 49.075 26.5 67.025 26.5 76 zM26.5 22.1 C28.25 22.1 31.75 22.1 33.5 22.1 C33.5 13.125 33.5 -4.825 33.5 -13.8 C31.75 -13.8 28.25 -13.8 26.5 -13.8 C26.5 -4.825 26.5 13.125 26.5 22.1 z" />
<glyph unicode="" horiz-adv-x="60" d="M43.1 -11.2 Q37.6 -15.5 28.6 -15.5 Q23.8 -15.5 19.4 -14.15 Q15 -12.8 11.6 -9.9 C13.16667 -8.03333 15.125 -5.7 16.3 -4.3 Q21.4 -8.6 28.7 -8.6 Q34.4 -8.6 37.6 -6.25 Q40.8 -3.9 40.8 0.2 Q40.8 3.8 38.15 6.1 Q35.5 8.4 30.2 9.9 C28.06667 10.5 25.4 11.25 23.8 11.7 Q15.8 14 11.95 17.95 Q8.1 21.9 8.1 27.2 Q8.1 32 11 35.7 Q13.9 39.4 19.3 41.5 C19.3 41.66667 19.3 41.875 19.3 42 Q15.5 44.3 13.6 47.7 Q11.7 51.1 11.7 55.2 Q11.7 62.4 17.25 66.7 Q22.8 71 31.8 71 Q36.6 71 41 69.65 Q45.4 68.3 48.8 65.4 C47.23333 63.53333 45.275 61.2 44.1 59.8 Q39 64.1 31.7 64.1 Q26 64.1 22.8 61.75 Q19.6 59.4 19.6 55.3 Q19.6 51.7 22.25 49.4 Q24.9 47.1 30.2 45.6 C32.33333 45 35 44.25 36.6 43.8 Q44.6 41.5 48.45 37.55 Q52.3 33.6 52.3 28.3 Q52.3 23.5 49.4 19.8 Q46.5 16.1 41.1 14 C41.1 13.83333 41.1 13.625 41.1 13.5 Q44.9 11.2 46.8 7.8 Q48.7 4.4 48.7 0.3 Q48.7 -6.9 43.1 -11.2 zM41.5 33.1 Q38.6 35.8 32.4 37.5 C30.3 38.06667 27.675 38.775 26.1 39.2 Q24.4 39.6 22.7 40.3 Q16 35.7 16 29.2 Q16 25 18.9 22.35 Q21.8 19.7 28 18 C30.1 17.43333 32.725 16.725 34.3 16.3 Q36 15.9 37.7 15.2 Q44.4 19.8 44.4 26.3 Q44.4 30.5 41.5 33.1 z" />
<glyph unicode="" horiz-adv-x="60" d="M16.4 63 Q15 64.3 15 66.4 C15 66.86667 15 67.45 15 67.8 Q15 69.9 16.4 71.15 Q17.8 72.4 20.7 72.4 Q23.6 72.4 25 71.15 Q26.4 69.9 26.4 67.8 C26.4 67.33333 26.4 66.75 26.4 66.4 Q26.4 64.3 25 63.05 Q23.6 61.8 20.7 61.8 Q17.8 61.8 16.4 63 zM35 63 Q33.6 64.3 33.6 66.4 C33.6 66.86667 33.6 67.45 33.6 67.8 Q33.6 69.9 35 71.15 Q36.4 72.4 39.3 72.4 Q42.2 72.4 43.6 71.15 Q45 69.9 45 67.8 C45 67.33333 45 66.75 45 66.4 Q45 64.3 43.6 63.05 Q42.2 61.8 39.3 61.8 Q36.4 61.8 35 63 z" />
<glyph unicode="" horiz-adv-x="90" d="M28 3.3 Q20.4 7.7 16 15.9 Q11.6 24.1 11.6 34.9 Q11.6 45.7 16 53.9 Q20.4 62.1 28 66.5 Q35.6 70.9 45 70.9 Q54.4 70.9 62 66.5 Q69.6 62.1 74 53.9 Q78.4 45.7 78.4 34.9 Q78.4 24.1 74 15.9 Q69.6 7.7 62 3.3 Q54.4 -1.1 45 -1.1 Q35.6 -1.1 28 3.3 zM58.7 8.4 Q64.8 11.9 68.2 18.05 Q71.6 24.2 71.6 31.9 C71.6 33.9 71.6 36.4 71.6 37.9 Q71.6 45.6 68.2 51.75 Q64.8 57.9 58.7 61.4 Q52.7 64.9 45 64.9 Q37.3 64.9 31.25 61.4 Q25.2 57.9 21.8 51.7 Q18.4 45.6 18.4 37.9 C18.4 35.9 18.4 33.4 18.4 31.9 Q18.4 24.2 21.8 18.05 Q25.2 11.9 31.2 8.4 Q37.3 4.9 45 4.9 Q52.7 4.9 58.7 8.4 zM33.7 20.7 Q29.3 26 29.3 34.9 Q29.3 43.8 33.7 49.05 Q38.1 54.3 45.8 54.3 Q50.6 54.3 53.95 52 Q57.3 49.7 59.1 45.6 C57.2 44.53333 54.825 43.2 53.4 42.4 Q52.2 45.2 50.4 46.6 Q48.6 48 45.8 48 Q41.6 48 39.25 45.3 Q36.9 42.6 36.9 38.1 C36.9 35.93333 36.9 33.225 36.9 31.6 Q36.9 27.1 39.25 24.4 Q41.6 21.7 45.8 21.7 Q48.8 21.7 50.75 23.2 Q52.7 24.7 54.3 27.7 C56.1 26.56667 58.35 25.15 59.7 24.3 Q57.9 20.3 54.35 17.9 Q50.8 15.5 45.8 15.5 Q38.1 15.5 33.7 20.7 z" />
<glyph unicode="" horiz-adv-x="60" d="M38.2 37 Q36.8 38.4 36.6 41 C36.46667 41 36.3 41 36.2 41 Q34.9 38.4 32.05 36.65 Q29.2 34.9 24.9 34.9 Q19.6 34.9 16.7 37.6 Q13.8 40.3 13.8 44.8 Q13.8 50 17.7 52.6 Q21.6 55.2 28.9 55.2 C31.33333 55.2 34.375 55.2 36.2 55.2 C36.2 55.9 36.2 57.3 36.2 58 Q36.2 65.8 28.5 65.8 Q25.2 65.8 22.8 64.4 Q20.4 63 19.2 60.6 C17.8 61.73333 16.05 63.15 15 64 Q16.7 66.9 20.2 68.95 Q23.7 71 28.8 71 Q35.2 71 38.85 67.65 Q42.5 64.3 42.5 58.3 C42.5 52.63333 42.5 45.55 42.5 41.3 C43.45 41.3 45.35 41.3 46.3 41.3 C46.3 39.9 46.3 37.1 46.3 35.7 C45.45 35.7 43.75 35.7 42.9 35.7 Q39.7 35.7 38.2 37 zM22.3 49.4 Q20.1 48.2 20.1 45.9 C20.1 45.56667 20.1 45.15 20.1 44.9 Q20.1 40 26.2 40 Q30.3 40 33.25 41.8 Q36.2 43.6 36.2 46.5 C36.2 47.86667 36.2 49.575 36.2 50.6 C34.325 50.6 30.575 50.6 28.7 50.6 Q24.5 50.6 22.3 49.4 z" />
<glyph unicode="" horiz-adv-x="60" d="M7.3 23 C7.3 25 7.3 29 7.3 31 C12.45 35.35 22.75 44.05 27.9 48.4 C28.525 46.975 29.775 44.125 30.4 42.7 C26.7 38.775 19.3 30.925 15.6 27 C19.3 23.075 26.7 15.225 30.4 11.3 C29.775 9.875 28.525 7.025 27.9 5.6 C22.75 9.95 12.45 18.65 7.3 23 zM30.3 23 C30.3 25 30.3 29 30.3 31 C35.45 35.35 45.75 44.05 50.9 48.4 C51.525 46.975 52.775 44.125 53.4 42.7 C49.7 38.775 42.3 30.925 38.6 27 C42.3 23.075 49.7 15.225 53.4 11.3 C52.775 9.875 51.525 7.025 50.9 5.6 C45.75 9.95 35.45 18.65 30.3 23 z" />
<glyph unicode="" horiz-adv-x="60" d="M45.3 27.1 C35.525 27.1 15.975 27.1 6.2 27.1 C6.2 28.8 6.2 32.2 6.2 33.9 C17.7 33.9 40.7 33.9 52.2 33.9 C52.2 27.375 52.2 14.325 52.2 7.8 C50.475 7.8 47.025 7.8 45.3 7.8 C45.3 12.625 45.3 22.275 45.3 27.1 z" />
<glyph unicode="" horiz-adv-x="60" d="M15.5 34.6 C22.75 34.6 37.25 34.6 44.5 34.6 C44.5 32.5 44.5 28.3 44.5 26.2 C37.25 26.2 22.75 26.2 15.5 26.2 C15.5 28.3 15.5 32.5 15.5 34.6 z" />
<glyph unicode="" horiz-adv-x="60" d="M20.8 37 Q16.6 39.4 14.15 43.55 Q11.7 47.7 11.7 52.8 Q11.7 57.9 14.15 62.05 Q16.6 66.2 20.8 68.6 Q25 71 30 71 Q35 71 39.2 68.6 Q43.4 66.2 45.8 62 Q48.3 57.9 48.3 52.8 Q48.3 47.7 45.85 43.55 Q43.4 39.4 39.2 37 Q35 34.6 30 34.6 Q25 34.6 20.8 37 zM39.7 42.3 Q43.5 45.9 43.5 51.8 C43.5 52.46667 43.5 53.3 43.5 53.8 Q43.5 59.7 39.7 63.3 Q35.9 66.9 30 66.9 Q24.1 66.9 20.3 63.3 Q16.5 59.7 16.5 53.8 C16.5 53.13333 16.5 52.3 16.5 51.8 Q16.5 45.9 20.3 42.3 Q24.1 38.7 30 38.7 Q35.9 38.7 39.7 42.3 zM23 43.6 C23 48.225 23 57.475 23 62.1 C25.125 62.1 29.375 62.1 31.5 62.1 Q34.3 62.1 35.85 60.55 Q37.4 59 37.4 56.4 Q37.4 54.5 36.4 53.15 Q35.4 51.8 33.7 51.2 C35.23333 48.66667 37.15 45.5 38.3 43.6 C37.175 43.6 34.925 43.6 33.8 43.6 C32.825 45.35 30.875 48.85 29.9 50.6 C29.175 50.6 27.725 50.6 27 50.6 C27 48.85 27 45.35 27 43.6 C26 43.6 24 43.6 23 43.6 zM32.5 54.1 Q33.2 54.8 33.2 55.9 C33.2 56.13333 33.2 56.425 33.2 56.6 Q33.2 57.7 32.5 58.35 Q31.8 59 30.6 59 C29.4 59 27.9 59 27 59 C27 57.625 27 54.875 27 53.5 C27.9 53.5 29.7 53.5 30.6 53.5 Q31.8 53.5 32.5 54.1 z" />
<glyph unicode="" horiz-adv-x="60" d="M44 70.5 C44 68.8 44 65.4 44 63.7 C37 63.7 23 63.7 16 63.7 C16 65.4 16 68.8 16 70.5 C23 70.5 37 70.5 44 70.5 z" />
<glyph unicode="" horiz-adv-x="60" d="M21.3 39 Q17.4 41.3 15.15 45.2 Q12.9 49.1 12.9 53.9 Q12.9 58.7 15.15 62.6 Q17.4 66.5 21.3 68.7 Q25.3 71 30 71 Q34.7 71 38.65 68.75 Q42.6 66.5 44.8 62.6 Q47.1 58.7 47.1 53.9 Q47.1 49.1 44.85 45.2 Q42.6 41.3 38.6 39 Q34.7 36.8 30 36.8 Q25.3 36.8 21.3 39 zM37.3 46.2 Q40.1 49.3 40.1 53.9 Q40.1 58.5 37.3 61.55 Q34.5 64.6 30 64.6 Q25.5 64.6 22.7 61.55 Q19.9 58.5 19.9 53.9 Q19.9 49.3 22.7 46.25 Q25.5 43.2 30 43.2 Q34.5 43.2 37.3 46.2 z" />
<glyph unicode="" horiz-adv-x="60" d="M26.2 35.1 C21.2 35.1 11.2 35.1 6.2 35.1 C6.2 36.8 6.2 40.2 6.2 41.9 C11.2 41.9 21.2 41.9 26.2 41.9 C26.2 46.875 26.2 56.825 26.2 61.8 C28.1 61.8 31.9 61.8 33.8 61.8 C33.8 56.825 33.8 46.875 33.8 41.9 C38.8 41.9 48.8 41.9 53.8 41.9 C53.8 40.2 53.8 36.8 53.8 35.1 C48.8 35.1 38.8 35.1 33.8 35.1 C33.8 30.125 33.8 20.175 33.8 15.2 C31.9 15.2 28.1 15.2 26.2 15.2 C26.2 20.175 26.2 30.125 26.2 35.1 zM6.2 6.8 C18.1 6.8 41.9 6.8 53.8 6.8 C53.8 5.1 53.8 1.7 53.8 0 C41.9 0 18.1 0 6.2 0 C6.2 1.7 6.2 5.1 6.2 6.8 z" />
<glyph unicode="" horiz-adv-x="60" d="M16.6 32.9 C16.6 34.325 16.6 37.175 16.6 38.6 C19.85 41.225 26.35 46.475 29.6 49.1 Q32.7 51.6 34.25 53.95 Q35.8 56.3 35.8 58.9 C35.8 59.1 35.8 59.35 35.8 59.5 Q35.8 62.1 34.1 63.65 Q32.4 65.2 29.3 65.2 Q23.5 65.2 21.5 59.4 C19.7 60.06667 17.45 60.9 16.1 61.4 Q17.4 65.4 20.75 67.9 Q24.1 70.4 29.7 70.4 Q35.7 70.4 39.1 67.4 Q42.5 64.4 42.5 59.5 Q42.5 55.5 40.1 52.25 Q37.7 49 33 45.4 C29.76667 42.9 25.725 39.775 23.3 37.9 C28.425 37.9 38.675 37.9 43.8 37.9 C43.8 36.65 43.8 34.15 43.8 32.9 C37 32.9 23.4 32.9 16.6 32.9 z" />
<glyph unicode="" horiz-adv-x="60" d="M33.8 56 Q35.7 57.4 35.7 59.8 C35.7 59.93333 35.7 60.1 35.7 60.2 Q35.7 62.7 33.95 64.05 Q32.2 65.4 29.2 65.4 Q23.8 65.4 20.9 60.9 C19.46667 62.03333 17.675 63.45 16.6 64.3 Q20.9 70.4 29.4 70.4 Q35.2 70.4 38.8 67.85 Q42.4 65.3 42.4 60.9 Q42.4 57.5 40.2 55.3 Q38 53.1 34.6 52.4 C34.6 52.3 34.6 52.175 34.6 52.1 Q38.3 51.5 40.65 49.2 Q43 46.9 43 43.1 Q43 38.2 39.1 35.25 Q35.2 32.3 28.7 32.3 Q23.7 32.3 20.5 34.1 Q17.3 35.9 15.1 38.9 C16.66667 40.03333 18.625 41.45 19.8 42.3 Q21.4 39.9 23.45 38.6 Q25.5 37.3 28.7 37.3 Q32.4 37.3 34.4 38.9 Q36.4 40.5 36.4 43.4 C36.4 43.6 36.4 43.85 36.4 44 Q36.4 49.5 28.7 49.5 C27.2 49.5 25.325 49.5 24.2 49.5 C24.2 50.775 24.2 53.325 24.2 54.6 C25.2 54.6 27.2 54.6 28.2 54.6 Q31.9 54.6 33.8 56 z" />
<glyph unicode="" horiz-adv-x="60" d="M25.5 60.9 C27.625 65.15 31.875 73.65 34 77.9 C35.825 77.025 39.475 75.275 41.3 74.4 C38.65 70.425 33.35 62.475 30.7 58.5 C29.4 59.1 26.8 60.3 25.5 60.9 z" />
<glyph unicode="" horiz-adv-x="60" d="" />
<glyph unicode="" horiz-adv-x="60" d="M15.6 27.5 Q10.5 30.5 7.5 35.65 Q4.5 40.8 4.5 47.2 Q4.5 53.6 7.5 58.75 Q10.5 63.9 15.6 66.8 Q20.8 69.8 27 69.8 C34.8 69.8 44.55 69.8 50.4 69.8 C50.4 48.625 50.4 6.275 50.4 -14.9 C48.6 -14.9 45 -14.9 43.2 -14.9 C43.2 4.675 43.2 43.825 43.2 63.4 C40.95 63.4 36.45 63.4 34.2 63.4 C34.2 43.825 34.2 4.675 34.2 -14.9 C32.4 -14.9 28.8 -14.9 27 -14.9 C27 -5.025 27 14.725 27 24.6 Q20.8 24.6 15.6 27.5 z" />
<glyph unicode="" horiz-adv-x="60" d="M24.4 25.1 Q22.6 26.8 22.6 29.5 C22.6 30.1 22.6 30.85 22.6 31.3 Q22.6 34 24.4 35.65 Q26.2 37.3 30 37.3 Q33.8 37.3 35.6 35.65 Q37.4 34 37.4 31.3 C37.4 30.7 37.4 29.95 37.4 29.5 Q37.4 26.8 35.6 25.15 Q33.8 23.5 30 23.5 Q26.2 23.5 24.4 25.1 z" />
<glyph unicode="" horiz-adv-x="60" d="M25 -19.5 Q22.5 -18.3 21.3 -16.6 C22.56667 -15.23333 24.15 -13.525 25.1 -12.5 Q27.3 -15.3 31.2 -15.3 Q33.2 -15.3 34.4 -14.5 Q35.6 -13.7 35.6 -12.2 Q35.6 -10.7 34.15 -9.7 Q32.7 -8.7 28.8 -8.1 C27.86667 -7.96667 26.7 -7.8 26 -7.7 C26.475 -5.275 27.425 -0.425 27.9 2 C29.15 2 31.65 2 32.9 2 C32.5 -0.025 31.7 -4.075 31.3 -6.1 C31.375 -6.175 31.525 -6.325 31.6 -6.4 Q33.5 -5.8 35.5 -5.8 Q38.5 -5.8 40.4 -7.55 Q42.3 -9.3 42.3 -12.4 Q42.3 -16.5 39.15 -18.6 Q36 -20.7 31.2 -20.7 Q27.5 -20.7 25 -19.5 z" />
<glyph unicode="" horiz-adv-x="60" d="M17.6 37.9 C20.325 37.9 25.775 37.9 28.5 37.9 C28.5 44.525 28.5 57.775 28.5 64.4 C25.85 63.025 20.55 60.275 17.9 58.9 C17.275 60 16.025 62.2 15.4 63.3 C18.55 64.925 24.85 68.175 28 69.8 C29.7 69.8 33.1 69.8 34.8 69.8 C34.8 61.825 34.8 45.875 34.8 37.9 C37.25 37.9 42.15 37.9 44.6 37.9 C44.6 36.65 44.6 34.15 44.6 32.9 C37.85 32.9 24.35 32.9 17.6 32.9 C17.6 34.15 17.6 36.65 17.6 37.9 z" />
<glyph unicode="" horiz-adv-x="60" d="M18.2 39.7 Q14 44.6 14 53 Q14 61.4 18.25 66.2 Q22.5 71 30 71 Q37.5 71 41.75 66.2 Q46 61.4 46 53 Q46 44.6 41.75 39.75 Q37.5 34.9 30 34.9 Q22.5 34.9 18.2 39.7 zM36.7 42.9 Q39.1 45.6 39.1 50 C39.1 51.96667 39.1 54.425 39.1 55.9 Q39.1 60.3 36.75 63 Q34.4 65.7 30 65.7 Q25.6 65.7 23.25 63 Q20.9 60.3 20.9 55.9 C20.9 53.93333 20.9 51.475 20.9 50 Q20.9 45.6 23.25 42.9 Q25.6 40.2 30 40.2 Q34.4 40.2 36.7 42.9 z" />
<glyph unicode="" horiz-adv-x="60" d="M21.4 27 C17.7 30.925 10.3 38.775 6.6 42.7 C7.225 44.125 8.475 46.975 9.1 48.4 C14.25 44.05 24.55 35.35 29.7 31 C29.7 29 29.7 25 29.7 23 C24.55 18.65 14.25 9.95 9.1 5.6 C8.475 7.025 7.225 9.875 6.6 11.3 C10.3 15.225 17.7 23.075 21.4 27 zM44.4 27 C40.7 30.925 33.3 38.775 29.6 42.7 C30.225 44.125 31.475 46.975 32.1 48.4 C37.25 44.05 47.55 35.35 52.7 31 C52.7 29 52.7 25 52.7 23 C47.55 18.65 37.25 9.95 32.1 5.6 C31.475 7.025 30.225 9.875 29.6 11.3 C33.3 15.225 40.7 23.075 44.4 27 z" />
<glyph unicode="" horiz-adv-x="60" d="M13.3 41.3 C13.3 47.05 13.3 58.55 13.3 64.3 C11.075 63.175 6.625 60.925 4.4 59.8 C3.8 60.9 2.6 63.1 2 64.2 C4.7 65.6 10.1 68.4 12.8 69.8 C14.5 69.8 17.9 69.8 19.6 69.8 C19.6 62.675 19.6 48.425 19.6 41.3 C21.675 41.3 25.825 41.3 27.9 41.3 C27.9 40.05 27.9 37.55 27.9 36.3 C21.9 36.3 9.9 36.3 3.9 36.3 C3.9 37.55 3.9 40.05 3.9 41.3 C6.25 41.3 10.95 41.3 13.3 41.3 zM58.2 69.8 C54.2 62.3 46.2 47.3 42.2 39.8 C40.4 39.8 36.8 39.8 35 39.8 C39 47.3 47 62.3 51 69.8 C52.8 69.8 56.4 69.8 58.2 69.8 zM31.4 6.4 C31.4 7.875 31.4 10.825 31.4 12.3 C34.95 17.6 42.05 28.2 45.6 33.5 C47.65 33.5 51.75 33.5 53.8 33.5 C53.8 27.925 53.8 16.775 53.8 11.2 C54.975 11.2 57.325 11.2 58.5 11.2 C58.5 10 58.5 7.6 58.5 6.4 C57.325 6.4 54.975 6.4 53.8 6.4 C53.8 4.8 53.8 1.6 53.8 0 C52.275 0 49.225 0 47.7 0 C47.7 1.6 47.7 4.8 47.7 6.4 C43.625 6.4 35.475 6.4 31.4 6.4 zM25 30 C21 22.5 13 7.5 9 0 C7.2 0 3.6 0 1.8 0 C5.8 7.5 13.8 22.5 17.8 30 C19.6 30 23.2 30 25 30 zM47.7 28.2 C47.625 28.2 47.475 28.2 47.4 28.2 C44.55 23.95 38.85 15.45 36 11.2 C38.925 11.2 44.775 11.2 47.7 11.2 C47.7 15.45 47.7 23.95 47.7 28.2 z" />
<glyph unicode="" horiz-adv-x="60" d="M13.3 41.3 C13.3 47.05 13.3 58.55 13.3 64.3 C11.075 63.175 6.625 60.925 4.4 59.8 C3.8 60.9 2.6 63.1 2 64.2 C4.7 65.6 10.1 68.4 12.8 69.8 C14.5 69.8 17.9 69.8 19.6 69.8 C19.6 62.675 19.6 48.425 19.6 41.3 C21.675 41.3 25.825 41.3 27.9 41.3 C27.9 40.05 27.9 37.55 27.9 36.3 C21.9 36.3 9.9 36.3 3.9 36.3 C3.9 37.55 3.9 40.05 3.9 41.3 C6.25 41.3 10.95 41.3 13.3 41.3 zM58.2 69.8 C54.2 62.3 46.2 47.3 42.2 39.8 C40.4 39.8 36.8 39.8 35 39.8 C39 47.3 47 62.3 51 69.8 C52.8 69.8 56.4 69.8 58.2 69.8 zM44.2 14.8 Q49.6 19.2 49.6 23.8 C49.6 23.96667 49.6 24.175 49.6 24.3 Q49.6 26.3 48.2 27.6 Q46.8 28.9 44.3 28.9 Q41.8 28.9 40.2 27.5 Q38.6 26.1 37.6 23.4 C35.83333 24.13333 33.625 25.05 32.3 25.6 Q33.5 29.4 36.65 31.75 Q39.8 34.1 44.8 34.1 Q50.2 34.1 53.2 31.35 Q56.2 28.6 56.2 24.4 Q56.2 20.6 53.85 17.4 Q51.5 14.2 47.2 10.9 C44.63333 8.93333 41.425 6.475 39.5 5 C44 5 53 5 57.5 5 C57.5 3.75 57.5 1.25 57.5 0 C51.35 0 39.05 0 32.9 0 C32.9 1.45 32.9 4.35 32.9 5.8 C35.725 8.05 41.375 12.55 44.2 14.8 zM25 30 C21 22.5 13 7.5 9 0 C7.2 0 3.6 0 1.8 0 C5.8 7.5 13.8 22.5 17.8 30 C19.6 30 23.2 30 25 30 z" />
<glyph unicode="" horiz-adv-x="60" d="M1.7 42.8 C2.875 43.625 5.225 45.275 6.4 46.1 Q7.8 43.6 9.6 42.2 Q11.4 40.8 14.3 40.8 Q17.2 40.8 18.85 42.15 Q20.5 43.5 20.5 45.8 C20.5 46.03333 20.5 46.325 20.5 46.5 Q20.5 48.7 18.7 49.9 Q16.9 51.1 13.6 51.1 C12.43333 51.1 10.975 51.1 10.1 51.1 C10.1 52.35 10.1 54.85 10.1 56.1 C10.975 56.1 12.725 56.1 13.6 56.1 Q16.6 56.1 18.25 57.25 Q19.9 58.4 19.9 60.2 C19.9 60.43333 19.9 60.725 19.9 60.9 Q19.9 62.9 18.4 64.1 Q16.9 65.3 14.3 65.3 Q9.6 65.3 7.1 61.2 C5.7 62.33333 3.95 63.75 2.9 64.6 Q4.8 67.4 7.6 68.9 Q10.4 70.4 14.5 70.4 Q19.8 70.4 23.05 68.05 Q26.3 65.7 26.3 61.7 Q26.3 58.6 24.3 56.6 Q22.3 54.6 19.3 54 C19.3 53.86667 19.3 53.7 19.3 53.6 Q22.7 53 24.8 51 Q26.9 49 26.9 45.6 Q26.9 41.1 23.4 38.4 Q19.9 35.7 14.3 35.7 Q5.7 35.7 1.7 42.8 zM58.2 69.8 C54.2 62.3 46.2 47.3 42.2 39.8 C40.4 39.8 36.8 39.8 35 39.8 C39 47.3 47 62.3 51 69.8 C52.8 69.8 56.4 69.8 58.2 69.8 zM31.4 6.4 C31.4 7.875 31.4 10.825 31.4 12.3 C34.95 17.6 42.05 28.2 45.6 33.5 C47.65 33.5 51.75 33.5 53.8 33.5 C53.8 27.925 53.8 16.775 53.8 11.2 C54.975 11.2 57.325 11.2 58.5 11.2 C58.5 10 58.5 7.6 58.5 6.4 C57.325 6.4 54.975 6.4 53.8 6.4 C53.8 4.8 53.8 1.6 53.8 0 C52.275 0 49.225 0 47.7 0 C47.7 1.6 47.7 4.8 47.7 6.4 C43.625 6.4 35.475 6.4 31.4 6.4 zM25 30 C21 22.5 13 7.5 9 0 C7.2 0 3.6 0 1.8 0 C5.8 7.5 13.8 22.5 17.8 30 C19.6 30 23.2 30 25 30 zM47.7 28.2 C47.625 28.2 47.475 28.2 47.4 28.2 C44.55 23.95 38.85 15.45 36 11.2 C38.925 11.2 44.775 11.2 47.7 11.2 C47.7 15.45 47.7 23.95 47.7 28.2 z" />
<glyph unicode="" horiz-adv-x="60" d="M26.2 40.3 Q24.4 42 24.4 44.7 C24.4 45.3 24.4 46.05 24.4 46.5 Q24.4 49.2 26.2 50.85 Q28 52.5 31.8 52.5 Q35.6 52.5 37.4 50.85 Q39.2 49.2 39.2 46.5 C39.2 45.9 39.2 45.15 39.2 44.7 Q39.2 42 37.4 40.35 Q35.6 38.7 31.8 38.7 Q28 38.7 26.2 40.3 zM14.7 -14.2 Q9 -9.1 9 -0.5 Q9 8.2 14.6 13.4 Q20.2 18.6 28.2 20 C28.2 23.36667 28.2 27.575 28.2 30.1 C30.175 30.1 34.125 30.1 36.1 30.1 C36.1 26.175 36.1 18.325 36.1 14.4 Q27.3 14 22.5 10.55 Q17.7 7.1 17.7 0.5 C17.7 0.03333 17.7 -0.55 17.7 -0.9 Q17.7 -6.4 21 -9.25 Q24.3 -12.1 30.2 -12.1 Q35.9 -12.1 39.65 -8.9 Q43.4 -5.7 44.8 -0.4 C47.3 -1.33333 50.425 -2.5 52.3 -3.2 Q50.2 -10.4 44.55 -14.9 Q38.9 -19.4 29.9 -19.4 Q20.4 -19.4 14.7 -14.2 z" />
<glyph unicode="" horiz-adv-x="60" d="M26 94.9 C28.125 90.65 32.375 82.15 34.5 77.9 C33.2 77.3 30.6 76.1 29.3 75.5 C26.65 79.475 21.35 87.425 18.7 91.4 C20.525 92.275 24.175 94.025 26 94.9 zM42.2 19.9 C36.075 19.9 23.825 19.9 17.7 19.9 C16.225 14.925 13.275 4.975 11.8 0 C9.625 0 5.275 0 3.1 0 C8.45 17.45 19.15 52.35 24.5 69.8 C27.275 69.8 32.825 69.8 35.6 69.8 C40.95 52.35 51.65 17.45 57 0 C54.775 0 50.325 0 48.1 0 C46.625 4.975 43.675 14.925 42.2 19.9 zM29.5 60.9 C27.05 52.475 22.15 35.625 19.7 27.2 C24.825 27.2 35.075 27.2 40.2 27.2 C37.75 35.625 32.85 52.475 30.4 60.9 C30.175 60.9 29.725 60.9 29.5 60.9 z" />
<glyph unicode="" horiz-adv-x="60" d="M25.5 77.9 C27.625 82.15 31.875 90.65 34 94.9 C35.825 94.025 39.475 92.275 41.3 91.4 C38.65 87.425 33.35 79.475 30.7 75.5 C29.4 76.1 26.8 77.3 25.5 77.9 zM42.2 19.9 C36.075 19.9 23.825 19.9 17.7 19.9 C16.225 14.925 13.275 4.975 11.8 0 C9.625 0 5.275 0 3.1 0 C8.45 17.45 19.15 52.35 24.5 69.8 C27.275 69.8 32.825 69.8 35.6 69.8 C40.95 52.35 51.65 17.45 57 0 C54.775 0 50.325 0 48.1 0 C46.625 4.975 43.675 14.925 42.2 19.9 zM29.5 60.9 C27.05 52.475 22.15 35.625 19.7 27.2 C24.825 27.2 35.075 27.2 40.2 27.2 C37.75 35.625 32.85 52.475 30.4 60.9 C30.175 60.9 29.725 60.9 29.5 60.9 z" />
<glyph unicode="" horiz-adv-x="60" d="M46.1 79.2 C44.975 78.425 42.725 76.875 41.6 76.1 C38.675 79.025 32.825 84.875 29.9 87.8 C26.975 84.875 21.125 79.025 18.2 76.1 C17.125 76.875 14.975 78.425 13.9 79.2 C16.675 82.775 22.225 89.925 25 93.5 C27.5 93.5 32.5 93.5 35 93.5 C37.775 89.925 43.325 82.775 46.1 79.2 zM42.2 19.9 C36.075 19.9 23.825 19.9 17.7 19.9 C16.225 14.925 13.275 4.975 11.8 0 C9.625 0 5.275 0 3.1 0 C8.45 17.45 19.15 52.35 24.5 69.8 C27.275 69.8 32.825 69.8 35.6 69.8 C40.95 52.35 51.65 17.45 57 0 C54.775 0 50.325 0 48.1 0 C46.625 4.975 43.675 14.925 42.2 19.9 zM29.5 60.9 C27.05 52.475 22.15 35.625 19.7 27.2 C24.825 27.2 35.075 27.2 40.2 27.2 C37.75 35.625 32.85 52.475 30.4 60.9 C30.175 60.9 29.725 60.9 29.5 60.9 z" />
<glyph unicode="" horiz-adv-x="60" d="M33.6 78.8 Q32 79.4 30.8 80 Q29.6 80.6 29.3 80.8 Q24.8 83.2 22.3 83.2 Q20.8 83.2 19.45 82.55 Q18.1 81.9 16.5 80.5 C15.4 81.83333 14.025 83.5 13.2 84.5 Q14.7 86.8 17.1 88.3 Q19.5 89.8 22.7 89.8 Q24.8 89.8 26.4 89.2 Q28 88.6 29.2 88 Q30.4 87.4 30.7 87.2 Q35.2 84.8 37.7 84.8 Q39.3 84.8 40.6 85.45 Q41.9 86.1 43.5 87.5 C44.6 86.16667 45.975 84.5 46.8 83.5 Q45.3 81.2 42.9 79.7 Q40.5 78.2 37.3 78.2 Q35.2 78.2 33.6 78.8 zM42.2 19.9 C36.075 19.9 23.825 19.9 17.7 19.9 C16.225 14.925 13.275 4.975 11.8 0 C9.625 0 5.275 0 3.1 0 C8.45 17.45 19.15 52.35 24.5 69.8 C27.275 69.8 32.825 69.8 35.6 69.8 C40.95 52.35 51.65 17.45 57 0 C54.775 0 50.325 0 48.1 0 C46.625 4.975 43.675 14.925 42.2 19.9 zM29.5 60.9 C27.05 52.475 22.15 35.625 19.7 27.2 C24.825 27.2 35.075 27.2 40.2 27.2 C37.75 35.625 32.85 52.475 30.4 60.9 C30.175 60.9 29.725 60.9 29.5 60.9 z" />
<glyph unicode="" horiz-adv-x="60" d="M16.4 80 Q15 81.3 15 83.4 C15 83.86667 15 84.45 15 84.8 Q15 86.9 16.4 88.15 Q17.8 89.4 20.7 89.4 Q23.6 89.4 25 88.15 Q26.4 86.9 26.4 84.8 C26.4 84.33333 26.4 83.75 26.4 83.4 Q26.4 81.3 25 80.05 Q23.6 78.8 20.7 78.8 Q17.8 78.8 16.4 80 zM35 80 Q33.6 81.3 33.6 83.4 C33.6 83.86667 33.6 84.45 33.6 84.8 Q33.6 86.9 35 88.15 Q36.4 89.4 39.3 89.4 Q42.2 89.4 43.6 88.15 Q45 86.9 45 84.8 C45 84.33333 45 83.75 45 83.4 Q45 81.3 43.6 80.05 Q42.2 78.8 39.3 78.8 Q36.4 78.8 35 80 zM42.2 19.9 C36.075 19.9 23.825 19.9 17.7 19.9 C16.225 14.925 13.275 4.975 11.8 0 C9.625 0 5.275 0 3.1 0 C8.45 17.45 19.15 52.35 24.5 69.8 C27.275 69.8 32.825 69.8 35.6 69.8 C40.95 52.35 51.65 17.45 57 0 C54.775 0 50.325 0 48.1 0 C46.625 4.975 43.675 14.925 42.2 19.9 zM29.5 60.9 C27.05 52.475 22.15 35.625 19.7 27.2 C24.825 27.2 35.075 27.2 40.2 27.2 C37.75 35.625 32.85 52.475 30.4 60.9 C30.175 60.9 29.725 60.9 29.5 60.9 z" />
<glyph unicode="" horiz-adv-x="60" d="M21.7 77.9 Q18.4 81.2 18.4 86.1 Q18.4 91 21.75 94.3 Q25.1 97.6 30 97.6 Q34.9 97.6 38.25 94.3 Q41.6 91 41.6 86.1 Q41.6 81.2 38.25 77.9 Q34.9 74.6 30 74.6 Q25.1 74.6 21.7 77.9 zM34.2 80.9 Q35.8 82.4 35.8 85 C35.8 85.73333 35.8 86.65 35.8 87.2 Q35.8 89.8 34.25 91.25 Q32.7 92.7 30 92.7 Q27.3 92.7 25.75 91.25 Q24.2 89.8 24.2 87.2 C24.2 86.46667 24.2 85.55 24.2 85 Q24.2 82.4 25.75 80.95 Q27.3 79.5 30 79.5 Q32.7 79.5 34.2 80.9 zM42.2 19.9 C36.075 19.9 23.825 19.9 17.7 19.9 C16.225 14.925 13.275 4.975 11.8 0 C9.625 0 5.275 0 3.1 0 C8.45 17.45 19.15 52.35 24.5 69.8 C27.275 69.8 32.825 69.8 35.6 69.8 C40.95 52.35 51.65 17.45 57 0 C54.775 0 50.325 0 48.1 0 C46.625 4.975 43.675 14.925 42.2 19.9 zM29.5 60.9 C27.05 52.475 22.15 35.625 19.7 27.2 C24.825 27.2 35.075 27.2 40.2 27.2 C37.75 35.625 32.85 52.475 30.4 60.9 C30.175 60.9 29.725 60.9 29.5 60.9 z" />
<glyph unicode="" horiz-adv-x="90" d="M21.9 20.5 C19.35 15.375 14.25 5.125 11.7 0 C9.55 0 5.25 0 3.1 0 C12.025 17.45 29.875 52.35 38.8 69.8 C50.35 69.8 73.45 69.8 85 69.8 C85 67.95 85 64.25 85 62.4 C76.925 62.4 60.775 62.4 52.7 62.4 C52.7 56.55 52.7 44.85 52.7 39 C60.275 39 75.425 39 83 39 C83 37.15 83 33.45 83 31.6 C75.425 31.6 60.275 31.6 52.7 31.6 C52.7 25.55 52.7 13.45 52.7 7.4 C60.775 7.4 76.925 7.4 85 7.4 C85 5.55 85 1.85 85 0 C74.85 0 54.55 0 44.4 0 C44.4 5.125 44.4 15.375 44.4 20.5 C38.775 20.5 27.525 20.5 21.9 20.5 zM25.4 27.9 C30.15 27.9 39.65 27.9 44.4 27.9 C44.4 36.525 44.4 53.775 44.4 62.4 C44.075 62.4 43.425 62.4 43.1 62.4 C38.675 53.775 29.825 36.525 25.4 27.9 z" />
<glyph unicode="" horiz-adv-x="60" d="M20 57.5 Q15.9 51.4 15.9 40.6 C15.9 36.8 15.9 32.05 15.9 29.2 Q15.9 18.4 20.05 12.25 Q24.2 6.1 32.3 6.1 Q38.1 6.1 41.25 9 Q44.4 11.9 46.6 17.4 C49 16.3 52 14.925 53.8 14.1 Q50.7 7.2 46 3.1 Q41.3 -1 33 -1.2 C32.7 -2.83333 32.325 -4.875 32.1 -6.1 C32.175 -6.175 32.325 -6.325 32.4 -6.4 Q34.3 -5.8 36.3 -5.8 Q39.3 -5.8 41.2 -7.55 Q43.1 -9.3 43.1 -12.4 Q43.1 -16.5 39.95 -18.6 Q36.8 -20.7 32 -20.7 Q28.3 -20.7 25.8 -19.5 Q23.3 -18.3 22.1 -16.6 C23.36667 -15.23333 24.95 -13.525 25.9 -12.5 Q28.1 -15.3 32 -15.3 Q34 -15.3 35.2 -14.5 Q36.4 -13.7 36.4 -12.2 Q36.4 -10.7 34.95 -9.7 Q33.5 -8.7 29.6 -8.1 C28.66667 -7.96667 27.5 -7.8 26.8 -7.7 C27.125 -6 27.775 -2.6 28.1 -0.9 Q17.5 0.6 12.25 9.7 Q7 18.8 7 34.9 Q7 52.5 13.35 61.75 Q19.7 71 32.3 71 Q41 71 45.85 66.85 Q50.7 62.7 53.8 55.7 C51.4 54.6 48.4 53.225 46.6 52.4 Q44.4 57.9 41.25 60.8 Q38.1 63.7 32.3 63.7 Q24.2 63.7 20 57.5 z" />
<glyph unicode="" horiz-adv-x="60" d="M26.5 94.9 C28.625 90.65 32.875 82.15 35 77.9 C33.7 77.3 31.1 76.1 29.8 75.5 C27.15 79.475 21.85 87.425 19.2 91.4 C21.025 92.275 24.675 94.025 26.5 94.9 zM9 69.8 C19.75 69.8 41.25 69.8 52 69.8 C52 67.975 52 64.325 52 62.5 C43.35 62.5 26.05 62.5 17.4 62.5 C17.4 56.625 17.4 44.875 17.4 39 C25.75 39 42.45 39 50.8 39 C50.8 37.175 50.8 33.525 50.8 31.7 C42.45 31.7 25.75 31.7 17.4 31.7 C17.4 25.6 17.4 13.4 17.4 7.3 C26.05 7.3 43.35 7.3 52 7.3 C52 5.475 52 1.825 52 0 C41.25 0 19.75 0 9 0 C9 17.45 9 52.35 9 69.8 z" />
<glyph unicode="" horiz-adv-x="60" d="M26 77.9 C28.125 82.15 32.375 90.65 34.5 94.9 C36.325 94.025 39.975 92.275 41.8 91.4 C39.15 87.425 33.85 79.475 31.2 75.5 C29.9 76.1 27.3 77.3 26 77.9 zM9 69.8 C19.75 69.8 41.25 69.8 52 69.8 C52 67.975 52 64.325 52 62.5 C43.35 62.5 26.05 62.5 17.4 62.5 C17.4 56.625 17.4 44.875 17.4 39 C25.75 39 42.45 39 50.8 39 C50.8 37.175 50.8 33.525 50.8 31.7 C42.45 31.7 25.75 31.7 17.4 31.7 C17.4 25.6 17.4 13.4 17.4 7.3 C26.05 7.3 43.35 7.3 52 7.3 C52 5.475 52 1.825 52 0 C41.25 0 19.75 0 9 0 C9 17.45 9 52.35 9 69.8 z" />
<glyph unicode="" horiz-adv-x="60" d="M46.6 79.2 C45.475 78.425 43.225 76.875 42.1 76.1 C39.175 79.025 33.325 84.875 30.4 87.8 C27.475 84.875 21.625 79.025 18.7 76.1 C17.625 76.875 15.475 78.425 14.4 79.2 C17.175 82.775 22.725 89.925 25.5 93.5 C28 93.5 33 93.5 35.5 93.5 C38.275 89.925 43.825 82.775 46.6 79.2 zM9 69.8 C19.75 69.8 41.25 69.8 52 69.8 C52 67.975 52 64.325 52 62.5 C43.35 62.5 26.05 62.5 17.4 62.5 C17.4 56.625 17.4 44.875 17.4 39 C25.75 39 42.45 39 50.8 39 C50.8 37.175 50.8 33.525 50.8 31.7 C42.45 31.7 25.75 31.7 17.4 31.7 C17.4 25.6 17.4 13.4 17.4 7.3 C26.05 7.3 43.35 7.3 52 7.3 C52 5.475 52 1.825 52 0 C41.25 0 19.75 0 9 0 C9 17.45 9 52.35 9 69.8 z" />
<glyph unicode="" horiz-adv-x="60" d="M16.9 80 Q15.5 81.3 15.5 83.4 C15.5 83.86667 15.5 84.45 15.5 84.8 Q15.5 86.9 16.9 88.15 Q18.3 89.4 21.2 89.4 Q24.1 89.4 25.5 88.15 Q26.9 86.9 26.9 84.8 C26.9 84.33333 26.9 83.75 26.9 83.4 Q26.9 81.3 25.5 80.05 Q24.1 78.8 21.2 78.8 Q18.3 78.8 16.9 80 zM35.5 80 Q34.1 81.3 34.1 83.4 C34.1 83.86667 34.1 84.45 34.1 84.8 Q34.1 86.9 35.5 88.15 Q36.9 89.4 39.8 89.4 Q42.7 89.4 44.1 88.15 Q45.5 86.9 45.5 84.8 C45.5 84.33333 45.5 83.75 45.5 83.4 Q45.5 81.3 44.1 80.05 Q42.7 78.8 39.8 78.8 Q36.9 78.8 35.5 80 zM9 69.8 C19.75 69.8 41.25 69.8 52 69.8 C52 67.975 52 64.325 52 62.5 C43.35 62.5 26.05 62.5 17.4 62.5 C17.4 56.625 17.4 44.875 17.4 39 C25.75 39 42.45 39 50.8 39 C50.8 37.175 50.8 33.525 50.8 31.7 C42.45 31.7 25.75 31.7 17.4 31.7 C17.4 25.6 17.4 13.4 17.4 7.3 C26.05 7.3 43.35 7.3 52 7.3 C52 5.475 52 1.825 52 0 C41.25 0 19.75 0 9 0 C9 17.45 9 52.35 9 69.8 z" />
<glyph unicode="" horiz-adv-x="60" d="M26 94.9 C28.125 90.65 32.375 82.15 34.5 77.9 C33.2 77.3 30.6 76.1 29.3 75.5 C26.65 79.475 21.35 87.425 18.7 91.4 C20.525 92.275 24.175 94.025 26 94.9 zM8.4 6.7 C12.75 6.7 21.45 6.7 25.8 6.7 C25.8 20.8 25.8 49 25.8 63.1 C21.45 63.1 12.75 63.1 8.4 63.1 C8.4 64.775 8.4 68.125 8.4 69.8 C19.2 69.8 40.8 69.8 51.6 69.8 C51.6 68.125 51.6 64.775 51.6 63.1 C47.25 63.1 38.55 63.1 34.2 63.1 C34.2 49 34.2 20.8 34.2 6.7 C38.55 6.7 47.25 6.7 51.6 6.7 C51.6 5.025 51.6 1.675 51.6 0 C40.8 0 19.2 0 8.4 0 C8.4 1.675 8.4 5.025 8.4 6.7 z" />
<glyph unicode="" horiz-adv-x="60" d="M25.5 77.9 C27.625 82.15 31.875 90.65 34 94.9 C35.825 94.025 39.475 92.275 41.3 91.4 C38.65 87.425 33.35 79.475 30.7 75.5 C29.4 76.1 26.8 77.3 25.5 77.9 zM8.4 6.7 C12.75 6.7 21.45 6.7 25.8 6.7 C25.8 20.8 25.8 49 25.8 63.1 C21.45 63.1 12.75 63.1 8.4 63.1 C8.4 64.775 8.4 68.125 8.4 69.8 C19.2 69.8 40.8 69.8 51.6 69.8 C51.6 68.125 51.6 64.775 51.6 63.1 C47.25 63.1 38.55 63.1 34.2 63.1 C34.2 49 34.2 20.8 34.2 6.7 C38.55 6.7 47.25 6.7 51.6 6.7 C51.6 5.025 51.6 1.675 51.6 0 C40.8 0 19.2 0 8.4 0 C8.4 1.675 8.4 5.025 8.4 6.7 z" />
<glyph unicode="" horiz-adv-x="60" d="M46.1 79.2 C44.975 78.425 42.725 76.875 41.6 76.1 C38.675 79.025 32.825 84.875 29.9 87.8 C26.975 84.875 21.125 79.025 18.2 76.1 C17.125 76.875 14.975 78.425 13.9 79.2 C16.675 82.775 22.225 89.925 25 93.5 C27.5 93.5 32.5 93.5 35 93.5 C37.775 89.925 43.325 82.775 46.1 79.2 zM8.4 6.7 C12.75 6.7 21.45 6.7 25.8 6.7 C25.8 20.8 25.8 49 25.8 63.1 C21.45 63.1 12.75 63.1 8.4 63.1 C8.4 64.775 8.4 68.125 8.4 69.8 C19.2 69.8 40.8 69.8 51.6 69.8 C51.6 68.125 51.6 64.775 51.6 63.1 C47.25 63.1 38.55 63.1 34.2 63.1 C34.2 49 34.2 20.8 34.2 6.7 C38.55 6.7 47.25 6.7 51.6 6.7 C51.6 5.025 51.6 1.675 51.6 0 C40.8 0 19.2 0 8.4 0 C8.4 1.675 8.4 5.025 8.4 6.7 z" />
<glyph unicode="" horiz-adv-x="60" d="M16.4 80 Q15 81.3 15 83.4 C15 83.86667 15 84.45 15 84.8 Q15 86.9 16.4 88.15 Q17.8 89.4 20.7 89.4 Q23.6 89.4 25 88.15 Q26.4 86.9 26.4 84.8 C26.4 84.33333 26.4 83.75 26.4 83.4 Q26.4 81.3 25 80.05 Q23.6 78.8 20.7 78.8 Q17.8 78.8 16.4 80 zM35 80 Q33.6 81.3 33.6 83.4 C33.6 83.86667 33.6 84.45 33.6 84.8 Q33.6 86.9 35 88.15 Q36.4 89.4 39.3 89.4 Q42.2 89.4 43.6 88.15 Q45 86.9 45 84.8 C45 84.33333 45 83.75 45 83.4 Q45 81.3 43.6 80.05 Q42.2 78.8 39.3 78.8 Q36.4 78.8 35 80 zM8.4 6.7 C12.75 6.7 21.45 6.7 25.8 6.7 C25.8 20.8 25.8 49 25.8 63.1 C21.45 63.1 12.75 63.1 8.4 63.1 C8.4 64.775 8.4 68.125 8.4 69.8 C19.2 69.8 40.8 69.8 51.6 69.8 C51.6 68.125 51.6 64.775 51.6 63.1 C47.25 63.1 38.55 63.1 34.2 63.1 C34.2 49 34.2 20.8 34.2 6.7 C38.55 6.7 47.25 6.7 51.6 6.7 C51.6 5.025 51.6 1.675 51.6 0 C40.8 0 19.2 0 8.4 0 C8.4 1.675 8.4 5.025 8.4 6.7 z" />
<glyph unicode="" horiz-adv-x="60" d="M2.2 33.6 C2.2 35.2 2.2 38.4 2.2 40 C4.2 40 8.2 40 10.2 40 C10.2 47.45 10.2 62.35 10.2 69.8 C14.9 69.8 24.3 69.8 29 69.8 Q41.7 69.8 48.05 61 Q54.4 52.2 54.4 34.9 Q54.4 17.6 48.05 8.8 Q41.7 0 29 0 C22.73333 0 14.9 0 10.2 0 C10.2 8.4 10.2 25.2 10.2 33.6 C8.2 33.6 4.2 33.6 2.2 33.6 zM41.1 13.1 Q45.5 18.9 45.5 29.5 C45.5 33.1 45.5 37.6 45.5 40.3 Q45.5 50.9 41.15 56.7 Q36.8 62.5 28.6 62.5 C25.26667 62.5 21.1 62.5 18.6 62.5 C18.6 56.875 18.6 45.625 18.6 40 C22.125 40 29.175 40 32.7 40 C32.7 38.4 32.7 35.2 32.7 33.6 C29.175 33.6 22.125 33.6 18.6 33.6 C18.6 27.025 18.6 13.875 18.6 7.3 C21.1 7.3 26.1 7.3 28.6 7.3 Q36.8 7.3 41.1 13.1 z" />
<glyph unicode="" horiz-adv-x="60" d="M33.6 78.8 Q32 79.4 30.8 80 Q29.6 80.6 29.3 80.8 Q24.8 83.2 22.3 83.2 Q20.8 83.2 19.45 82.55 Q18.1 81.9 16.5 80.5 C15.4 81.83333 14.025 83.5 13.2 84.5 Q14.7 86.8 17.1 88.3 Q19.5 89.8 22.7 89.8 Q24.8 89.8 26.4 89.2 Q28 88.6 29.2 88 Q30.4 87.4 30.7 87.2 Q35.2 84.8 37.7 84.8 Q39.3 84.8 40.6 85.45 Q41.9 86.1 43.5 87.5 C44.6 86.16667 45.975 84.5 46.8 83.5 Q45.3 81.2 42.9 79.7 Q40.5 78.2 37.3 78.2 Q35.2 78.2 33.6 78.8 zM15.6 59.1 C15.6 44.325 15.6 14.775 15.6 0 C13.7 0 9.9 0 8 0 C8 17.45 8 52.35 8 69.8 C10.975 69.8 16.925 69.8 19.9 69.8 C25.85 55.175 37.75 25.925 43.7 11.3 C43.875 11.3 44.225 11.3 44.4 11.3 C44.4 25.925 44.4 55.175 44.4 69.8 C46.3 69.8 50.1 69.8 52 69.8 C52 52.35 52 17.45 52 0 C49.025 0 43.075 0 40.1 0 C34.15 14.775 22.25 44.325 16.3 59.1 C16.125 59.1 15.775 59.1 15.6 59.1 z" />
<glyph unicode="" horiz-adv-x="60" d="M26 94.9 C28.125 90.65 32.375 82.15 34.5 77.9 C33.2 77.3 30.6 76.1 29.3 75.5 C26.65 79.475 21.35 87.425 18.7 91.4 C20.525 92.275 24.175 94.025 26 94.9 zM5.6 34.9 Q5.6 71 30 71 Q54.4 71 54.4 34.9 Q54.4 -1.2 30 -1.2 Q5.6 -1.2 5.6 34.9 zM41.7 12.1 Q45.5 18.2 45.5 29.2 C45.5 33 45.5 37.75 45.5 40.6 Q45.5 51.6 41.75 57.65 Q38 63.7 30 63.7 Q22 63.7 18.25 57.65 Q14.5 51.6 14.5 40.6 C14.5 36.8 14.5 32.05 14.5 29.2 Q14.5 18.2 18.25 12.15 Q22 6.1 30 6.1 Q38 6.1 41.7 12.1 z" />
<glyph unicode="" horiz-adv-x="60" d="M25.5 77.9 C27.625 82.15 31.875 90.65 34 94.9 C35.825 94.025 39.475 92.275 41.3 91.4 C38.65 87.425 33.35 79.475 30.7 75.5 C29.4 76.1 26.8 77.3 25.5 77.9 zM5.6 34.9 Q5.6 71 30 71 Q54.4 71 54.4 34.9 Q54.4 -1.2 30 -1.2 Q5.6 -1.2 5.6 34.9 zM41.7 12.1 Q45.5 18.2 45.5 29.2 C45.5 33 45.5 37.75 45.5 40.6 Q45.5 51.6 41.75 57.65 Q38 63.7 30 63.7 Q22 63.7 18.25 57.65 Q14.5 51.6 14.5 40.6 C14.5 36.8 14.5 32.05 14.5 29.2 Q14.5 18.2 18.25 12.15 Q22 6.1 30 6.1 Q38 6.1 41.7 12.1 z" />
<glyph unicode="" horiz-adv-x="60" d="M46.1 79.2 C44.975 78.425 42.725 76.875 41.6 76.1 C38.675 79.025 32.825 84.875 29.9 87.8 C26.975 84.875 21.125 79.025 18.2 76.1 C17.125 76.875 14.975 78.425 13.9 79.2 C16.675 82.775 22.225 89.925 25 93.5 C27.5 93.5 32.5 93.5 35 93.5 C37.775 89.925 43.325 82.775 46.1 79.2 zM5.6 34.9 Q5.6 71 30 71 Q54.4 71 54.4 34.9 Q54.4 -1.2 30 -1.2 Q5.6 -1.2 5.6 34.9 zM41.7 12.1 Q45.5 18.2 45.5 29.2 C45.5 33 45.5 37.75 45.5 40.6 Q45.5 51.6 41.75 57.65 Q38 63.7 30 63.7 Q22 63.7 18.25 57.65 Q14.5 51.6 14.5 40.6 C14.5 36.8 14.5 32.05 14.5 29.2 Q14.5 18.2 18.25 12.15 Q22 6.1 30 6.1 Q38 6.1 41.7 12.1 z" />
<glyph unicode="" horiz-adv-x="60" d="M33.6 78.8 Q32 79.4 30.8 80 Q29.6 80.6 29.3 80.8 Q24.8 83.2 22.3 83.2 Q20.8 83.2 19.45 82.55 Q18.1 81.9 16.5 80.5 C15.4 81.83333 14.025 83.5 13.2 84.5 Q14.7 86.8 17.1 88.3 Q19.5 89.8 22.7 89.8 Q24.8 89.8 26.4 89.2 Q28 88.6 29.2 88 Q30.4 87.4 30.7 87.2 Q35.2 84.8 37.7 84.8 Q39.3 84.8 40.6 85.45 Q41.9 86.1 43.5 87.5 C44.6 86.16667 45.975 84.5 46.8 83.5 Q45.3 81.2 42.9 79.7 Q40.5 78.2 37.3 78.2 Q35.2 78.2 33.6 78.8 zM5.6 34.9 Q5.6 71 30 71 Q54.4 71 54.4 34.9 Q54.4 -1.2 30 -1.2 Q5.6 -1.2 5.6 34.9 zM41.7 12.1 Q45.5 18.2 45.5 29.2 C45.5 33 45.5 37.75 45.5 40.6 Q45.5 51.6 41.75 57.65 Q38 63.7 30 63.7 Q22 63.7 18.25 57.65 Q14.5 51.6 14.5 40.6 C14.5 36.8 14.5 32.05 14.5 29.2 Q14.5 18.2 18.25 12.15 Q22 6.1 30 6.1 Q38 6.1 41.7 12.1 z" />
<glyph unicode="" horiz-adv-x="60" d="M16.4 80 Q15 81.3 15 83.4 C15 83.86667 15 84.45 15 84.8 Q15 86.9 16.4 88.15 Q17.8 89.4 20.7 89.4 Q23.6 89.4 25 88.15 Q26.4 86.9 26.4 84.8 C26.4 84.33333 26.4 83.75 26.4 83.4 Q26.4 81.3 25 80.05 Q23.6 78.8 20.7 78.8 Q17.8 78.8 16.4 80 zM35 80 Q33.6 81.3 33.6 83.4 C33.6 83.86667 33.6 84.45 33.6 84.8 Q33.6 86.9 35 88.15 Q36.4 89.4 39.3 89.4 Q42.2 89.4 43.6 88.15 Q45 86.9 45 84.8 C45 84.33333 45 83.75 45 83.4 Q45 81.3 43.6 80.05 Q42.2 78.8 39.3 78.8 Q36.4 78.8 35 80 zM5.6 34.9 Q5.6 71 30 71 Q54.4 71 54.4 34.9 Q54.4 -1.2 30 -1.2 Q5.6 -1.2 5.6 34.9 zM41.7 12.1 Q45.5 18.2 45.5 29.2 C45.5 33 45.5 37.75 45.5 40.6 Q45.5 51.6 41.75 57.65 Q38 63.7 30 63.7 Q22 63.7 18.25 57.65 Q14.5 51.6 14.5 40.6 C14.5 36.8 14.5 32.05 14.5 29.2 Q14.5 18.2 18.25 12.15 Q22 6.1 30 6.1 Q38 6.1 41.7 12.1 z" />
<glyph unicode="" horiz-adv-x="60" d="M13.7 9.3 C12.475 10.525 10.025 12.975 8.8 14.2 C12.875 18.275 21.025 26.425 25.1 30.5 C21.025 34.575 12.875 42.725 8.8 46.8 C10.025 48.025 12.475 50.475 13.7 51.7 C17.775 47.625 25.925 39.475 30 35.4 C34.075 39.475 42.225 47.625 46.3 51.7 C47.525 50.475 49.975 48.025 51.2 46.8 C47.125 42.725 38.975 34.575 34.9 30.5 C38.975 26.425 47.125 18.275 51.2 14.2 C49.975 12.975 47.525 10.525 46.3 9.3 C42.225 13.375 34.075 21.525 30 25.6 C25.925 21.525 17.775 13.375 13.7 9.3 z" />
<glyph unicode="" horiz-adv-x="60" d="M15.4 3.6 C14.225 1.6 11.875 -2.4 10.7 -4.4 C9.2 -3.5 6.2 -1.7 4.7 -0.8 C6.2 1.75 9.2 6.85 10.7 9.4 Q5.6 18.3 5.6 34.9 Q5.6 71 30 71 Q39.1 71 44.6 66.2 C46.16667 68.86667 48.125 72.2 49.3 74.2 C50.8 73.3 53.8 71.5 55.3 70.6 C53.8 68.05 50.8 62.95 49.3 60.4 Q54.4 51.5 54.4 34.9 Q54.4 -1.2 30 -1.2 Q21 -1.2 15.4 3.6 zM15.9 17.4 C22.1 27.825 34.5 48.675 40.7 59.1 Q36.7 63.7 30 63.7 Q22 63.7 18.25 57.65 Q14.5 51.6 14.5 40.6 C14.5 36.8 14.5 32.05 14.5 29.2 C14.85 26.25 15.55 20.35 15.9 17.4 zM41.7 12.1 Q45.5 18.2 45.5 29.2 C45.5 33 45.5 37.75 45.5 40.6 Q45.5 47.8 44.1 52.4 C35.83333 38.5 25.5 21.125 19.3 10.7 Q23.3 6.1 30 6.1 Q38 6.1 41.7 12.1 z" />
<glyph unicode="" horiz-adv-x="60" d="M26 94.9 C28.125 90.65 32.375 82.15 34.5 77.9 C33.2 77.3 30.6 76.1 29.3 75.5 C26.65 79.475 21.35 87.425 18.7 91.4 C20.525 92.275 24.175 94.025 26 94.9 zM16.4 27.9 Q16.4 19.8 17.15 15.45 Q17.9 11.1 20.8 8.6 Q23.7 6.1 30 6.1 Q36.3 6.1 39.2 8.6 Q42.1 11.1 42.8 15.4 Q43.6 19.8 43.6 27.9 C43.6 41.86667 43.6 59.325 43.6 69.8 C45.7 69.8 49.9 69.8 52 69.8 C52 59.825 52 39.875 52 29.9 Q52 18.6 50.35 12.05 Q48.7 5.5 44 2.1 Q39.3 -1.2 30 -1.2 Q20.7 -1.2 16 2.15 Q11.3 5.5 9.6 12 Q8 18.6 8 29.9 C8 43.2 8 59.825 8 69.8 C10.1 69.8 14.3 69.8 16.4 69.8 C16.4 59.325 16.4 38.375 16.4 27.9 z" />
<glyph unicode="" horiz-adv-x="60" d="M25.5 77.9 C27.625 82.15 31.875 90.65 34 94.9 C35.825 94.025 39.475 92.275 41.3 91.4 C38.65 87.425 33.35 79.475 30.7 75.5 C29.4 76.1 26.8 77.3 25.5 77.9 zM16.4 27.9 Q16.4 19.8 17.15 15.45 Q17.9 11.1 20.8 8.6 Q23.7 6.1 30 6.1 Q36.3 6.1 39.2 8.6 Q42.1 11.1 42.8 15.4 Q43.6 19.8 43.6 27.9 C43.6 41.86667 43.6 59.325 43.6 69.8 C45.7 69.8 49.9 69.8 52 69.8 C52 59.825 52 39.875 52 29.9 Q52 18.6 50.35 12.05 Q48.7 5.5 44 2.1 Q39.3 -1.2 30 -1.2 Q20.7 -1.2 16 2.15 Q11.3 5.5 9.6 12 Q8 18.6 8 29.9 C8 43.2 8 59.825 8 69.8 C10.1 69.8 14.3 69.8 16.4 69.8 C16.4 59.325 16.4 38.375 16.4 27.9 z" />
<glyph unicode="" horiz-adv-x="60" d="M46.1 79.2 C44.975 78.425 42.725 76.875 41.6 76.1 C38.675 79.025 32.825 84.875 29.9 87.8 C26.975 84.875 21.125 79.025 18.2 76.1 C17.125 76.875 14.975 78.425 13.9 79.2 C16.675 82.775 22.225 89.925 25 93.5 C27.5 93.5 32.5 93.5 35 93.5 C37.775 89.925 43.325 82.775 46.1 79.2 zM16.4 27.9 Q16.4 19.8 17.15 15.45 Q17.9 11.1 20.8 8.6 Q23.7 6.1 30 6.1 Q36.3 6.1 39.2 8.6 Q42.1 11.1 42.8 15.4 Q43.6 19.8 43.6 27.9 C43.6 41.86667 43.6 59.325 43.6 69.8 C45.7 69.8 49.9 69.8 52 69.8 C52 59.825 52 39.875 52 29.9 Q52 18.6 50.35 12.05 Q48.7 5.5 44 2.1 Q39.3 -1.2 30 -1.2 Q20.7 -1.2 16 2.15 Q11.3 5.5 9.6 12 Q8 18.6 8 29.9 C8 43.2 8 59.825 8 69.8 C10.1 69.8 14.3 69.8 16.4 69.8 C16.4 59.325 16.4 38.375 16.4 27.9 z" />
<glyph unicode="" horiz-adv-x="60" d="M16.4 80 Q15 81.3 15 83.4 C15 83.86667 15 84.45 15 84.8 Q15 86.9 16.4 88.15 Q17.8 89.4 20.7 89.4 Q23.6 89.4 25 88.15 Q26.4 86.9 26.4 84.8 C26.4 84.33333 26.4 83.75 26.4 83.4 Q26.4 81.3 25 80.05 Q23.6 78.8 20.7 78.8 Q17.8 78.8 16.4 80 zM35 80 Q33.6 81.3 33.6 83.4 C33.6 83.86667 33.6 84.45 33.6 84.8 Q33.6 86.9 35 88.15 Q36.4 89.4 39.3 89.4 Q42.2 89.4 43.6 88.15 Q45 86.9 45 84.8 C45 84.33333 45 83.75 45 83.4 Q45 81.3 43.6 80.05 Q42.2 78.8 39.3 78.8 Q36.4 78.8 35 80 zM16.4 27.9 Q16.4 19.8 17.15 15.45 Q17.9 11.1 20.8 8.6 Q23.7 6.1 30 6.1 Q36.3 6.1 39.2 8.6 Q42.1 11.1 42.8 15.4 Q43.6 19.8 43.6 27.9 C43.6 41.86667 43.6 59.325 43.6 69.8 C45.7 69.8 49.9 69.8 52 69.8 C52 59.825 52 39.875 52 29.9 Q52 18.6 50.35 12.05 Q48.7 5.5 44 2.1 Q39.3 -1.2 30 -1.2 Q20.7 -1.2 16 2.15 Q11.3 5.5 9.6 12 Q8 18.6 8 29.9 C8 43.2 8 59.825 8 69.8 C10.1 69.8 14.3 69.8 16.4 69.8 C16.4 59.325 16.4 38.375 16.4 27.9 z" />
<glyph unicode="" horiz-adv-x="60" d="M25.5 77.9 C27.625 82.15 31.875 90.65 34 94.9 C35.825 94.025 39.475 92.275 41.3 91.4 C38.65 87.425 33.35 79.475 30.7 75.5 C29.4 76.1 26.8 77.3 25.5 77.9 zM25.8 27.4 C19.775 38 7.725 59.2 1.7 69.8 C4.1 69.8 8.9 69.8 11.3 69.8 C13.8 65.25 18.8 56.15 21.3 51.6 C23.425 47.625 27.675 39.675 29.8 35.7 C29.9 35.7 30.1 35.7 30.2 35.7 C34.875 44.225 44.225 61.275 48.9 69.8 C51.25 69.8 55.95 69.8 58.3 69.8 C52.275 59.2 40.225 38 34.2 27.4 C34.2 20.55 34.2 6.85 34.2 0 C32.1 0 27.9 0 25.8 0 C25.8 6.85 25.8 20.55 25.8 27.4 z" />
<glyph unicode="" horiz-adv-x="60" d="M9 69.8 C11.1 69.8 15.3 69.8 17.4 69.8 C17.4 66.175 17.4 58.925 17.4 55.3 C21.65 55.3 30.15 55.3 34.4 55.3 Q43.9 55.3 49.1 50 Q54.3 44.7 54.3 35.4 Q54.3 26.1 49.1 20.8 Q43.9 15.5 34.4 15.5 C28.73333 15.5 21.65 15.5 17.4 15.5 C17.4 11.625 17.4 3.875 17.4 0 C15.3 0 11.1 0 9 0 C9 17.45 9 52.35 9 69.8 zM34.4 22.8 Q39.7 22.8 42.65 25.4 Q45.6 28 45.6 32.8 C45.6 34.53333 45.6 36.7 45.6 38 Q45.6 42.8 42.65 45.4 Q39.7 48 34.4 48 C28.73333 48 21.65 48 17.4 48 C17.4 41.7 17.4 29.1 17.4 22.8 C21.65 22.8 30.15 22.8 34.4 22.8 z" />
<glyph unicode="" horiz-adv-x="60" d="M2.8 44.8 C2.8 46.5 2.8 49.9 2.8 51.6 C4.65 51.6 8.35 51.6 10.2 51.6 C10.2 51.725 10.2 51.975 10.2 52.1 Q10.2 62.7 15.6 68.95 Q21 75.2 30.6 75.2 Q40.1 75.2 45.25 69 Q50.4 62.8 50.4 52.1 C50.4 50.06667 50.4 47.525 50.4 46 C49.225 46 46.875 46 45.7 46 Q39.5 46 36.4 44.05 Q33.3 42.1 33.3 37.7 Q33.3 34.4 35.1 32.85 Q36.9 31.3 41 29.9 C41.8 29.63333 42.8 29.3 43.4 29.1 Q50.8 26.7 54 23.4 Q57.2 20.1 57.2 14 Q57.2 6.5 52.7 2.65 Q48.2 -1.2 40 -1.2 Q34.5 -1.2 30.5 0.6 Q26.5 2.4 23.4 6.4 C25.1 7.93333 27.225 9.85 28.5 11 Q32.8 5.2 40.5 5.2 Q45.1 5.2 47.4 7.15 Q49.7 9.1 49.7 13.2 Q49.7 20 42.9 22.1 C42.06667 22.36667 41.025 22.7 40.4 22.9 Q35.5 24.5 32.6 25.9 Q29.7 27.3 27.7 30 Q25.8 32.8 25.8 37.4 Q25.8 44.3 30.3 48.05 Q34.8 51.8 42.6 52 C42.6 52.26667 42.6 52.6 42.6 52.8 Q42.6 60.8 39.65 64.65 Q36.7 68.5 30.5 68.5 Q24.2 68.5 21.15 64.6 Q18.1 60.7 18.1 52.8 C18.1 35.2 18.1 13.2 18.1 0 C16.125 0 12.175 0 10.2 0 C10.2 11.2 10.2 33.6 10.2 44.8 C8.35 44.8 4.65 44.8 2.8 44.8 z" />
<glyph unicode="" horiz-adv-x="60" d="M24.3 77.9 C26.425 73.65 30.675 65.15 32.8 60.9 C31.5 60.3 28.9 59.1 27.6 58.5 C24.95 62.475 19.65 70.425 17 74.4 C18.825 75.275 22.475 77.025 24.3 77.9 zM40.3 8.4 C40.30751 8.4 40.32253 8.4 40.33004 8.4 Q36.73004 -1.2 24.3 -1.2 Q16.2 -1.2 11.4 3 Q6.6 7.2 6.6 14.5 Q6.6 29.5 28.8 29.5 C32.46667 29.5 37.05 29.5 39.8 29.5 C39.8 30.775 39.8 33.325 39.8 34.6 Q39.8 40.2 36.6 43.1 Q33.4 46 27.5 46 Q19.07 46.34 12.92 42.78 C12.38 45.15333 11.705 48.12 11.3 49.9 Q14.99 51.62 17.795 52.21 Q20.6 52.8 28 52.8 Q37.1 52.8 42.45 48.15 Q47.8 43.5 47.8 35.4 Q47.82513 26.20977 47.55 17.88211 Q47.27487 9.55445 47.87539 7.82932 Q48.78272 6.9911 50.78062 6.9911 Q52.77853 6.9911 55 7 C55 4.66667 55 1.75 55 0 C53.625 0 50.875 0 49.5 0 Q42.97749 0.13037 41.43194 1.71362 Q39.88639 3.29686 40.3 8.4 zM35.8 8.2 Q39.8 11 39.8 15 C39.8 17.83333 39.8 21.375 39.8 23.5 C37.05 23.5 31.55 23.5 28.8 23.5 Q15 23.5 15 15.7 C15 15 15 14.125 15 13.6 Q15 9.7 17.85 7.6 Q20.7 5.5 25.7 5.5 Q31.8 5.5 35.8 8.2 z" />
<glyph unicode="" horiz-adv-x="60" d="M23.8 60.9 C25.925 65.15 30.175 73.65 32.3 77.9 C34.125 77.025 37.775 75.275 39.6 74.4 C36.95 70.425 31.65 62.475 29 58.5 C27.7 59.1 25.1 60.3 23.8 60.9 zM40.32117 8.45309 C40.32868 8.45309 40.3437 8.45309 40.35121 8.45309 Q36.75121 -1.14691 24.32117 -1.14691 Q16.22117 -1.14691 11.42117 3.05309 Q6.62117 7.25309 6.62117 14.55309 Q6.62117 29.55309 28.82117 29.55309 C32.48784 29.55309 37.07117 29.55309 39.82117 29.55309 C39.82117 30.82809 39.82117 33.37809 39.82117 34.65309 Q39.82117 40.25309 36.62117 43.15309 Q33.42117 46.05309 27.52117 46.05309 Q19.09117 46.39309 12.94117 42.83309 C12.40117 45.20642 11.72617 48.17309 11.32117 49.95309 Q15.01117 51.67309 17.81617 52.26309 Q20.62117 52.85309 28.02117 52.85309 Q37.12117 52.85309 42.47117 48.20309 Q47.82117 43.55309 47.82117 35.45309 Q47.8463 26.26286 47.57117 17.9352 Q47.29604 9.60754 47.89656 7.88241 Q48.80389 7.04419 50.80179 7.04419 Q52.7997 7.04419 55.02117 7.05309 C55.02117 4.71976 55.02117 1.80309 55.02117 0.05309 C53.64617 0.05309 50.89617 0.05309 49.52117 0.05309 Q42.99866 0.18346 41.45311 1.76671 Q39.90756 3.34995 40.32117 8.45309 zM35.82117 8.25309 Q39.82117 11.05309 39.82117 15.05309 C39.82117 17.88642 39.82117 21.42809 39.82117 23.55309 C37.07117 23.55309 31.57117 23.55309 28.82117 23.55309 Q15.02117 23.55309 15.02117 15.75309 C15.02117 15.05309 15.02117 14.17809 15.02117 13.65309 Q15.02117 9.75309 17.87117 7.65309 Q20.72117 5.55309 25.72117 5.55309 Q31.82117 5.55309 35.82117 8.25309 z" />
<glyph unicode="" horiz-adv-x="60" d="M44.4 62.2 C43.275 61.425 41.025 59.875 39.9 59.1 C36.975 62.025 31.125 67.875 28.2 70.8 C25.275 67.875 19.425 62.025 16.5 59.1 C15.425 59.875 13.275 61.425 12.2 62.2 C14.975 65.775 20.525 72.925 23.3 76.5 C25.8 76.5 30.8 76.5 33.3 76.5 C36.075 72.925 41.625 65.775 44.4 62.2 zM40.28748 8.42487 C40.29499 8.42487 40.31001 8.42487 40.31752 8.42487 Q36.71752 -1.17513 24.28748 -1.17513 Q16.18748 -1.17513 11.38748 3.02487 Q6.58748 7.22487 6.58748 14.52487 Q6.58748 29.52487 28.78748 29.52487 C32.45415 29.52487 37.03748 29.52487 39.78748 29.52487 C39.78748 30.79987 39.78748 33.34987 39.78748 34.62487 Q39.78748 40.22487 36.58748 43.12487 Q33.38748 46.02487 27.48748 46.02487 Q19.05748 46.36487 12.90748 42.80487 C12.36748 45.1782 11.69248 48.14487 11.28748 49.92487 Q14.97748 51.64487 17.78248 52.23487 Q20.58748 52.82487 27.98748 52.82487 Q37.08748 52.82487 42.43748 48.17487 Q47.78748 43.52487 47.78748 35.42487 Q47.81261 26.23464 47.53748 17.90698 Q47.26235 9.57932 47.86287 7.85419 Q48.7702 7.01597 50.7681 7.01597 Q52.76601 7.01597 54.98748 7.02487 C54.98748 4.69154 54.98748 1.77487 54.98748 0.02487 C53.61248 0.02487 50.86248 0.02487 49.48748 0.02487 Q42.96497 0.15524 41.41942 1.73848 Q39.87387 3.32173 40.28748 8.42487 zM35.78748 8.22487 Q39.78748 11.02487 39.78748 15.02487 C39.78748 17.8582 39.78748 21.39987 39.78748 23.52487 C37.03748 23.52487 31.53748 23.52487 28.78748 23.52487 Q14.98748 23.52487 14.98748 15.72487 C14.98748 15.02487 14.98748 14.14987 14.98748 13.62487 Q14.98748 9.72487 17.83748 7.62487 Q20.68748 5.52487 25.68748 5.52487 Q31.78748 5.52487 35.78748 8.22487 z" />
<glyph unicode="" horiz-adv-x="60" d="M31.9 61.8 Q30.3 62.4 29.1 63 Q27.9 63.6 27.6 63.8 Q23.1 66.2 20.6 66.2 Q19.1 66.2 17.75 65.55 Q16.4 64.9 14.8 63.5 C13.7 64.83333 12.325 66.5 11.5 67.5 Q13 69.8 15.4 71.3 Q17.8 72.8 21 72.8 Q23.1 72.8 24.7 72.2 Q26.3 71.6 27.5 71 Q28.7 70.4 29 70.2 Q33.5 67.8 36 67.8 Q37.6 67.8 38.9 68.45 Q40.2 69.1 41.8 70.5 C42.9 69.16667 44.275 67.5 45.1 66.5 Q43.6 64.2 41.2 62.7 Q38.8 61.2 35.6 61.2 Q33.5 61.2 31.9 61.8 zM40.3228 8.39356 C40.33031 8.39356 40.34533 8.39356 40.35284 8.39356 Q36.75284 -1.20644 24.3228 -1.20644 Q16.2228 -1.20644 11.4228 2.99356 Q6.6228 7.19356 6.6228 14.49356 Q6.6228 29.49356 28.8228 29.49356 C32.48947 29.49356 37.0728 29.49356 39.8228 29.49356 C39.8228 30.76856 39.8228 33.31856 39.8228 34.59356 Q39.8228 40.19356 36.6228 43.09356 Q33.4228 45.99356 27.5228 45.99356 Q19.0928 46.33356 12.9428 42.77356 C12.4028 45.14689 11.7278 48.11356 11.3228 49.89356 Q15.0128 51.61356 17.8178 52.20356 Q20.6228 52.79356 28.0228 52.79356 Q37.1228 52.79356 42.4728 48.14356 Q47.8228 43.49356 47.8228 35.39356 Q47.84793 26.20333 47.5728 17.87567 Q47.29767 9.54801 47.89819 7.82288 Q48.80552 6.98466 50.80343 6.98466 Q52.80133 6.98466 55.0228 6.99356 C55.0228 4.66023 55.0228 1.74356 55.0228 -0.00644 C53.6478 -0.00644 50.8978 -0.00644 49.5228 -0.00644 Q43.00029 0.12393 41.45474 1.70718 Q39.90919 3.29042 40.3228 8.39356 zM35.8228 8.19356 Q39.8228 10.99356 39.8228 14.99356 C39.8228 17.82689 39.8228 21.36856 39.8228 23.49356 C37.0728 23.49356 31.5728 23.49356 28.8228 23.49356 Q15.0228 23.49356 15.0228 15.69356 C15.0228 14.99356 15.0228 14.11856 15.0228 13.59356 Q15.0228 9.69356 17.8728 7.59356 Q20.7228 5.49356 25.7228 5.49356 Q31.8228 5.49356 35.8228 8.19356 z" />
<glyph unicode="" horiz-adv-x="60" d="M14.7 63 Q13.3 64.3 13.3 66.4 C13.3 66.86667 13.3 67.45 13.3 67.8 Q13.3 69.9 14.7 71.15 Q16.1 72.4 19 72.4 Q21.9 72.4 23.3 71.15 Q24.7 69.9 24.7 67.8 C24.7 67.33333 24.7 66.75 24.7 66.4 Q24.7 64.3 23.3 63.05 Q21.9 61.8 19 61.8 Q16.1 61.8 14.7 63 zM33.3 63 Q31.9 64.3 31.9 66.4 C31.9 66.86667 31.9 67.45 31.9 67.8 Q31.9 69.9 33.3 71.15 Q34.7 72.4 37.6 72.4 Q40.5 72.4 41.9 71.15 Q43.3 69.9 43.3 67.8 C43.3 67.33333 43.3 66.75 43.3 66.4 Q43.3 64.3 41.9 63.05 Q40.5 61.8 37.6 61.8 Q34.7 61.8 33.3 63 zM40.31607 8.43681 C40.32358 8.43681 40.3386 8.43681 40.34611 8.43681 Q36.74611 -1.16319 24.31607 -1.16319 Q16.21607 -1.16319 11.41607 3.03681 Q6.61607 7.23681 6.61607 14.53681 Q6.61607 29.53681 28.81607 29.53681 C32.48274 29.53681 37.06607 29.53681 39.81607 29.53681 C39.81607 30.81181 39.81607 33.36181 39.81607 34.63681 Q39.81607 40.23681 36.61607 43.13681 Q33.41607 46.03681 27.51607 46.03681 Q19.08607 46.37681 12.93607 42.81681 C12.39607 45.19014 11.72107 48.15681 11.31607 49.93681 Q15.00607 51.65681 17.81107 52.24681 Q20.61607 52.83681 28.01607 52.83681 Q37.11607 52.83681 42.46607 48.18681 Q47.81607 43.53681 47.81607 35.43681 Q47.8412 26.24658 47.56607 17.91892 Q47.29094 9.59126 47.89146 7.86613 Q48.79879 7.02791 50.79669 7.02791 Q52.7946 7.02791 55.01607 7.03681 C55.01607 4.70348 55.01607 1.78681 55.01607 0.03681 C53.64107 0.03681 50.89107 0.03681 49.51607 0.03681 Q42.99356 0.16718 41.44801 1.75042 Q39.90246 3.33367 40.31607 8.43681 zM35.81607 8.23681 Q39.81607 11.03681 39.81607 15.03681 C39.81607 17.87014 39.81607 21.41181 39.81607 23.53681 C37.06607 23.53681 31.56607 23.53681 28.81607 23.53681 Q15.01607 23.53681 15.01607 15.73681 C15.01607 15.03681 15.01607 14.16181 15.01607 13.63681 Q15.01607 9.73681 17.86607 7.63681 Q20.71607 5.53681 25.71607 5.53681 Q31.81607 5.53681 35.81607 8.23681 z" />
<glyph unicode="" horiz-adv-x="60" d="M20 60.9 Q16.7 64.2 16.7 69.1 Q16.7 74 20.05 77.3 Q23.4 80.6 28.3 80.6 Q33.2 80.6 36.55 77.3 Q39.9 74 39.9 69.1 Q39.9 64.2 36.55 60.9 Q33.2 57.6 28.3 57.6 Q23.4 57.6 20 60.9 zM32.5 63.9 Q34.1 65.4 34.1 68 C34.1 68.73333 34.1 69.65 34.1 70.2 Q34.1 72.8 32.55 74.25 Q31 75.7 28.3 75.7 Q25.6 75.7 24.05 74.25 Q22.5 72.8 22.5 70.2 C22.5 69.46667 22.5 68.55 22.5 68 Q22.5 65.4 24.05 63.95 Q25.6 62.5 28.3 62.5 Q31 62.5 32.5 63.9 zM40.3475 8.45319 C40.35501 8.45319 40.37003 8.45319 40.37754 8.45319 Q36.77754 -1.14681 24.3475 -1.14681 Q16.2475 -1.14681 11.4475 3.05319 Q6.6475 7.25319 6.6475 14.55319 Q6.6475 29.55319 28.8475 29.55319 C32.51417 29.55319 37.0975 29.55319 39.8475 29.55319 C39.8475 30.82819 39.8475 33.37819 39.8475 34.65319 Q39.8475 40.25319 36.6475 43.15319 Q33.4475 46.05319 27.5475 46.05319 Q19.1175 46.39319 12.9675 42.83319 C12.4275 45.20652 11.7525 48.17319 11.3475 49.95319 Q15.0375 51.67319 17.8425 52.26319 Q20.6475 52.85319 28.0475 52.85319 Q37.1475 52.85319 42.4975 48.20319 Q47.8475 43.55319 47.8475 35.45319 Q47.87263 26.26296 47.5975 17.9353 Q47.32237 9.60764 47.92289 7.88251 Q48.83022 7.04429 50.82812 7.04429 Q52.82603 7.04429 55.0475 7.05319 C55.0475 4.71986 55.0475 1.80319 55.0475 0.05319 C53.6725 0.05319 50.9225 0.05319 49.5475 0.05319 Q43.02499 0.18356 41.47944 1.7668 Q39.93389 3.35005 40.3475 8.45319 zM35.8475 8.25319 Q39.8475 11.05319 39.8475 15.05319 C39.8475 17.88652 39.8475 21.42819 39.8475 23.55319 C37.0975 23.55319 31.5975 23.55319 28.8475 23.55319 Q15.0475 23.55319 15.0475 15.75319 C15.0475 15.05319 15.0475 14.17819 15.0475 13.65319 Q15.0475 9.75319 17.8975 7.65319 Q20.7475 5.55319 25.7475 5.55319 Q31.8475 5.55319 35.8475 8.25319 z" />
<glyph unicode="" horiz-adv-x="90" d="M76.1 14.6 C77.525 13.6 80.375 11.6 81.8 10.6 Q79.3 5.2 74.1 2 Q68.9 -1.2 62.3 -1.2 Q57.2 -1.2 53.05 0.65 Q48.9 2.5 46.3 5.2 Q43.8 7.9 43.2 10.4 C43 10.4 42.75 10.4 42.6 10.4 Q42.1 8 39.65 5.3 Q37.2 2.6 33 0.7 Q28.9 -1.2 23.5 -1.2 Q15.7 -1.2 11.05 3 Q6.4 7.2 6.4 14.2 Q6.4 21.7 12 25.75 Q17.6 29.8 28.4 29.8 C31.8 29.8 36.05 29.8 38.6 29.8 C38.6 31 38.6 33.4 38.6 34.6 Q38.6 40.1 35.55 43 Q32.5 45.9 26.7 45.9 Q25 46 22 46 Q19 46 12 43 C11.33333 45 10.5 47.5 10 49 Q14 51 17.1 51.9 Q20.2 52.8 26.9 52.8 Q34.7 52.8 38.35 49.25 Q42 45.7 43.1 41.3 C43.3 41.3 43.55 41.3 43.7 41.3 Q44.3 43.8 46.85 46.45 Q49.4 49.1 53.4 50.9 Q57.4 52.8 62.3 52.8 Q68.7 52.8 73.55 49.55 Q78.4 46.3 81 40.6 Q83.7 34.9 83.7 27.6 C83.7 26.33333 83.7 24.75 83.7 23.8 C74.425 23.8 55.875 23.8 46.6 23.8 C46.6 23.2 46.6 22 46.6 21.4 Q46.6 14.6 50.75 10.2 Q54.9 5.8 61.9 5.8 Q71.8 5.8 76.1 14.6 zM75.1 30.9 Q75.1 37.7 71.35 41.9 Q67.6 46.1 61.4 46.1 Q54.9 46.1 50.75 41.7 Q46.6 37.3 46.6 30.5 C46.6 30.26667 46.6 29.975 46.6 29.8 C53.725 29.8 67.975 29.8 75.1 29.8 C75.1 30.075 75.1 30.625 75.1 30.9 zM14.8 15.7 C14.8 15.175 14.8 14.125 14.8 13.6 Q14.8 9.8 17.55 7.7 Q20.3 5.6 25.1 5.6 Q30.9 5.6 34.75 8.3 Q38.6 11 38.6 15 C38.6 17.93333 38.6 21.6 38.6 23.8 C35.95 23.8 30.65 23.8 28 23.8 Q21 24 18 23 Q15 22 14.8 15.7 z" />
<glyph unicode="" horiz-adv-x="60" d="M43.7 49.6 Q48.5 46.4 50.8 40.9 C48.66667 39.76667 46 38.35 44.4 37.5 Q43 41.5 39.7 43.7 Q36.4 45.9 31.7 45.9 Q24.8 45.9 20.9 41.55 Q17 37.2 17 30.2 C17 27.26667 17 23.6 17 21.4 Q17 14.4 20.9 10.05 Q24.8 5.7 31.9 5.7 Q41.7 5.7 45.9 14.7 C47.8 13.4 50.175 11.775 51.6 10.8 Q49.2 5.4 44.45 2.2 Q39.7 -1 32.6 -1.2 C32.26667 -2.83333 31.85 -4.875 31.6 -6.1 C31.675 -6.175 31.825 -6.325 31.9 -6.4 Q33.9 -5.8 35.8 -5.8 Q38.8 -5.8 40.7 -7.55 Q42.6 -9.3 42.6 -12.4 Q42.6 -16.5 39.45 -18.6 Q36.3 -20.7 31.5 -20.7 Q27.8 -20.7 25.3 -19.5 Q22.8 -18.3 21.6 -16.6 C22.86667 -15.23333 24.45 -13.525 25.4 -12.5 Q27.6 -15.3 31.5 -15.3 Q33.5 -15.3 34.7 -14.5 Q35.9 -13.7 35.9 -12.2 Q35.9 -10.7 34.45 -9.7 Q33 -8.7 29.1 -8.1 C28.16667 -7.96667 27 -7.8 26.3 -7.7 C26.65 -6 27.35 -2.6 27.7 -0.9 Q18.6 0.4 13.5 7.55 Q8.4 14.7 8.4 25.8 Q8.4 38.2 14.6 45.5 Q20.8 52.8 31.7 52.8 Q38.9 52.8 43.7 49.6 z" />
<glyph unicode="" horiz-adv-x="60" d="M26.2 77.9 C28.325 73.65 32.575 65.15 34.7 60.9 C33.4 60.3 30.8 59.1 29.5 58.5 C26.85 62.475 21.55 70.425 18.9 74.4 C20.725 75.275 24.375 77.025 26.2 77.9 zM18.1 2.1 Q12.6 5.4 9.65 11.5 Q6.7 17.6 6.7 25.7 Q6.7 33.8 9.7 39.95 Q12.7 46.1 18 49.4 Q23.4 52.8 30.4 52.8 Q37.2 52.8 42.4 49.55 Q47.6 46.3 50.4 40.6 Q53.3 34.9 53.3 27.6 C53.3 26.33333 53.3 24.75 53.3 23.8 C43.75 23.8 24.65 23.8 15.1 23.8 C15.1 23.2 15.1 22 15.1 21.4 Q15.1 14.5 19.4 10.1 Q23.7 5.7 30.9 5.7 Q36 5.7 39.8 8.05 Q43.6 10.4 45.7 14.7 C47.66667 13.36667 50.125 11.7 51.6 10.7 Q49.2 5.3 43.75 2.05 Q38.3 -1.2 30.9 -1.2 Q23.6 -1.2 18.1 2.1 zM22.6 44.1 Q19.1 42.1 17.1 38.5 Q15.1 34.9 15.1 30.5 C15.1 30.26667 15.1 29.975 15.1 29.8 C22.5 29.8 37.3 29.8 44.7 29.8 C44.7 30.075 44.7 30.625 44.7 30.9 Q44.7 37.7 40.75 41.95 Q36.8 46.2 30.4 46.2 Q26.1 46.2 22.6 44.1 z" />
<glyph unicode="" horiz-adv-x="60" d="M25.7 60.9 C27.825 65.15 32.075 73.65 34.2 77.9 C36.025 77.025 39.675 75.275 41.5 74.4 C38.85 70.425 33.55 62.475 30.9 58.5 C29.6 59.1 27 60.3 25.7 60.9 zM18.1 2.1 Q12.6 5.4 9.65 11.5 Q6.7 17.6 6.7 25.7 Q6.7 33.8 9.7 39.95 Q12.7 46.1 18 49.4 Q23.4 52.8 30.4 52.8 Q37.2 52.8 42.4 49.55 Q47.6 46.3 50.4 40.6 Q53.3 34.9 53.3 27.6 C53.3 26.33333 53.3 24.75 53.3 23.8 C43.75 23.8 24.65 23.8 15.1 23.8 C15.1 23.2 15.1 22 15.1 21.4 Q15.1 14.5 19.4 10.1 Q23.7 5.7 30.9 5.7 Q36 5.7 39.8 8.05 Q43.6 10.4 45.7 14.7 C47.66667 13.36667 50.125 11.7 51.6 10.7 Q49.2 5.3 43.75 2.05 Q38.3 -1.2 30.9 -1.2 Q23.6 -1.2 18.1 2.1 zM22.6 44.1 Q19.1 42.1 17.1 38.5 Q15.1 34.9 15.1 30.5 C15.1 30.26667 15.1 29.975 15.1 29.8 C22.5 29.8 37.3 29.8 44.7 29.8 C44.7 30.075 44.7 30.625 44.7 30.9 Q44.7 37.7 40.75 41.95 Q36.8 46.2 30.4 46.2 Q26.1 46.2 22.6 44.1 z" />
<glyph unicode="" horiz-adv-x="60" d="M46.3 62.2 C45.175 61.425 42.925 59.875 41.8 59.1 C38.875 62.025 33.025 67.875 30.1 70.8 C27.175 67.875 21.325 62.025 18.4 59.1 C17.325 59.875 15.175 61.425 14.1 62.2 C16.875 65.775 22.425 72.925 25.2 76.5 C27.7 76.5 32.7 76.5 35.2 76.5 C37.975 72.925 43.525 65.775 46.3 62.2 zM18.1 2.1 Q12.6 5.4 9.65 11.5 Q6.7 17.6 6.7 25.7 Q6.7 33.8 9.7 39.95 Q12.7 46.1 18 49.4 Q23.4 52.8 30.4 52.8 Q37.2 52.8 42.4 49.55 Q47.6 46.3 50.4 40.6 Q53.3 34.9 53.3 27.6 C53.3 26.33333 53.3 24.75 53.3 23.8 C43.75 23.8 24.65 23.8 15.1 23.8 C15.1 23.2 15.1 22 15.1 21.4 Q15.1 14.5 19.4 10.1 Q23.7 5.7 30.9 5.7 Q36 5.7 39.8 8.05 Q43.6 10.4 45.7 14.7 C47.66667 13.36667 50.125 11.7 51.6 10.7 Q49.2 5.3 43.75 2.05 Q38.3 -1.2 30.9 -1.2 Q23.6 -1.2 18.1 2.1 zM22.6 44.1 Q19.1 42.1 17.1 38.5 Q15.1 34.9 15.1 30.5 C15.1 30.26667 15.1 29.975 15.1 29.8 C22.5 29.8 37.3 29.8 44.7 29.8 C44.7 30.075 44.7 30.625 44.7 30.9 Q44.7 37.7 40.75 41.95 Q36.8 46.2 30.4 46.2 Q26.1 46.2 22.6 44.1 z" />
<glyph unicode="" horiz-adv-x="60" d="M16.6 63 Q15.2 64.3 15.2 66.4 C15.2 66.86667 15.2 67.45 15.2 67.8 Q15.2 69.9 16.6 71.15 Q18 72.4 20.9 72.4 Q23.8 72.4 25.2 71.15 Q26.6 69.9 26.6 67.8 C26.6 67.33333 26.6 66.75 26.6 66.4 Q26.6 64.3 25.2 63.05 Q23.8 61.8 20.9 61.8 Q18 61.8 16.6 63 zM35.2 63 Q33.8 64.3 33.8 66.4 C33.8 66.86667 33.8 67.45 33.8 67.8 Q33.8 69.9 35.2 71.15 Q36.6 72.4 39.5 72.4 Q42.4 72.4 43.8 71.15 Q45.2 69.9 45.2 67.8 C45.2 67.33333 45.2 66.75 45.2 66.4 Q45.2 64.3 43.8 63.05 Q42.4 61.8 39.5 61.8 Q36.6 61.8 35.2 63 zM18.1 2.1 Q12.6 5.4 9.65 11.5 Q6.7 17.6 6.7 25.7 Q6.7 33.8 9.7 39.95 Q12.7 46.1 18 49.4 Q23.4 52.8 30.4 52.8 Q37.2 52.8 42.4 49.55 Q47.6 46.3 50.4 40.6 Q53.3 34.9 53.3 27.6 C53.3 26.33333 53.3 24.75 53.3 23.8 C43.75 23.8 24.65 23.8 15.1 23.8 C15.1 23.2 15.1 22 15.1 21.4 Q15.1 14.5 19.4 10.1 Q23.7 5.7 30.9 5.7 Q36 5.7 39.8 8.05 Q43.6 10.4 45.7 14.7 C47.66667 13.36667 50.125 11.7 51.6 10.7 Q49.2 5.3 43.75 2.05 Q38.3 -1.2 30.9 -1.2 Q23.6 -1.2 18.1 2.1 zM22.6 44.1 Q19.1 42.1 17.1 38.5 Q15.1 34.9 15.1 30.5 C15.1 30.26667 15.1 29.975 15.1 29.8 C22.5 29.8 37.3 29.8 44.7 29.8 C44.7 30.075 44.7 30.625 44.7 30.9 Q44.7 37.7 40.75 41.95 Q36.8 46.2 30.4 46.2 Q26.1 46.2 22.6 44.1 z" />
<glyph unicode="" horiz-adv-x="60" d="M29.2 77.9 C31.325 73.65 35.575 65.15 37.7 60.9 C36.4 60.3 33.8 59.1 32.5 58.5 C29.85 62.475 24.55 70.425 21.9 74.4 C23.725 75.275 27.375 77.025 29.2 77.9 zM29.2 6.8 C29.2 16.3 29.2 35.3 29.2 44.8 C24.55 44.8 15.25 44.8 10.6 44.8 C10.6 46.5 10.6 49.9 10.6 51.6 C17.25 51.6 30.55 51.6 37.2 51.6 C37.2 40.4 37.2 18 37.2 6.8 C41.55 6.8 50.25 6.8 54.6 6.8 C54.6 5.1 54.6 1.7 54.6 0 C43.6 0 21.6 0 10.6 0 C10.6 1.7 10.6 5.1 10.6 6.8 C15.25 6.8 24.55 6.8 29.2 6.8 z" />
<glyph unicode="" horiz-adv-x="60" d="M28.7 60.9 C30.825 65.15 35.075 73.65 37.2 77.9 C39.025 77.025 42.675 75.275 44.5 74.4 C41.85 70.425 36.55 62.475 33.9 58.5 C32.6 59.1 30 60.3 28.7 60.9 zM29.2 6.8 C29.2 16.3 29.2 35.3 29.2 44.8 C24.55 44.8 15.25 44.8 10.6 44.8 C10.6 46.5 10.6 49.9 10.6 51.6 C17.25 51.6 30.55 51.6 37.2 51.6 C37.2 40.4 37.2 18 37.2 6.8 C41.55 6.8 50.25 6.8 54.6 6.8 C54.6 5.1 54.6 1.7 54.6 0 C43.6 0 21.6 0 10.6 0 C10.6 1.7 10.6 5.1 10.6 6.8 C15.25 6.8 24.55 6.8 29.2 6.8 z" />
<glyph unicode="" horiz-adv-x="60" d="M49.3 62.2 C48.175 61.425 45.925 59.875 44.8 59.1 C41.875 62.025 36.025 67.875 33.1 70.8 C30.175 67.875 24.325 62.025 21.4 59.1 C20.325 59.875 18.175 61.425 17.1 62.2 C19.875 65.775 25.425 72.925 28.2 76.5 C30.7 76.5 35.7 76.5 38.2 76.5 C40.975 72.925 46.525 65.775 49.3 62.2 zM29.2 6.8 C29.2 16.3 29.2 35.3 29.2 44.8 C24.55 44.8 15.25 44.8 10.6 44.8 C10.6 46.5 10.6 49.9 10.6 51.6 C17.25 51.6 30.55 51.6 37.2 51.6 C37.2 40.4 37.2 18 37.2 6.8 C41.55 6.8 50.25 6.8 54.6 6.8 C54.6 5.1 54.6 1.7 54.6 0 C43.6 0 21.6 0 10.6 0 C10.6 1.7 10.6 5.1 10.6 6.8 C15.25 6.8 24.55 6.8 29.2 6.8 z" />
<glyph unicode="" horiz-adv-x="60" d="M19.6 63 Q18.2 64.3 18.2 66.4 C18.2 66.86667 18.2 67.45 18.2 67.8 Q18.2 69.9 19.6 71.15 Q21 72.4 23.9 72.4 Q26.8 72.4 28.2 71.15 Q29.6 69.9 29.6 67.8 C29.6 67.33333 29.6 66.75 29.6 66.4 Q29.6 64.3 28.2 63.05 Q26.8 61.8 23.9 61.8 Q21 61.8 19.6 63 zM38.2 63 Q36.8 64.3 36.8 66.4 C36.8 66.86667 36.8 67.45 36.8 67.8 Q36.8 69.9 38.2 71.15 Q39.6 72.4 42.5 72.4 Q45.4 72.4 46.8 71.15 Q48.2 69.9 48.2 67.8 C48.2 67.33333 48.2 66.75 48.2 66.4 Q48.2 64.3 46.8 63.05 Q45.4 61.8 42.5 61.8 Q39.6 61.8 38.2 63 zM29.2 6.8 C29.2 16.3 29.2 35.3 29.2 44.8 C24.55 44.8 15.25 44.8 10.6 44.8 C10.6 46.5 10.6 49.9 10.6 51.6 C17.25 51.6 30.55 51.6 37.2 51.6 C37.2 40.4 37.2 18 37.2 6.8 C41.55 6.8 50.25 6.8 54.6 6.8 C54.6 5.1 54.6 1.7 54.6 0 C43.6 0 21.6 0 10.6 0 C10.6 1.7 10.6 5.1 10.6 6.8 C15.25 6.8 24.55 6.8 29.2 6.8 z" />
<glyph unicode="" horiz-adv-x="60" d="M37.2 64.7 Q44.4 57.7 48.9 48.2 Q53.4 38.7 53.4 26.6 Q53.4 12.9 47.3 5.85 Q41.2 -1.2 30.3 -1.2 Q19.2 -1.2 12.9 5.75 Q6.6 12.7 6.6 24.6 Q6.6 32.3 9.35 38.15 Q12.1 44 16.9 47.2 Q21.8 50.4 28 50.4 Q38.7 50.4 44.5 40.8 C44.63333 40.86667 44.8 40.95 44.9 41 Q40.3 52.5 31.5 60.8 C28.2 58.46667 24.075 55.55 21.6 53.8 C20.65 54.925 18.75 57.175 17.8 58.3 C20.1 59.9 24.7 63.1 27 64.7 Q21.1 69.4 12.7 74 C16.9 74 22.15 74 25.3 74 Q29.8 71.1 32.7 68.8 C35.83333 70.96667 39.75 73.675 42.1 75.3 C43.05 74.175 44.95 71.925 45.9 70.8 C43.725 69.275 39.375 66.225 37.2 64.7 zM40.9 9.6 Q44.9 13.5 44.9 21.1 C44.9 23.43333 44.9 26.35 44.9 28.1 Q44.9 35.7 40.9 39.6 Q36.9 43.5 30 43.5 Q23.1 43.5 19.1 39.6 Q15.1 35.7 15.1 28.1 C15.1 25.76667 15.1 22.85 15.1 21.1 Q15.1 13.5 19.1 9.6 Q23.1 5.7 30 5.7 Q36.9 5.7 40.9 9.6 z" />
<glyph unicode="" horiz-adv-x="60" d="M33.9 61.8 Q32.3 62.4 31.1 63 Q29.9 63.6 29.6 63.8 Q25.1 66.2 22.6 66.2 Q21.1 66.2 19.75 65.55 Q18.4 64.9 16.8 63.5 C15.7 64.83333 14.325 66.5 13.5 67.5 Q15 69.8 17.4 71.3 Q19.8 72.8 23 72.8 Q25.1 72.8 26.7 72.2 Q28.3 71.6 29.5 71 Q30.7 70.4 31 70.2 Q35.5 67.8 38 67.8 Q39.6 67.8 40.9 68.45 Q42.2 69.1 43.8 70.5 C44.9 69.16667 46.275 67.5 47.1 66.5 Q45.6 64.2 43.2 62.7 Q40.8 61.2 37.6 61.2 Q35.5 61.2 33.9 61.8 zM9.8 51.6 C11.8 51.6 15.8 51.6 17.8 51.6 C17.8 49.5 17.8 45.3 17.8 43.2 C17.9 43.2 18.1 43.2 18.2 43.2 Q22.3 52.8 32.9 52.8 Q41.1 52.8 45.95 47.6 Q50.8 42.4 50.8 33.1 C50.8 22.06667 50.8 8.275 50.8 0 C48.8 0 44.8 0 42.8 0 C42.8 7.925 42.8 23.775 42.8 31.7 Q42.8 38.7 39.7 42.2 Q36.6 45.7 30.6 45.7 Q25.3 45.7 21.55 43.15 Q17.8 40.6 17.8 35.8 C17.8 23.86667 17.8 8.95 17.8 0 C15.8 0 11.8 0 9.8 0 C9.8 12.9 9.8 38.7 9.8 51.6 z" />
<glyph unicode="" horiz-adv-x="60" d="M26 77.9 C28.125 73.65 32.375 65.15 34.5 60.9 C33.2 60.3 30.6 59.1 29.3 58.5 C26.65 62.475 21.35 70.425 18.7 74.4 C20.525 75.275 24.175 77.025 26 77.9 zM17.5 2.1 Q12.3 5.4 9.45 11.5 Q6.6 17.6 6.6 25.8 Q6.6 34 9.45 40.1 Q12.3 46.2 17.5 49.5 Q22.8 52.8 30 52.8 Q37.2 52.8 42.45 49.5 Q47.7 46.2 50.5 40.1 Q53.4 34 53.4 25.8 Q53.4 17.6 50.55 11.5 Q47.7 5.4 42.4 2.1 Q37.2 -1.2 30 -1.2 Q22.8 -1.2 17.5 2.1 zM40.9 9.8 Q44.9 14 44.9 22.1 C44.9 24.56667 44.9 27.65 44.9 29.5 Q44.9 37.6 40.9 41.75 Q36.9 45.9 30 45.9 Q23.1 45.9 19.1 41.75 Q15.1 37.6 15.1 29.5 C15.1 27.03333 15.1 23.95 15.1 22.1 Q15.1 14 19.1 9.85 Q23.1 5.7 30 5.7 Q36.9 5.7 40.9 9.8 z" />
<glyph unicode="" horiz-adv-x="60" d="M25.5 60.9 C27.625 65.15 31.875 73.65 34 77.9 C35.825 77.025 39.475 75.275 41.3 74.4 C38.65 70.425 33.35 62.475 30.7 58.5 C29.4 59.1 26.8 60.3 25.5 60.9 zM17.5 2.1 Q12.3 5.4 9.45 11.5 Q6.6 17.6 6.6 25.8 Q6.6 34 9.45 40.1 Q12.3 46.2 17.5 49.5 Q22.8 52.8 30 52.8 Q37.2 52.8 42.45 49.5 Q47.7 46.2 50.5 40.1 Q53.4 34 53.4 25.8 Q53.4 17.6 50.55 11.5 Q47.7 5.4 42.4 2.1 Q37.2 -1.2 30 -1.2 Q22.8 -1.2 17.5 2.1 zM40.9 9.8 Q44.9 14 44.9 22.1 C44.9 24.56667 44.9 27.65 44.9 29.5 Q44.9 37.6 40.9 41.75 Q36.9 45.9 30 45.9 Q23.1 45.9 19.1 41.75 Q15.1 37.6 15.1 29.5 C15.1 27.03333 15.1 23.95 15.1 22.1 Q15.1 14 19.1 9.85 Q23.1 5.7 30 5.7 Q36.9 5.7 40.9 9.8 z" />
<glyph unicode="" horiz-adv-x="60" d="M46.1 62.2 C44.975 61.425 42.725 59.875 41.6 59.1 C38.675 62.025 32.825 67.875 29.9 70.8 C26.975 67.875 21.125 62.025 18.2 59.1 C17.125 59.875 14.975 61.425 13.9 62.2 C16.675 65.775 22.225 72.925 25 76.5 C27.5 76.5 32.5 76.5 35 76.5 C37.775 72.925 43.325 65.775 46.1 62.2 zM17.5 2.1 Q12.3 5.4 9.45 11.5 Q6.6 17.6 6.6 25.8 Q6.6 34 9.45 40.1 Q12.3 46.2 17.5 49.5 Q22.8 52.8 30 52.8 Q37.2 52.8 42.45 49.5 Q47.7 46.2 50.5 40.1 Q53.4 34 53.4 25.8 Q53.4 17.6 50.55 11.5 Q47.7 5.4 42.4 2.1 Q37.2 -1.2 30 -1.2 Q22.8 -1.2 17.5 2.1 zM40.9 9.8 Q44.9 14 44.9 22.1 C44.9 24.56667 44.9 27.65 44.9 29.5 Q44.9 37.6 40.9 41.75 Q36.9 45.9 30 45.9 Q23.1 45.9 19.1 41.75 Q15.1 37.6 15.1 29.5 C15.1 27.03333 15.1 23.95 15.1 22.1 Q15.1 14 19.1 9.85 Q23.1 5.7 30 5.7 Q36.9 5.7 40.9 9.8 z" />
<glyph unicode="" horiz-adv-x="60" d="M33.6 61.8 Q32 62.4 30.8 63 Q29.6 63.6 29.3 63.8 Q24.8 66.2 22.3 66.2 Q20.8 66.2 19.45 65.55 Q18.1 64.9 16.5 63.5 C15.4 64.83333 14.025 66.5 13.2 67.5 Q14.7 69.8 17.1 71.3 Q19.5 72.8 22.7 72.8 Q24.8 72.8 26.4 72.2 Q28 71.6 29.2 71 Q30.4 70.4 30.7 70.2 Q35.2 67.8 37.7 67.8 Q39.3 67.8 40.6 68.45 Q41.9 69.1 43.5 70.5 C44.6 69.16667 45.975 67.5 46.8 66.5 Q45.3 64.2 42.9 62.7 Q40.5 61.2 37.3 61.2 Q35.2 61.2 33.6 61.8 zM17.5 2.1 Q12.3 5.4 9.45 11.5 Q6.6 17.6 6.6 25.8 Q6.6 34 9.45 40.1 Q12.3 46.2 17.5 49.5 Q22.8 52.8 30 52.8 Q37.2 52.8 42.45 49.5 Q47.7 46.2 50.5 40.1 Q53.4 34 53.4 25.8 Q53.4 17.6 50.55 11.5 Q47.7 5.4 42.4 2.1 Q37.2 -1.2 30 -1.2 Q22.8 -1.2 17.5 2.1 zM40.9 9.8 Q44.9 14 44.9 22.1 C44.9 24.56667 44.9 27.65 44.9 29.5 Q44.9 37.6 40.9 41.75 Q36.9 45.9 30 45.9 Q23.1 45.9 19.1 41.75 Q15.1 37.6 15.1 29.5 C15.1 27.03333 15.1 23.95 15.1 22.1 Q15.1 14 19.1 9.85 Q23.1 5.7 30 5.7 Q36.9 5.7 40.9 9.8 z" />
<glyph unicode="" horiz-adv-x="60" d="M16.4 63 Q15 64.3 15 66.4 C15 66.86667 15 67.45 15 67.8 Q15 69.9 16.4 71.15 Q17.8 72.4 20.7 72.4 Q23.6 72.4 25 71.15 Q26.4 69.9 26.4 67.8 C26.4 67.33333 26.4 66.75 26.4 66.4 Q26.4 64.3 25 63.05 Q23.6 61.8 20.7 61.8 Q17.8 61.8 16.4 63 zM35 63 Q33.6 64.3 33.6 66.4 C33.6 66.86667 33.6 67.45 33.6 67.8 Q33.6 69.9 35 71.15 Q36.4 72.4 39.3 72.4 Q42.2 72.4 43.6 71.15 Q45 69.9 45 67.8 C45 67.33333 45 66.75 45 66.4 Q45 64.3 43.6 63.05 Q42.2 61.8 39.3 61.8 Q36.4 61.8 35 63 zM17.5 2.1 Q12.3 5.4 9.45 11.5 Q6.6 17.6 6.6 25.8 Q6.6 34 9.45 40.1 Q12.3 46.2 17.5 49.5 Q22.8 52.8 30 52.8 Q37.2 52.8 42.45 49.5 Q47.7 46.2 50.5 40.1 Q53.4 34 53.4 25.8 Q53.4 17.6 50.55 11.5 Q47.7 5.4 42.4 2.1 Q37.2 -1.2 30 -1.2 Q22.8 -1.2 17.5 2.1 zM40.9 9.8 Q44.9 14 44.9 22.1 C44.9 24.56667 44.9 27.65 44.9 29.5 Q44.9 37.6 40.9 41.75 Q36.9 45.9 30 45.9 Q23.1 45.9 19.1 41.75 Q15.1 37.6 15.1 29.5 C15.1 27.03333 15.1 23.95 15.1 22.1 Q15.1 14 19.1 9.85 Q23.1 5.7 30 5.7 Q36.9 5.7 40.9 9.8 z" />
<glyph unicode="" horiz-adv-x="60" d="M23.8 48.8 C23.8 49.35 23.8 50.45 23.8 51 Q23.8 55.8 30 55.8 Q36.2 55.8 36.2 51 C36.2 50.26667 36.2 49.35 36.2 48.8 Q36.2 44 30 44 Q23.8 44 23.8 48.8 zM6.2 33.9 C18.1 33.9 41.9 33.9 53.8 33.9 C53.8 32.2 53.8 28.8 53.8 27.1 C41.9 27.1 18.1 27.1 6.2 27.1 C6.2 28.8 6.2 32.2 6.2 33.9 zM23.8 10 C23.8 10.55 23.8 11.65 23.8 12.2 Q23.8 17 30 17 Q36.2 17 36.2 12.2 C36.2 11.46667 36.2 10.55 36.2 10 Q36.2 5.2 30 5.2 Q23.8 5.2 23.8 10 z" />
<glyph unicode="" horiz-adv-x="60" d="M11.6 7.8 Q6.6 15 6.6 25.8 Q6.6 34 9.45 40.1 Q12.3 46.2 17.5 49.5 Q22.8 52.8 30 52.8 Q38.5 52.8 44.5 47.9 C46.6 50.46667 49.225 53.675 50.8 55.6 C51.925 54.75 54.175 53.05 55.3 52.2 C53.575 50.1 50.125 45.9 48.4 43.8 Q53.4 36.6 53.4 25.8 Q53.4 17.6 50.55 11.5 Q47.7 5.4 42.4 2.1 Q37.2 -1.2 30 -1.2 Q21.5 -1.2 15.5 3.7 C13.4 1.13333 10.775 -2.075 9.2 -4 C8.075 -3.15 5.825 -1.45 4.7 -0.6 C6.425 1.5 9.875 5.7 11.6 7.8 zM19.1 41.7 Q15.1 37.6 15.1 29.5 C15.1 27.03333 15.1 23.95 15.1 22.1 Q15.1 17.1 16.6 13.8 C24.43333 23.36667 34.225 35.325 40.1 42.5 Q36.4 45.9 30 45.9 Q23.1 45.9 19.1 41.7 zM40.9 9.8 Q44.9 14 44.9 22.1 C44.9 24.56667 44.9 27.65 44.9 29.5 Q44.9 34.5 43.4 37.8 C35.56667 28.23333 25.775 16.275 19.9 9.1 Q23.6 5.7 30 5.7 Q36.9 5.7 40.9 9.8 z" />
<glyph unicode="" horiz-adv-x="60" d="M25.7 77.9 C27.825 73.65 32.075 65.15 34.2 60.9 C32.9 60.3 30.3 59.1 29 58.5 C26.35 62.475 21.05 70.425 18.4 74.4 C20.225 75.275 23.875 77.025 25.7 77.9 zM41.8 8.4 Q37.7 -1.2 27.1 -1.2 Q18.9 -1.2 14.05 4 Q9.2 9.2 9.2 18.5 C9.2 29.53333 9.2 43.325 9.2 51.6 C11.2 51.6 15.2 51.6 17.2 51.6 C17.2 43.675 17.2 27.825 17.2 19.9 Q17.2 12.9 20.3 9.4 Q23.4 5.9 29.4 5.9 Q34.7 5.9 38.45 8.45 Q42.2 11 42.2 15.8 C42.2 27.73333 42.2 42.65 42.2 51.6 C44.2 51.6 48.2 51.6 50.2 51.6 C50.2 38.7 50.2 12.9 50.2 0 C48.2 0 44.2 0 42.2 0 C42.2 2.1 42.2 6.3 42.2 8.4 C42.1 8.4 41.9 8.4 41.8 8.4 z" />
<glyph unicode="" horiz-adv-x="60" d="M25.2 60.9 C27.325 65.15 31.575 73.65 33.7 77.9 C35.525 77.025 39.175 75.275 41 74.4 C38.35 70.425 33.05 62.475 30.4 58.5 C29.1 59.1 26.5 60.3 25.2 60.9 zM41.8 8.4 Q37.7 -1.2 27.1 -1.2 Q18.9 -1.2 14.05 4 Q9.2 9.2 9.2 18.5 C9.2 29.53333 9.2 43.325 9.2 51.6 C11.2 51.6 15.2 51.6 17.2 51.6 C17.2 43.675 17.2 27.825 17.2 19.9 Q17.2 12.9 20.3 9.4 Q23.4 5.9 29.4 5.9 Q34.7 5.9 38.45 8.45 Q42.2 11 42.2 15.8 C42.2 27.73333 42.2 42.65 42.2 51.6 C44.2 51.6 48.2 51.6 50.2 51.6 C50.2 38.7 50.2 12.9 50.2 0 C48.2 0 44.2 0 42.2 0 C42.2 2.1 42.2 6.3 42.2 8.4 C42.1 8.4 41.9 8.4 41.8 8.4 z" />
<glyph unicode="" horiz-adv-x="60" d="M45.8 62.2 C44.675 61.425 42.425 59.875 41.3 59.1 C38.375 62.025 32.525 67.875 29.6 70.8 C26.675 67.875 20.825 62.025 17.9 59.1 C16.825 59.875 14.675 61.425 13.6 62.2 C16.375 65.775 21.925 72.925 24.7 76.5 C27.2 76.5 32.2 76.5 34.7 76.5 C37.475 72.925 43.025 65.775 45.8 62.2 zM41.8 8.4 Q37.7 -1.2 27.1 -1.2 Q18.9 -1.2 14.05 4 Q9.2 9.2 9.2 18.5 C9.2 29.53333 9.2 43.325 9.2 51.6 C11.2 51.6 15.2 51.6 17.2 51.6 C17.2 43.675 17.2 27.825 17.2 19.9 Q17.2 12.9 20.3 9.4 Q23.4 5.9 29.4 5.9 Q34.7 5.9 38.45 8.45 Q42.2 11 42.2 15.8 C42.2 27.73333 42.2 42.65 42.2 51.6 C44.2 51.6 48.2 51.6 50.2 51.6 C50.2 38.7 50.2 12.9 50.2 0 C48.2 0 44.2 0 42.2 0 C42.2 2.1 42.2 6.3 42.2 8.4 C42.1 8.4 41.9 8.4 41.8 8.4 z" />
<glyph unicode="" horiz-adv-x="60" d="M16.1 63 Q14.7 64.3 14.7 66.4 C14.7 66.86667 14.7 67.45 14.7 67.8 Q14.7 69.9 16.1 71.15 Q17.5 72.4 20.4 72.4 Q23.3 72.4 24.7 71.15 Q26.1 69.9 26.1 67.8 C26.1 67.33333 26.1 66.75 26.1 66.4 Q26.1 64.3 24.7 63.05 Q23.3 61.8 20.4 61.8 Q17.5 61.8 16.1 63 zM34.7 63 Q33.3 64.3 33.3 66.4 C33.3 66.86667 33.3 67.45 33.3 67.8 Q33.3 69.9 34.7 71.15 Q36.1 72.4 39 72.4 Q41.9 72.4 43.3 71.15 Q44.7 69.9 44.7 67.8 C44.7 67.33333 44.7 66.75 44.7 66.4 Q44.7 64.3 43.3 63.05 Q41.9 61.8 39 61.8 Q36.1 61.8 34.7 63 zM41.8 8.4 Q37.7 -1.2 27.1 -1.2 Q18.9 -1.2 14.05 4 Q9.2 9.2 9.2 18.5 C9.2 29.53333 9.2 43.325 9.2 51.6 C11.2 51.6 15.2 51.6 17.2 51.6 C17.2 43.675 17.2 27.825 17.2 19.9 Q17.2 12.9 20.3 9.4 Q23.4 5.9 29.4 5.9 Q34.7 5.9 38.45 8.45 Q42.2 11 42.2 15.8 C42.2 27.73333 42.2 42.65 42.2 51.6 C44.2 51.6 48.2 51.6 50.2 51.6 C50.2 38.7 50.2 12.9 50.2 0 C48.2 0 44.2 0 42.2 0 C42.2 2.1 42.2 6.3 42.2 8.4 C42.1 8.4 41.9 8.4 41.8 8.4 z" />
<glyph unicode="" horiz-adv-x="60" d="M25.5 60.9 C27.625 65.15 31.875 73.65 34 77.9 C35.825 77.025 39.475 75.275 41.3 74.4 C38.65 70.425 33.35 62.475 30.7 58.5 C29.4 59.1 26.8 60.3 25.5 60.9 zM54.7 51.6 C49.5 38.95 39.1 13.65 33.9 1 Q28 -13.4 25.9 -15.7 Q22 -20 10.6 -20 C9.83333 -20 8.875 -20 8.3 -20 C8.3 -18.3 8.3 -14.9 8.3 -13.2 C8.875 -13.175 10.025 -13.125 10.6 -13.1 Q15.4 -13 20 -11.3 C21.7 -8.26667 23.825 -4.475 25.1 -2.2 C25.35 -1.4 25.85 0.2 26.1 1 C20.9 13.65 10.5 38.95 5.3 51.6 C7.35 51.6 11.45 51.6 13.5 51.6 C15.675 46.2 20.025 35.4 22.2 30 C24.125 25.1 27.975 15.3 29.9 10.4 C30 10.4 30.2 10.4 30.3 10.4 C32.225 15.3 36.075 25.1 38 30 C40.175 35.4 44.525 46.2 46.7 51.6 C48.7 51.6 52.7 51.6 54.7 51.6 z" />
<glyph unicode="" horiz-adv-x="60" d="M17.5 74 C17.5 66.3 17.5 50.9 17.5 43.2 C17.6 43.2 17.8 43.2 17.9 43.2 Q22.9 52.8 33.8 52.8 Q43.3 52.8 48.65 45.65 Q54 38.5 54 25.8 Q54 13.1 48.65 5.95 Q43.3 -1.2 33.8 -1.2 Q22.9 -1.2 17.9 8.4 C17.76667 8.4 17.6 8.4 17.5 8.4 C17.5 1.3 17.5 -12.9 17.5 -20 C15.5 -20 11.5 -20 9.5 -20 C9.5 3.5 9.5 50.5 9.5 74 C11.5 74 15.5 74 17.5 74 zM41.5 10.1 Q45.4 14.3 45.4 21.4 C45.4 24.33333 45.4 28 45.4 30.2 Q45.4 37.3 41.5 41.5 Q37.6 45.7 30.7 45.7 Q25.1 45.7 21.3 42.9 Q17.5 40.1 17.5 35.1 C17.5 28.9 17.5 21.15 17.5 16.5 Q17.5 11.5 21.3 8.7 Q25.1 5.9 30.7 5.9 Q37.6 5.9 41.5 10.1 z" />
<glyph unicode="" horiz-adv-x="60" d="M16.4 63 Q15 64.3 15 66.4 C15 66.86667 15 67.45 15 67.8 Q15 69.9 16.4 71.15 Q17.8 72.4 20.7 72.4 Q23.6 72.4 25 71.15 Q26.4 69.9 26.4 67.8 C26.4 67.33333 26.4 66.75 26.4 66.4 Q26.4 64.3 25 63.05 Q23.6 61.8 20.7 61.8 Q17.8 61.8 16.4 63 zM35 63 Q33.6 64.3 33.6 66.4 C33.6 66.86667 33.6 67.45 33.6 67.8 Q33.6 69.9 35 71.15 Q36.4 72.4 39.3 72.4 Q42.2 72.4 43.6 71.15 Q45 69.9 45 67.8 C45 67.33333 45 66.75 45 66.4 Q45 64.3 43.6 63.05 Q42.2 61.8 39.3 61.8 Q36.4 61.8 35 63 zM54.7 51.6 C49.5 38.85 39.1 13.35 33.9 0.6 Q27.4 -15.2 23.6 -17.4 Q19.2 -20 10.1 -20 C9.5 -20 8.75 -20 8.3 -20 C8.3 -18.3 8.3 -14.9 8.3 -13.2 C8.8 -13.2 9.8 -13.2 10.3 -13.2 Q13.9 -13.2 19.2 -11.4 C20.53333 -9.73333 22.2 -7.65 23.2 -6.4 C23.8 -4.875 25 -1.825 25.6 -0.3 C25.725 0.025 25.975 0.675 26.1 1 C20.9 13.65 10.5 38.95 5.3 51.6 C7.35 51.6 11.45 51.6 13.5 51.6 C15.675 46.2 20.025 35.4 22.2 30 C24.125 25.1 27.975 15.3 29.9 10.4 C30 10.4 30.2 10.4 30.3 10.4 C32.225 15.3 36.075 25.1 38 30 C40.175 35.4 44.525 46.2 46.7 51.6 C48.7 51.6 52.7 51.6 54.7 51.6 z" />
<glyph unicode="" horiz-adv-x="60" d="M44 87.5 C44 85.8 44 82.4 44 80.7 C37 80.7 23 80.7 16 80.7 C16 82.4 16 85.8 16 87.5 C23 87.5 37 87.5 44 87.5 zM42.2 19.9 C36.075 19.9 23.825 19.9 17.7 19.9 C16.225 14.925 13.275 4.975 11.8 0 C9.625 0 5.275 0 3.1 0 C8.45 17.45 19.15 52.35 24.5 69.8 C27.275 69.8 32.825 69.8 35.6 69.8 C40.95 52.35 51.65 17.45 57 0 C54.775 0 50.325 0 48.1 0 C46.625 4.975 43.675 14.925 42.2 19.9 zM29.5 60.9 C27.05 52.475 22.15 35.625 19.7 27.2 C24.825 27.2 35.075 27.2 40.2 27.2 C37.75 35.625 32.85 52.475 30.4 60.9 C30.175 60.9 29.725 60.9 29.5 60.9 z" />
<glyph unicode="" horiz-adv-x="60" d="M42.3 70.5 C42.3 68.8 42.3 65.4 42.3 63.7 C35.3 63.7 21.3 63.7 14.3 63.7 C14.3 65.4 14.3 68.8 14.3 70.5 C21.3 70.5 35.3 70.5 42.3 70.5 zM40.24099 8.41788 C40.2485 8.41788 40.26352 8.41788 40.27103 8.41788 Q36.67103 -1.18212 24.24099 -1.18212 Q16.14099 -1.18212 11.34099 3.01788 Q6.54099 7.21788 6.54099 14.51788 Q6.54099 29.51788 28.74099 29.51788 C32.40766 29.51788 36.99099 29.51788 39.74099 29.51788 C39.74099 30.79288 39.74099 33.34288 39.74099 34.61788 Q39.74099 40.21788 36.54099 43.11788 Q33.34099 46.01788 27.44099 46.01788 Q19.01099 46.35788 12.86099 42.79788 C12.32099 45.17121 11.64599 48.13788 11.24099 49.91788 Q14.93099 51.63788 17.73599 52.22788 Q20.54099 52.81788 27.94099 52.81788 Q37.04099 52.81788 42.39099 48.16788 Q47.74099 43.51788 47.74099 35.41788 Q47.76612 26.22765 47.49099 17.89999 Q47.21586 9.57233 47.81638 7.8472 Q48.72371 7.00898 50.72162 7.00898 Q52.71952 7.00898 54.94099 7.01788 C54.94099 4.68455 54.94099 1.76788 54.94099 0.01788 C53.56599 0.01788 50.81599 0.01788 49.44099 0.01788 Q42.91848 0.14825 41.37293 1.73149 Q39.82738 3.31474 40.24099 8.41788 zM35.74099 8.21788 Q39.74099 11.01788 39.74099 15.01788 C39.74099 17.85121 39.74099 21.39288 39.74099 23.51788 C36.99099 23.51788 31.49099 23.51788 28.74099 23.51788 Q14.94099 23.51788 14.94099 15.71788 C14.94099 15.01788 14.94099 14.14288 14.94099 13.61788 Q14.94099 9.71788 17.79099 7.61788 Q20.64099 5.51788 25.64099 5.51788 Q31.74099 5.51788 35.74099 8.21788 z" />
<glyph unicode="" horiz-adv-x="60" d="M19.4 80.8 Q15.9 85.1 13.9 91.6 C15.6 92.33333 17.725 93.25 19 93.8 C19.525 92.95 20.575 91.25 21.1 90.4 Q23 87.3 24.05 85.9 Q25.1 84.5 26.5 83.7 Q27.9 83 30 83 Q32.1 83 33.5 83.75 Q34.9 84.5 35.9 85.9 Q37 87.3 38.9 90.4 C39.6 91.53333 40.475 92.95 41 93.8 C42.275 93.25 44.825 92.15 46.1 91.6 Q44.1 85.1 40.6 80.8 Q37.1 76.5 30 76.5 Q22.9 76.5 19.4 80.8 zM42.2 19.9 C36.075 19.9 23.825 19.9 17.7 19.9 C16.225 14.925 13.275 4.975 11.8 0 C9.625 0 5.275 0 3.1 0 C8.45 17.45 19.15 52.35 24.5 69.8 C27.275 69.8 32.825 69.8 35.6 69.8 C40.95 52.35 51.65 17.45 57 0 C54.775 0 50.325 0 48.1 0 C46.625 4.975 43.675 14.925 42.2 19.9 zM29.5 60.9 C27.05 52.475 22.15 35.625 19.7 27.2 C24.825 27.2 35.075 27.2 40.2 27.2 C37.75 35.625 32.85 52.475 30.4 60.9 C30.175 60.9 29.725 60.9 29.5 60.9 z" />
<glyph unicode="" horiz-adv-x="60" d="M17.7 63.8 Q14.2 68.1 12.2 74.6 C13.9 75.33333 16.025 76.25 17.3 76.8 C17.825 75.95 18.875 74.25 19.4 73.4 Q21.3 70.3 22.35 68.9 Q23.4 67.5 24.8 66.7 Q26.2 66 28.3 66 Q30.4 66 31.8 66.75 Q33.2 67.5 34.2 68.9 Q35.3 70.3 37.2 73.4 C37.9 74.53333 38.775 75.95 39.3 76.8 C40.575 76.25 43.125 75.15 44.4 74.6 Q42.4 68.1 38.9 63.8 Q35.4 59.5 28.3 59.5 Q21.2 59.5 17.7 63.8 zM40.31739 8.38932 C40.3249 8.38932 40.33992 8.38932 40.34743 8.38932 Q36.74743 -1.21068 24.31739 -1.21068 Q16.21739 -1.21068 11.41739 2.98932 Q6.61739 7.18932 6.61739 14.48932 Q6.61739 29.48932 28.81739 29.48932 C32.48406 29.48932 37.06739 29.48932 39.81739 29.48932 C39.81739 30.76432 39.81739 33.31432 39.81739 34.58932 Q39.81739 40.18932 36.61739 43.08932 Q33.41739 45.98932 27.51739 45.98932 Q19.08739 46.32932 12.93739 42.76932 C12.39739 45.14265 11.72239 48.10932 11.31739 49.88932 Q15.00739 51.60932 17.81239 52.19932 Q20.61739 52.78932 28.01739 52.78932 Q37.11739 52.78932 42.46739 48.13932 Q47.81739 43.48932 47.81739 35.38932 Q47.84252 26.19909 47.56739 17.87143 Q47.29226 9.54377 47.89278 7.81864 Q48.80011 6.98042 50.79801 6.98042 Q52.79592 6.98042 55.01739 6.98932 C55.01739 4.65599 55.01739 1.73932 55.01739 -0.01068 C53.64239 -0.01068 50.89239 -0.01068 49.51739 -0.01068 Q42.99488 0.11969 41.44933 1.70294 Q39.90378 3.28618 40.31739 8.38932 zM35.81739 8.18932 Q39.81739 10.98932 39.81739 14.98932 C39.81739 17.82265 39.81739 21.36432 39.81739 23.48932 C37.06739 23.48932 31.56739 23.48932 28.81739 23.48932 Q15.01739 23.48932 15.01739 15.68932 C15.01739 14.98932 15.01739 14.11432 15.01739 13.58932 Q15.01739 9.68932 17.86739 7.58932 Q20.71739 5.48932 25.71739 5.48932 Q31.81739 5.48932 35.81739 8.18932 z" />
<glyph unicode="" horiz-adv-x="60" d="M35.6 69.8 C40.95 52.35 51.65 17.45 57 0 Q50.1 -4.4 47.9 -6.95 Q45.7 -9.5 45.7 -11.4 Q45.7 -13.3 46.9 -14.2 Q48.1 -15.1 49.9 -15.1 Q53 -15.1 55.1 -12.5 C56.43333 -13.86667 58.1 -15.575 59.1 -16.6 Q58 -18.4 55.65 -19.55 Q53.3 -20.7 49.8 -20.7 Q45 -20.7 41.95 -18.6 Q38.9 -16.5 38.9 -12.7 Q38.9 -5.8 50.4 -0.3 C50.36667 -0.2 50.325 -0.075 50.3 0 C49.75 0 48.65 0 48.1 0 C46.625 4.975 43.675 14.925 42.2 19.9 C36.075 19.9 23.825 19.9 17.7 19.9 C16.225 14.925 13.275 4.975 11.8 0 C9.625 0 5.275 0 3.1 0 C8.45 17.45 19.15 52.35 24.5 69.8 C27.275 69.8 32.825 69.8 35.6 69.8 zM29.5 60.9 C27.05 52.475 22.15 35.625 19.7 27.2 C24.825 27.2 35.075 27.2 40.2 27.2 C37.75 35.625 32.85 52.475 30.4 60.9 C30.175 60.9 29.725 60.9 29.5 60.9 z" />
<glyph unicode="" horiz-adv-x="60" d="M45.9 -6.9 Q43.7 -9.5 43.7 -11.4 Q43.7 -13.3 44.9 -14.2 Q46.1 -15.1 47.9 -15.1 Q51 -15.1 53.1 -12.5 C54.43333 -13.86667 56.1 -15.575 57.1 -16.6 Q56 -18.4 53.65 -19.55 Q51.3 -20.7 47.8 -20.7 Q43 -20.7 39.95 -18.6 Q36.9 -16.5 36.9 -12.7 Q36.9 -5.8 48.4 -0.3 C48.36667 -0.2 48.325 -0.075 48.3 0 Q44.7 0.3 42.65 2.55 Q40.6 4.8 40.3 8.4 C40.23386 8.4 40.15118 8.4 40.10157 8.4 Q36.50157 -1.2 24.3 -1.2 Q16.2 -1.2 11.4 3 Q6.6 7.2 6.6 14.5 Q6.6 29.5 28.8 29.5 C32.46667 29.5 37.05 29.5 39.8 29.5 C39.8 30.775 39.8 33.325 39.8 34.6 Q39.8 40.2 36.6 43.1 Q33.4 46 27.4 46 Q20 45 12 42 C11.33333 44.33333 10.5 47.25 10 49 Q13 51 16.8 51.9 Q20.6 52.8 28 52.8 Q37.1 52.8 42.45 48.15 Q47.8 43.5 47.8 35.4 Q47.90052 26.00873 47.66309 17.48002 Q47.42565 8.95131 48.10157 7.22618 Q49.15969 6.61414 51.21754 6.83534 Q53.27539 7.05654 55 7 C55 4.66667 55 1.75 55 0 Q48.1 -4.4 45.9 -6.9 zM15 15.7 C15 15.175 15 14.125 15 13.6 Q15 9.7 17.85 7.6 Q20.7 5.5 25.7 5.5 Q31.8 5.5 35.8 8.25 Q39.8 11 39.8 15 C39.8 17.83333 39.8 21.375 39.8 23.5 C37.05 23.5 31.55 23.5 28.8 23.5 Q20 23 18 21.5 Q16 20 15 15.7 z" />
<glyph unicode="" horiz-adv-x="60" d="M28.3 77.9 C30.425 82.15 34.675 90.65 36.8 94.9 C38.625 94.025 42.275 92.275 44.1 91.4 C41.45 87.425 36.15 79.475 33.5 75.5 C32.2 76.1 29.6 77.3 28.3 77.9 zM13.3 8 Q7 17.3 7 34.9 Q7 52.5 13.35 61.75 Q19.7 71 32.3 71 Q41 71 45.85 66.85 Q50.7 62.7 53.8 55.7 C51.4 54.6 48.4 53.225 46.6 52.4 Q44.4 57.9 41.25 60.8 Q38.1 63.7 32.3 63.7 Q24.2 63.7 20.05 57.55 Q15.9 51.4 15.9 40.6 C15.9 36.8 15.9 32.05 15.9 29.2 Q15.9 18.4 20.05 12.25 Q24.2 6.1 32.3 6.1 Q38.1 6.1 41.25 9 Q44.4 11.9 46.6 17.4 C49 16.3 52 14.925 53.8 14.1 Q50.7 7.1 45.85 2.95 Q41 -1.2 32.3 -1.2 Q19.7 -1.2 13.3 8 z" />
<glyph unicode="" horiz-adv-x="60" d="M26.8 60.9 C28.925 65.15 33.175 73.65 35.3 77.9 C37.125 77.025 40.775 75.275 42.6 74.4 C39.95 70.425 34.65 62.475 32 58.5 C30.7 59.1 28.1 60.3 26.8 60.9 zM14.6 6.1 Q8.4 13.4 8.4 25.8 Q8.4 38.2 14.6 45.5 Q20.8 52.8 31.7 52.8 Q38.9 52.8 43.7 49.6 Q48.5 46.4 50.8 40.9 C48.66667 39.76667 46 38.35 44.4 37.5 Q43 41.5 39.7 43.7 Q36.4 45.9 31.7 45.9 Q24.8 45.9 20.9 41.55 Q17 37.2 17 30.2 C17 27.26667 17 23.6 17 21.4 Q17 14.4 20.9 10.05 Q24.8 5.7 31.9 5.7 Q41.7 5.7 45.9 14.7 C47.8 13.4 50.175 11.775 51.6 10.8 Q49.2 5.3 44.2 2.05 Q39.2 -1.2 31.8 -1.2 Q20.8 -1.2 14.6 6.1 z" />
<glyph unicode="" horiz-adv-x="60" d="M48.9 79.2 C47.775 78.425 45.525 76.875 44.4 76.1 C41.475 79.025 35.625 84.875 32.7 87.8 C29.775 84.875 23.925 79.025 21 76.1 C19.925 76.875 17.775 78.425 16.7 79.2 C19.475 82.775 25.025 89.925 27.8 93.5 C30.3 93.5 35.3 93.5 37.8 93.5 C40.575 89.925 46.125 82.775 48.9 79.2 zM13.3 8 Q7 17.3 7 34.9 Q7 52.5 13.35 61.75 Q19.7 71 32.3 71 Q41 71 45.85 66.85 Q50.7 62.7 53.8 55.7 C51.4 54.6 48.4 53.225 46.6 52.4 Q44.4 57.9 41.25 60.8 Q38.1 63.7 32.3 63.7 Q24.2 63.7 20.05 57.55 Q15.9 51.4 15.9 40.6 C15.9 36.8 15.9 32.05 15.9 29.2 Q15.9 18.4 20.05 12.25 Q24.2 6.1 32.3 6.1 Q38.1 6.1 41.25 9 Q44.4 11.9 46.6 17.4 C49 16.3 52 14.925 53.8 14.1 Q50.7 7.1 45.85 2.95 Q41 -1.2 32.3 -1.2 Q19.7 -1.2 13.3 8 z" />
<glyph unicode="" horiz-adv-x="60" d="M47.4 62.2 C46.275 61.425 44.025 59.875 42.9 59.1 C39.975 62.025 34.125 67.875 31.2 70.8 C28.275 67.875 22.425 62.025 19.5 59.1 C18.425 59.875 16.275 61.425 15.2 62.2 C17.975 65.775 23.525 72.925 26.3 76.5 C28.8 76.5 33.8 76.5 36.3 76.5 C39.075 72.925 44.625 65.775 47.4 62.2 zM14.6 6.1 Q8.4 13.4 8.4 25.8 Q8.4 38.2 14.6 45.5 Q20.8 52.8 31.7 52.8 Q38.9 52.8 43.7 49.6 Q48.5 46.4 50.8 40.9 C48.66667 39.76667 46 38.35 44.4 37.5 Q43 41.5 39.7 43.7 Q36.4 45.9 31.7 45.9 Q24.8 45.9 20.9 41.55 Q17 37.2 17 30.2 C17 27.26667 17 23.6 17 21.4 Q17 14.4 20.9 10.05 Q24.8 5.7 31.9 5.7 Q41.7 5.7 45.9 14.7 C47.8 13.4 50.175 11.775 51.6 10.8 Q49.2 5.3 44.2 2.05 Q39.2 -1.2 31.8 -1.2 Q20.8 -1.2 14.6 6.1 z" />
<glyph unicode="" horiz-adv-x="60" d="M28 79.6 Q26.5 81 26.5 83.3 C26.5 83.83333 26.5 84.5 26.5 84.9 Q26.5 87.2 28 88.6 Q29.5 90 32.8 90 Q36.1 90 37.6 88.6 Q39.1 87.2 39.1 84.9 C39.1 84.36667 39.1 83.7 39.1 83.3 Q39.1 81 37.6 79.6 Q36.1 78.2 32.8 78.2 Q29.5 78.2 28 79.6 zM13.3 8 Q7 17.3 7 34.9 Q7 52.5 13.35 61.75 Q19.7 71 32.3 71 Q41 71 45.85 66.85 Q50.7 62.7 53.8 55.7 C51.4 54.6 48.4 53.225 46.6 52.4 Q44.4 57.9 41.25 60.8 Q38.1 63.7 32.3 63.7 Q24.2 63.7 20.05 57.55 Q15.9 51.4 15.9 40.6 C15.9 36.8 15.9 32.05 15.9 29.2 Q15.9 18.4 20.05 12.25 Q24.2 6.1 32.3 6.1 Q38.1 6.1 41.25 9 Q44.4 11.9 46.6 17.4 C49 16.3 52 14.925 53.8 14.1 Q50.7 7.1 45.85 2.95 Q41 -1.2 32.3 -1.2 Q19.7 -1.2 13.3 8 z" />
<glyph unicode="" horiz-adv-x="60" d="M26.5 62.6 Q25 64 25 66.3 C25 66.83333 25 67.5 25 67.9 Q25 70.2 26.5 71.6 Q28 73 31.3 73 Q34.6 73 36.1 71.6 Q37.6 70.2 37.6 67.9 C37.6 67.36667 37.6 66.7 37.6 66.3 Q37.6 64 36.1 62.6 Q34.6 61.2 31.3 61.2 Q28 61.2 26.5 62.6 zM14.6 6.1 Q8.4 13.4 8.4 25.8 Q8.4 38.2 14.6 45.5 Q20.8 52.8 31.7 52.8 Q38.9 52.8 43.7 49.6 Q48.5 46.4 50.8 40.9 C48.66667 39.76667 46 38.35 44.4 37.5 Q43 41.5 39.7 43.7 Q36.4 45.9 31.7 45.9 Q24.8 45.9 20.9 41.55 Q17 37.2 17 30.2 C17 27.26667 17 23.6 17 21.4 Q17 14.4 20.9 10.05 Q24.8 5.7 31.9 5.7 Q41.7 5.7 45.9 14.7 C47.8 13.4 50.175 11.775 51.6 10.8 Q49.2 5.3 44.2 2.05 Q39.2 -1.2 31.8 -1.2 Q20.8 -1.2 14.6 6.1 z" />
<glyph unicode="" horiz-adv-x="60" d="M16.7 91.2 C17.825 91.975 20.075 93.525 21.2 94.3 C24.125 91.375 29.975 85.525 32.9 82.6 C35.825 85.525 41.675 91.375 44.6 94.3 C45.675 93.525 47.825 91.975 48.9 91.2 C46.125 87.625 40.575 80.475 37.8 76.9 C35.3 76.9 30.3 76.9 27.8 76.9 C25.025 80.475 19.475 87.625 16.7 91.2 zM13.3 8 Q7 17.3 7 34.9 Q7 52.5 13.35 61.75 Q19.7 71 32.3 71 Q41 71 45.85 66.85 Q50.7 62.7 53.8 55.7 C51.4 54.6 48.4 53.225 46.6 52.4 Q44.4 57.9 41.25 60.8 Q38.1 63.7 32.3 63.7 Q24.2 63.7 20.05 57.55 Q15.9 51.4 15.9 40.6 C15.9 36.8 15.9 32.05 15.9 29.2 Q15.9 18.4 20.05 12.25 Q24.2 6.1 32.3 6.1 Q38.1 6.1 41.25 9 Q44.4 11.9 46.6 17.4 C49 16.3 52 14.925 53.8 14.1 Q50.7 7.1 45.85 2.95 Q41 -1.2 32.3 -1.2 Q19.7 -1.2 13.3 8 z" />
<glyph unicode="" horiz-adv-x="60" d="M15.2 74.2 C16.35 74.975 18.65 76.525 19.8 77.3 C22.725 74.375 28.575 68.525 31.5 65.6 C34.425 68.525 40.275 74.375 43.2 77.3 C44.25 76.525 46.35 74.975 47.4 74.2 C44.625 70.625 39.075 63.475 36.3 59.9 C33.8 59.9 28.8 59.9 26.3 59.9 C23.525 63.475 17.975 70.625 15.2 74.2 zM14.6 6.1 Q8.4 13.4 8.4 25.8 Q8.4 38.2 14.6 45.5 Q20.8 52.8 31.7 52.8 Q38.9 52.8 43.7 49.6 Q48.5 46.4 50.8 40.9 C48.66667 39.76667 46 38.35 44.4 37.5 Q43 41.5 39.7 43.7 Q36.4 45.9 31.7 45.9 Q24.8 45.9 20.9 41.55 Q17 37.2 17 30.2 C17 27.26667 17 23.6 17 21.4 Q17 14.4 20.9 10.05 Q24.8 5.7 31.9 5.7 Q41.7 5.7 45.9 14.7 C47.8 13.4 50.175 11.775 51.6 10.8 Q49.2 5.3 44.2 2.05 Q39.2 -1.2 31.8 -1.2 Q20.8 -1.2 14.6 6.1 z" />
<glyph unicode="" horiz-adv-x="60" d="M11.6 91.2 C12.725 91.975 14.975 93.525 16.1 94.3 C19.025 91.375 24.875 85.525 27.8 82.6 C30.725 85.525 36.575 91.375 39.5 94.3 C40.575 93.525 42.725 91.975 43.8 91.2 C41.025 87.625 35.475 80.475 32.7 76.9 C30.2 76.9 25.2 76.9 22.7 76.9 C19.925 80.475 14.375 87.625 11.6 91.2 zM29 69.8 Q41.7 69.8 48.05 61 Q54.4 52.2 54.4 34.9 Q54.4 17.6 48.05 8.8 Q41.7 0 29 0 C22.5 0 14.375 0 9.5 0 C9.5 17.45 9.5 52.35 9.5 69.8 C14.375 69.8 24.125 69.8 29 69.8 zM41.1 13.1 Q45.5 18.9 45.5 29.5 C45.5 33.1 45.5 37.6 45.5 40.3 Q45.5 50.9 41.15 56.7 Q36.8 62.5 28.6 62.5 C25.03333 62.5 20.575 62.5 17.9 62.5 C17.9 48.7 17.9 21.1 17.9 7.3 C20.575 7.3 25.925 7.3 28.6 7.3 Q36.8 7.3 41.1 13.1 z" />
<glyph unicode="" horiz-adv-x="60" d="M9.6 5.9 Q4.5 13.1 4.5 25.8 Q4.5 38.5 9.6 45.65 Q14.7 52.8 23.7 52.8 Q28.7 52.8 32.5 50.35 Q36.3 47.9 38.6 43.2 C38.73333 43.2 38.9 43.2 39 43.2 C39 50.9 39 66.3 39 74 C41 74 45 74 47 74 C47 55.5 47 18.5 47 0 C45 0 41 0 39 0 C39 2.1 39 6.3 39 8.4 C38.9 8.4 38.7 8.4 38.6 8.4 Q36.3 3.7 32.5 1.25 Q28.7 -1.2 23.7 -1.2 Q14.7 -1.2 9.6 5.9 zM64.8 74 C63.575 69.275 61.125 59.825 59.9 55.1 C58.375 55.1 55.325 55.1 53.8 55.1 C53.975 59.825 54.325 69.275 54.5 74 C57.075 74 62.225 74 64.8 74 zM35.3 8.7 Q39 11.6 39 16.5 C39 22.7 39 30.45 39 35.1 Q39 40 35.3 42.85 Q31.6 45.7 26.3 45.7 Q19.9 45.7 16.5 41.6 Q13.1 37.5 13.1 30.2 C13.1 27.26667 13.1 23.6 13.1 21.4 Q13.1 14.1 16.5 10 Q19.9 5.9 26.3 5.9 Q31.6 5.9 35.3 8.7 z" />
<glyph unicode="" horiz-adv-x="60" d="M2.2 33.6 C2.2 35.2 2.2 38.4 2.2 40 C4.2 40 8.2 40 10.2 40 C10.2 47.45 10.2 62.35 10.2 69.8 C14.9 69.8 24.3 69.8 29 69.8 Q41.7 69.8 48.05 61 Q54.4 52.2 54.4 34.9 Q54.4 17.6 48.05 8.8 Q41.7 0 29 0 C22.73333 0 14.9 0 10.2 0 C10.2 8.4 10.2 25.2 10.2 33.6 C8.2 33.6 4.2 33.6 2.2 33.6 zM41.1 13.1 Q45.5 18.9 45.5 29.5 C45.5 33.1 45.5 37.6 45.5 40.3 Q45.5 50.9 41.15 56.7 Q36.8 62.5 28.6 62.5 C25.26667 62.5 21.1 62.5 18.6 62.5 C18.6 56.875 18.6 45.625 18.6 40 C22.125 40 29.175 40 32.7 40 C32.7 38.4 32.7 35.2 32.7 33.6 C29.175 33.6 22.125 33.6 18.6 33.6 C18.6 27.025 18.6 13.875 18.6 7.3 C21.1 7.3 26.1 7.3 28.6 7.3 Q36.8 7.3 41.1 13.1 z" />
<glyph unicode="" horiz-adv-x="60" d="M42.1 8.4 Q37.1 -1.2 26.2 -1.2 Q16.7 -1.2 11.35 5.95 Q6 13.1 6 25.8 Q6 38.5 11.35 45.65 Q16.7 52.8 26.2 52.8 Q37.1 52.8 42.1 43.2 C42.23333 43.2 42.4 43.2 42.5 43.2 C42.5 47.6 42.5 56.4 42.5 60.8 C38.675 60.8 31.025 60.8 27.2 60.8 C27.2 62.35 27.2 65.45 27.2 67 C31.025 67 38.675 67 42.5 67 C42.5 68.75 42.5 72.25 42.5 74 C44.5 74 48.5 74 50.5 74 C50.5 72.25 50.5 68.75 50.5 67 C52.125 67 55.375 67 57 67 C57 65.45 57 62.35 57 60.8 C55.375 60.8 52.125 60.8 50.5 60.8 C50.5 45.6 50.5 15.2 50.5 0 C48.5 0 44.5 0 42.5 0 C42.5 2.1 42.5 6.3 42.5 8.4 C42.4 8.4 42.2 8.4 42.1 8.4 zM38.7 8.7 Q42.5 11.5 42.5 16.5 C42.5 22.7 42.5 30.45 42.5 35.1 Q42.5 40.1 38.7 42.9 Q34.9 45.7 29.3 45.7 Q22.4 45.7 18.5 41.5 Q14.6 37.3 14.6 30.2 C14.6 27.26667 14.6 23.6 14.6 21.4 Q14.6 14.3 18.5 10.1 Q22.4 5.9 29.3 5.9 Q34.9 5.9 38.7 8.7 z" />
<glyph unicode="" horiz-adv-x="60" d="M44.5 87.5 C44.5 85.8 44.5 82.4 44.5 80.7 C37.5 80.7 23.5 80.7 16.5 80.7 C16.5 82.4 16.5 85.8 16.5 87.5 C23.5 87.5 37.5 87.5 44.5 87.5 zM9 69.8 C19.75 69.8 41.25 69.8 52 69.8 C52 67.975 52 64.325 52 62.5 C43.35 62.5 26.05 62.5 17.4 62.5 C17.4 56.625 17.4 44.875 17.4 39 C25.75 39 42.45 39 50.8 39 C50.8 37.175 50.8 33.525 50.8 31.7 C42.45 31.7 25.75 31.7 17.4 31.7 C17.4 25.6 17.4 13.4 17.4 7.3 C26.05 7.3 43.35 7.3 52 7.3 C52 5.475 52 1.825 52 0 C41.25 0 19.75 0 9 0 C9 17.45 9 52.35 9 69.8 z" />
<glyph unicode="" horiz-adv-x="60" d="M44.2 70.5 C44.2 68.8 44.2 65.4 44.2 63.7 C37.2 63.7 23.2 63.7 16.2 63.7 C16.2 65.4 16.2 68.8 16.2 70.5 C23.2 70.5 37.2 70.5 44.2 70.5 zM18.1 2.1 Q12.6 5.4 9.65 11.5 Q6.7 17.6 6.7 25.7 Q6.7 33.8 9.7 39.95 Q12.7 46.1 18 49.4 Q23.4 52.8 30.4 52.8 Q37.2 52.8 42.4 49.55 Q47.6 46.3 50.4 40.6 Q53.3 34.9 53.3 27.6 C53.3 26.33333 53.3 24.75 53.3 23.8 C43.75 23.8 24.65 23.8 15.1 23.8 C15.1 23.2 15.1 22 15.1 21.4 Q15.1 14.5 19.4 10.1 Q23.7 5.7 30.9 5.7 Q36 5.7 39.8 8.05 Q43.6 10.4 45.7 14.7 C47.66667 13.36667 50.125 11.7 51.6 10.7 Q49.2 5.3 43.75 2.05 Q38.3 -1.2 30.9 -1.2 Q23.6 -1.2 18.1 2.1 zM22.6 44.1 Q19.1 42.1 17.1 38.5 Q15.1 34.9 15.1 30.5 C15.1 30.26667 15.1 29.975 15.1 29.8 C22.5 29.8 37.3 29.8 44.7 29.8 C44.7 30.075 44.7 30.625 44.7 30.9 Q44.7 37.7 40.75 41.95 Q36.8 46.2 30.4 46.2 Q26.1 46.2 22.6 44.1 z" />
<glyph unicode="" horiz-adv-x="60" d="M19.9 80.8 Q16.4 85.1 14.4 91.6 C16.1 92.33333 18.225 93.25 19.5 93.8 C20.025 92.95 21.075 91.25 21.6 90.4 Q23.5 87.3 24.55 85.9 Q25.6 84.5 27 83.7 Q28.4 83 30.5 83 Q32.6 83 34 83.75 Q35.4 84.5 36.4 85.9 Q37.5 87.3 39.4 90.4 C40.1 91.53333 40.975 92.95 41.5 93.8 C42.775 93.25 45.325 92.15 46.6 91.6 Q44.6 85.1 41.1 80.8 Q37.6 76.5 30.5 76.5 Q23.4 76.5 19.9 80.8 zM9 69.8 C19.75 69.8 41.25 69.8 52 69.8 C52 67.975 52 64.325 52 62.5 C43.35 62.5 26.05 62.5 17.4 62.5 C17.4 56.625 17.4 44.875 17.4 39 C25.75 39 42.45 39 50.8 39 C50.8 37.175 50.8 33.525 50.8 31.7 C42.45 31.7 25.75 31.7 17.4 31.7 C17.4 25.6 17.4 13.4 17.4 7.3 C26.05 7.3 43.35 7.3 52 7.3 C52 5.475 52 1.825 52 0 C41.25 0 19.75 0 9 0 C9 17.45 9 52.35 9 69.8 z" />
<glyph unicode="" horiz-adv-x="60" d="M19.6 63.8 Q16.1 68.1 14.1 74.6 C15.8 75.33333 17.925 76.25 19.2 76.8 C19.725 75.95 20.775 74.25 21.3 73.4 Q23.2 70.3 24.25 68.9 Q25.3 67.5 26.7 66.7 Q28.1 66 30.2 66 Q32.3 66 33.7 66.75 Q35.1 67.5 36.1 68.9 Q37.2 70.3 39.1 73.4 C39.8 74.53333 40.675 75.95 41.2 76.8 C42.475 76.25 45.025 75.15 46.3 74.6 Q44.3 68.1 40.8 63.8 Q37.3 59.5 30.2 59.5 Q23.1 59.5 19.6 63.8 zM18.1 2.1 Q12.6 5.4 9.65 11.5 Q6.7 17.6 6.7 25.7 Q6.7 33.8 9.7 39.95 Q12.7 46.1 18 49.4 Q23.4 52.8 30.4 52.8 Q37.2 52.8 42.4 49.55 Q47.6 46.3 50.4 40.6 Q53.3 34.9 53.3 27.6 C53.3 26.33333 53.3 24.75 53.3 23.8 C43.75 23.8 24.65 23.8 15.1 23.8 C15.1 23.2 15.1 22 15.1 21.4 Q15.1 14.5 19.4 10.1 Q23.7 5.7 30.9 5.7 Q36 5.7 39.8 8.05 Q43.6 10.4 45.7 14.7 C47.66667 13.36667 50.125 11.7 51.6 10.7 Q49.2 5.3 43.75 2.05 Q38.3 -1.2 30.9 -1.2 Q23.6 -1.2 18.1 2.1 zM22.6 44.1 Q19.1 42.1 17.1 38.5 Q15.1 34.9 15.1 30.5 C15.1 30.26667 15.1 29.975 15.1 29.8 C22.5 29.8 37.3 29.8 44.7 29.8 C44.7 30.075 44.7 30.625 44.7 30.9 Q44.7 37.7 40.75 41.95 Q36.8 46.2 30.4 46.2 Q26.1 46.2 22.6 44.1 z" />
<glyph unicode="" horiz-adv-x="60" d="M25.7 79.6 Q24.2 81 24.2 83.3 C24.2 83.83333 24.2 84.5 24.2 84.9 Q24.2 87.2 25.7 88.6 Q27.2 90 30.5 90 Q33.8 90 35.3 88.6 Q36.8 87.2 36.8 84.9 C36.8 84.36667 36.8 83.7 36.8 83.3 Q36.8 81 35.3 79.6 Q33.8 78.2 30.5 78.2 Q27.2 78.2 25.7 79.6 zM9 69.8 C19.75 69.8 41.25 69.8 52 69.8 C52 67.975 52 64.325 52 62.5 C43.35 62.5 26.05 62.5 17.4 62.5 C17.4 56.625 17.4 44.875 17.4 39 C25.75 39 42.45 39 50.8 39 C50.8 37.175 50.8 33.525 50.8 31.7 C42.45 31.7 25.75 31.7 17.4 31.7 C17.4 25.6 17.4 13.4 17.4 7.3 C26.05 7.3 43.35 7.3 52 7.3 C52 5.475 52 1.825 52 0 C41.25 0 19.75 0 9 0 C9 17.45 9 52.35 9 69.8 z" />
<glyph unicode="" horiz-adv-x="60" d="M25.4 62.6 Q23.9 64 23.9 66.3 C23.9 66.83333 23.9 67.5 23.9 67.9 Q23.9 70.2 25.4 71.6 Q26.9 73 30.2 73 Q33.5 73 35 71.6 Q36.5 70.2 36.5 67.9 C36.5 67.36667 36.5 66.7 36.5 66.3 Q36.5 64 35 62.6 Q33.5 61.2 30.2 61.2 Q26.9 61.2 25.4 62.6 zM18.1 2.1 Q12.6 5.4 9.65 11.5 Q6.7 17.6 6.7 25.7 Q6.7 33.8 9.7 39.95 Q12.7 46.1 18 49.4 Q23.4 52.8 30.4 52.8 Q37.2 52.8 42.4 49.55 Q47.6 46.3 50.4 40.6 Q53.3 34.9 53.3 27.6 C53.3 26.33333 53.3 24.75 53.3 23.8 C43.75 23.8 24.65 23.8 15.1 23.8 C15.1 23.2 15.1 22 15.1 21.4 Q15.1 14.5 19.4 10.1 Q23.7 5.7 30.9 5.7 Q36 5.7 39.8 8.05 Q43.6 10.4 45.7 14.7 C47.66667 13.36667 50.125 11.7 51.6 10.7 Q49.2 5.3 43.75 2.05 Q38.3 -1.2 30.9 -1.2 Q23.6 -1.2 18.1 2.1 zM22.6 44.1 Q19.1 42.1 17.1 38.5 Q15.1 34.9 15.1 30.5 C15.1 30.26667 15.1 29.975 15.1 29.8 C22.5 29.8 37.3 29.8 44.7 29.8 C44.7 30.075 44.7 30.625 44.7 30.9 Q44.7 37.7 40.75 41.95 Q36.8 46.2 30.4 46.2 Q26.1 46.2 22.6 44.1 z" />
<glyph unicode="" horiz-adv-x="60" d="M52 69.8 C52 67.975 52 64.325 52 62.5 C43.35 62.5 26.05 62.5 17.4 62.5 C17.4 56.625 17.4 44.875 17.4 39 C25.75 39 42.45 39 50.8 39 C50.8 37.175 50.8 33.525 50.8 31.7 C42.45 31.7 25.75 31.7 17.4 31.7 C17.4 25.6 17.4 13.4 17.4 7.3 C26.05 7.3 43.35 7.3 52 7.3 C52 5.475 52 1.825 52 0 Q45.1 -4.4 42.9 -6.95 Q40.7 -9.5 40.7 -11.4 Q40.7 -13.3 41.9 -14.2 Q43.1 -15.1 44.9 -15.1 Q48 -15.1 50.1 -12.5 C51.43333 -13.86667 53.1 -15.575 54.1 -16.6 Q53 -18.4 50.65 -19.55 Q48.3 -20.7 44.8 -20.7 Q40 -20.7 36.95 -18.6 Q33.9 -16.5 33.9 -12.7 Q33.9 -5.8 45.4 -0.3 C45.36667 -0.2 45.325 -0.075 45.3 0 C36.225 0 18.075 0 9 0 C9 17.45 9 52.35 9 69.8 C19.75 69.8 41.25 69.8 52 69.8 z" />
<glyph unicode="" horiz-adv-x="60" d="M28.2 -18.6 Q25.2 -16.5 25.2 -12.7 Q25.2 -5.9 36.5 -0.6 C36.43333 -0.5 36.35 -0.375 36.3 -0.3 Q34 -1.2 30.2 -1.2 Q23.3 -1.2 18 2.15 Q12.7 5.5 9.7 11.6 Q6.7 17.7 6.7 25.8 Q6.7 33.8 9.7 39.95 Q12.7 46.1 18.1 49.4 Q23.5 52.8 30.4 52.8 Q37.2 52.8 42.4 49.55 Q47.6 46.3 50.4 40.6 Q53.3 34.9 53.3 27.6 C53.3 26.33333 53.3 24.75 53.3 23.8 C43.75 23.8 24.65 23.8 15.1 23.8 C15.1 23.2 15.1 22 15.1 21.4 Q15.1 14.5 19.4 10.1 Q23.7 5.7 30.9 5.7 Q36 5.7 39.8 8.05 Q43.6 10.4 45.7 14.7 C47.66667 13.36667 50.125 11.7 51.6 10.7 Q50.3 7.9 47.45 5 Q44.6 2.1 40.5 -1.2 Q35.5 -5.3 33.75 -7.3 Q32 -9.3 32 -11.4 Q32 -13.3 33.2 -14.2 Q34.4 -15.1 36.2 -15.1 Q39.3 -15.1 41.4 -12.5 C42.73333 -13.86667 44.4 -15.575 45.4 -16.6 Q44.3 -18.4 41.95 -19.55 Q39.6 -20.7 36.1 -20.7 Q31.3 -20.7 28.2 -18.6 zM44.7 30.9 Q44.7 37.7 40.75 41.95 Q36.8 46.2 30.4 46.2 Q26.1 46.2 22.6 44.15 Q19.1 42.1 17.1 38.5 Q15.1 34.9 15.1 30.5 C15.1 30.26667 15.1 29.975 15.1 29.8 C22.5 29.8 37.3 29.8 44.7 29.8 C44.7 30.075 44.7 30.625 44.7 30.9 z" />
<glyph unicode="" horiz-adv-x="60" d="M14.4 91.2 C15.525 91.975 17.775 93.525 18.9 94.3 C21.825 91.375 27.675 85.525 30.6 82.6 C33.525 85.525 39.375 91.375 42.3 94.3 C43.375 93.525 45.525 91.975 46.6 91.2 C43.825 87.625 38.275 80.475 35.5 76.9 C33 76.9 28 76.9 25.5 76.9 C22.725 80.475 17.175 87.625 14.4 91.2 zM9 69.8 C19.75 69.8 41.25 69.8 52 69.8 C52 67.975 52 64.325 52 62.5 C43.35 62.5 26.05 62.5 17.4 62.5 C17.4 56.625 17.4 44.875 17.4 39 C25.75 39 42.45 39 50.8 39 C50.8 37.175 50.8 33.525 50.8 31.7 C42.45 31.7 25.75 31.7 17.4 31.7 C17.4 25.6 17.4 13.4 17.4 7.3 C26.05 7.3 43.35 7.3 52 7.3 C52 5.475 52 1.825 52 0 C41.25 0 19.75 0 9 0 C9 17.45 9 52.35 9 69.8 z" />
<glyph unicode="" horiz-adv-x="60" d="M14.1 74.2 C15.25 74.975 17.55 76.525 18.7 77.3 C21.625 74.375 27.475 68.525 30.4 65.6 C33.325 68.525 39.175 74.375 42.1 77.3 C43.15 76.525 45.25 74.975 46.3 74.2 C43.525 70.625 37.975 63.475 35.2 59.9 C32.7 59.9 27.7 59.9 25.2 59.9 C22.425 63.475 16.875 70.625 14.1 74.2 zM18.1 2.1 Q12.6 5.4 9.65 11.5 Q6.7 17.6 6.7 25.7 Q6.7 33.8 9.7 39.95 Q12.7 46.1 18 49.4 Q23.4 52.8 30.4 52.8 Q37.2 52.8 42.4 49.55 Q47.6 46.3 50.4 40.6 Q53.3 34.9 53.3 27.6 C53.3 26.33333 53.3 24.75 53.3 23.8 C43.75 23.8 24.65 23.8 15.1 23.8 C15.1 23.2 15.1 22 15.1 21.4 Q15.1 14.5 19.4 10.1 Q23.7 5.7 30.9 5.7 Q36 5.7 39.8 8.05 Q43.6 10.4 45.7 14.7 C47.66667 13.36667 50.125 11.7 51.6 10.7 Q49.2 5.3 43.75 2.05 Q38.3 -1.2 30.9 -1.2 Q23.6 -1.2 18.1 2.1 zM22.6 44.1 Q19.1 42.1 17.1 38.5 Q15.1 34.9 15.1 30.5 C15.1 30.26667 15.1 29.975 15.1 29.8 C22.5 29.8 37.3 29.8 44.7 29.8 C44.7 30.075 44.7 30.625 44.7 30.9 Q44.7 37.7 40.75 41.95 Q36.8 46.2 30.4 46.2 Q26.1 46.2 22.6 44.1 z" />
<glyph unicode="" horiz-adv-x="60" d="M46.7 79.2 C45.575 78.425 43.325 76.875 42.2 76.1 C39.275 79.025 33.425 84.875 30.5 87.8 C27.575 84.875 21.725 79.025 18.8 76.1 C17.725 76.875 15.575 78.425 14.5 79.2 C17.275 82.775 22.825 89.925 25.6 93.5 C28.1 93.5 33.1 93.5 35.6 93.5 C38.375 89.925 43.925 82.775 46.7 79.2 zM43.9 9.3 Q41.9 4.5 38.3 1.65 Q34.7 -1.2 28.1 -1.2 Q16.9 -1.2 11.25 7.95 Q5.6 17.1 5.6 34.4 Q5.6 52.4 11.8 61.7 Q18 71 30.5 71 Q39.4 71 44.45 66.75 Q49.5 62.5 52.2 55.7 C49.8 54.6 46.8 53.225 45 52.4 Q42.8 57.9 39.7 60.8 Q36.6 63.7 30.8 63.7 Q22.6 63.7 18.55 57.6 Q14.5 51.5 14.5 40.6 C14.5 37 14.5 32.5 14.5 29.8 Q14.5 18.6 18.2 12.25 Q21.9 5.9 30 5.9 Q36.6 5.9 40.5 9.95 Q44.4 14 44.4 20.6 C44.4 23 44.4 26 44.4 27.8 C40.725 27.8 33.375 27.8 29.7 27.8 C29.7 29.475 29.7 32.825 29.7 34.5 C35.325 34.5 46.575 34.5 52.2 34.5 C52.2 25.875 52.2 8.625 52.2 0 C50.25 0 46.35 0 44.4 0 C44.4 2.325 44.4 6.975 44.4 9.3 C44.275 9.3 44.025 9.3 43.9 9.3 z" />
<glyph unicode="" horiz-adv-x="60" d="M45.8 62.2 C44.675 61.425 42.425 59.875 41.3 59.1 C38.375 62.025 32.525 67.875 29.6 70.8 C26.675 67.875 20.825 62.025 17.9 59.1 C16.825 59.875 14.675 61.425 13.6 62.2 C16.375 65.775 21.925 72.925 24.7 76.5 C27.2 76.5 32.2 76.5 34.7 76.5 C37.475 72.925 43.025 65.775 45.8 62.2 zM12.3 -17.9 Q6.7 -14.7 6.7 -8.4 Q6.7 -0.7 15.1 1.5 C15.1 1.9 15.1 2.4 15.1 2.7 Q10.5 4.9 10.5 9.8 Q10.5 13.5 12.95 15.6 Q15.4 17.7 19.8 18.8 C19.8 18.93333 19.8 19.1 19.8 19.2 Q15 21.3 12.35 25.45 Q9.7 29.6 9.7 35 Q9.7 40.2 12.2 44.25 Q14.7 48.3 19.2 50.5 Q23.7 52.8 29.7 52.8 Q34 52.8 37.5 51.6 C43.53333 51.6 51.075 51.6 55.6 51.6 C55.6 50 55.6 46.8 55.6 45.2 C53.25 45.2 48.55 45.2 46.2 45.2 Q49.8 41.3 49.8 35 Q49.8 29.8 47.3 25.75 Q44.8 21.7 40.2 19.4 Q35.7 17.2 29.7 17.2 Q26.9 17.2 24.8 17.6 Q21.9 17 19.65 15.55 Q17.4 14.1 17.4 11.7 Q17.4 9.5 19.5 8.7 Q21.6 7.9 25.7 7.9 C29.5 7.9 34.25 7.9 37.1 7.9 Q46.8 7.9 51.45 4.25 Q56.1 0.6 56.1 -5.9 Q56.1 -13.6 49.6 -17.4 Q43.1 -21.2 30.1 -21.2 Q17.9 -21.2 12.3 -17.9 zM38.4 26.1 Q41.4 28.9 41.4 33.6 C41.4 34.56667 41.4 35.775 41.4 36.5 Q41.4 41.2 38.45 43.9 Q35.5 46.6 29.7 46.6 Q23.9 46.6 21 43.9 Q18.1 41.2 18.1 36.5 C18.1 35.53333 18.1 34.325 18.1 33.6 Q18.1 28.9 21 26.15 Q23.9 23.4 29.7 23.4 Q35.5 23.4 38.4 26.1 zM37.4 0.5 C32.925 0.5 23.975 0.5 19.5 0.5 Q14.3 -1.6 14.3 -6.5 Q14.3 -10.2 17.2 -12.5 Q20.1 -14.8 26 -14.8 C28.6 -14.8 31.85 -14.8 33.8 -14.8 Q40.9 -14.8 44.75 -12.65 Q48.6 -10.5 48.6 -6.3 Q48.6 0.5 37.4 0.5 z" />
<glyph unicode="" horiz-adv-x="60" d="M20 80.8 Q16.5 85.1 14.5 91.6 C16.2 92.33333 18.325 93.25 19.6 93.8 C20.125 92.95 21.175 91.25 21.7 90.4 Q23.6 87.3 24.65 85.9 Q25.7 84.5 27.1 83.7 Q28.5 83 30.6 83 Q32.7 83 34.1 83.75 Q35.5 84.5 36.5 85.9 Q37.6 87.3 39.5 90.4 C40.2 91.53333 41.075 92.95 41.6 93.8 C42.875 93.25 45.425 92.15 46.7 91.6 Q44.7 85.1 41.2 80.8 Q37.7 76.5 30.6 76.5 Q23.5 76.5 20 80.8 zM43.9 9.3 Q41.9 4.5 38.3 1.65 Q34.7 -1.2 28.1 -1.2 Q16.9 -1.2 11.25 7.95 Q5.6 17.1 5.6 34.4 Q5.6 52.4 11.8 61.7 Q18 71 30.5 71 Q39.4 71 44.45 66.75 Q49.5 62.5 52.2 55.7 C49.8 54.6 46.8 53.225 45 52.4 Q42.8 57.9 39.7 60.8 Q36.6 63.7 30.8 63.7 Q22.6 63.7 18.55 57.6 Q14.5 51.5 14.5 40.6 C14.5 37 14.5 32.5 14.5 29.8 Q14.5 18.6 18.2 12.25 Q21.9 5.9 30 5.9 Q36.6 5.9 40.5 9.95 Q44.4 14 44.4 20.6 C44.4 23 44.4 26 44.4 27.8 C40.725 27.8 33.375 27.8 29.7 27.8 C29.7 29.475 29.7 32.825 29.7 34.5 C35.325 34.5 46.575 34.5 52.2 34.5 C52.2 25.875 52.2 8.625 52.2 0 C50.25 0 46.35 0 44.4 0 C44.4 2.325 44.4 6.975 44.4 9.3 C44.275 9.3 44.025 9.3 43.9 9.3 z" />
<glyph unicode="" horiz-adv-x="60" d="M19.1 63.8 Q15.6 68.1 13.6 74.6 C15.3 75.33333 17.425 76.25 18.7 76.8 C19.225 75.95 20.275 74.25 20.8 73.4 Q22.7 70.3 23.75 68.9 Q24.8 67.5 26.2 66.7 Q27.6 66 29.7 66 Q31.8 66 33.2 66.75 Q34.6 67.5 35.6 68.9 Q36.7 70.3 38.6 73.4 C39.3 74.53333 40.175 75.95 40.7 76.8 C41.975 76.25 44.525 75.15 45.8 74.6 Q43.8 68.1 40.3 63.8 Q36.8 59.5 29.7 59.5 Q22.6 59.5 19.1 63.8 zM12.3 -17.9 Q6.7 -14.7 6.7 -8.4 Q6.7 -0.7 15.1 1.5 C15.1 1.9 15.1 2.4 15.1 2.7 Q10.5 4.9 10.5 9.8 Q10.5 13.5 12.95 15.6 Q15.4 17.7 19.8 18.8 C19.8 18.93333 19.8 19.1 19.8 19.2 Q15 21.3 12.35 25.45 Q9.7 29.6 9.7 35 Q9.7 40.2 12.2 44.25 Q14.7 48.3 19.2 50.5 Q23.7 52.8 29.7 52.8 Q34 52.8 37.5 51.6 C43.53333 51.6 51.075 51.6 55.6 51.6 C55.6 50 55.6 46.8 55.6 45.2 C53.25 45.2 48.55 45.2 46.2 45.2 Q49.8 41.3 49.8 35 Q49.8 29.8 47.3 25.75 Q44.8 21.7 40.2 19.4 Q35.7 17.2 29.7 17.2 Q26.9 17.2 24.8 17.6 Q21.9 17 19.65 15.55 Q17.4 14.1 17.4 11.7 Q17.4 9.5 19.5 8.7 Q21.6 7.9 25.7 7.9 C29.5 7.9 34.25 7.9 37.1 7.9 Q46.8 7.9 51.45 4.25 Q56.1 0.6 56.1 -5.9 Q56.1 -13.6 49.6 -17.4 Q43.1 -21.2 30.1 -21.2 Q17.9 -21.2 12.3 -17.9 zM38.4 26.1 Q41.4 28.9 41.4 33.6 C41.4 34.56667 41.4 35.775 41.4 36.5 Q41.4 41.2 38.45 43.9 Q35.5 46.6 29.7 46.6 Q23.9 46.6 21 43.9 Q18.1 41.2 18.1 36.5 C18.1 35.53333 18.1 34.325 18.1 33.6 Q18.1 28.9 21 26.15 Q23.9 23.4 29.7 23.4 Q35.5 23.4 38.4 26.1 zM37.4 0.5 C32.925 0.5 23.975 0.5 19.5 0.5 Q14.3 -1.6 14.3 -6.5 Q14.3 -10.2 17.2 -12.5 Q20.1 -14.8 26 -14.8 C28.6 -14.8 31.85 -14.8 33.8 -14.8 Q40.9 -14.8 44.75 -12.65 Q48.6 -10.5 48.6 -6.3 Q48.6 0.5 37.4 0.5 z" />
<glyph unicode="" horiz-adv-x="60" d="M25.8 79.6 Q24.3 81 24.3 83.3 C24.3 83.83333 24.3 84.5 24.3 84.9 Q24.3 87.2 25.8 88.6 Q27.3 90 30.6 90 Q33.9 90 35.4 88.6 Q36.9 87.2 36.9 84.9 C36.9 84.36667 36.9 83.7 36.9 83.3 Q36.9 81 35.4 79.6 Q33.9 78.2 30.6 78.2 Q27.3 78.2 25.8 79.6 zM43.9 9.3 Q41.9 4.5 38.3 1.65 Q34.7 -1.2 28.1 -1.2 Q16.9 -1.2 11.25 7.95 Q5.6 17.1 5.6 34.4 Q5.6 52.4 11.8 61.7 Q18 71 30.5 71 Q39.4 71 44.45 66.75 Q49.5 62.5 52.2 55.7 C49.8 54.6 46.8 53.225 45 52.4 Q42.8 57.9 39.7 60.8 Q36.6 63.7 30.8 63.7 Q22.6 63.7 18.55 57.6 Q14.5 51.5 14.5 40.6 C14.5 37 14.5 32.5 14.5 29.8 Q14.5 18.6 18.2 12.25 Q21.9 5.9 30 5.9 Q36.6 5.9 40.5 9.95 Q44.4 14 44.4 20.6 C44.4 23 44.4 26 44.4 27.8 C40.725 27.8 33.375 27.8 29.7 27.8 C29.7 29.475 29.7 32.825 29.7 34.5 C35.325 34.5 46.575 34.5 52.2 34.5 C52.2 25.875 52.2 8.625 52.2 0 C50.25 0 46.35 0 44.4 0 C44.4 2.325 44.4 6.975 44.4 9.3 C44.275 9.3 44.025 9.3 43.9 9.3 z" />
<glyph unicode="" horiz-adv-x="60" d="M24.9 62.6 Q23.4 64 23.4 66.3 C23.4 66.83333 23.4 67.5 23.4 67.9 Q23.4 70.2 24.9 71.6 Q26.4 73 29.7 73 Q33 73 34.5 71.6 Q36 70.2 36 67.9 C36 67.36667 36 66.7 36 66.3 Q36 64 34.5 62.6 Q33 61.2 29.7 61.2 Q26.4 61.2 24.9 62.6 zM49.6 -17.4 Q43.1 -21.2 30.1 -21.2 Q17.9 -21.2 12.3 -17.95 Q6.7 -14.7 6.7 -8.4 Q6.7 -0.7 15.1 1.5 C15.1 1.9 15.1 2.4 15.1 2.7 Q10.5 4.9 10.5 9.8 Q10.5 13.5 12.95 15.6 Q15.4 17.7 19.8 18.8 C19.8 18.93333 19.8 19.1 19.8 19.2 Q15 21.3 12.35 25.45 Q9.7 29.6 9.7 35 Q9.7 40.2 12.2 44.25 Q14.7 48.3 19.2 50.5 Q23.7 52.8 29.7 52.8 Q35.6 52.8 39.9 50.7 C39.9 51 39.9 51.375 39.9 51.6 Q39.9 54.8 41.4 56.7 Q42.9 58.6 46.1 58.6 C49.26667 58.6 53.225 58.6 55.6 58.6 C55.6 56.85 55.6 53.35 55.6 51.6 C52.7 51.6 46.9 51.6 44 51.6 C44 50.725 44 48.975 44 48.1 Q49.8 43.1 49.8 35 Q49.8 29.8 47.3 25.75 Q44.8 21.7 40.2 19.4 Q35.7 17.2 29.7 17.2 Q26.9 17.2 24.8 17.6 Q21.9 17 19.65 15.55 Q17.4 14.1 17.4 11.7 Q17.4 9.5 19.5 8.7 Q21.6 7.9 25.7 7.9 C29.5 7.9 34.25 7.9 37.1 7.9 Q46.8 7.9 51.45 4.25 Q56.1 0.6 56.1 -5.9 Q56.1 -13.6 49.6 -17.4 zM38.4 26.1 Q41.4 28.9 41.4 33.6 C41.4 34.56667 41.4 35.775 41.4 36.5 Q41.4 41.2 38.45 43.9 Q35.5 46.6 29.7 46.6 Q23.9 46.6 21 43.9 Q18.1 41.2 18.1 36.5 C18.1 35.53333 18.1 34.325 18.1 33.6 Q18.1 28.9 21 26.15 Q23.9 23.4 29.7 23.4 Q35.5 23.4 38.4 26.1 zM37.4 0.5 C32.925 0.5 23.975 0.5 19.5 0.5 Q14.3 -1.6 14.3 -6.5 Q14.3 -10.2 17.2 -12.5 Q20.1 -14.8 26 -14.8 C28.6 -14.8 31.85 -14.8 33.8 -14.8 Q40.9 -14.8 44.75 -12.65 Q48.6 -10.5 48.6 -6.3 Q48.6 0.5 37.4 0.5 z" />
<glyph unicode="" horiz-adv-x="60" d="M43.9 9.3 Q41.9 4.5 38.3 1.65 Q34.7 -1.2 28.1 -1.2 Q16.9 -1.2 11.25 7.95 Q5.6 17.1 5.6 34.4 Q5.6 52.4 11.8 61.7 Q18 71 30.5 71 Q39.4 71 44.45 66.75 Q49.5 62.5 52.2 55.7 C49.8 54.6 46.8 53.225 45 52.4 Q42.8 57.9 39.7 60.8 Q36.6 63.7 30.8 63.7 Q22.6 63.7 18.55 57.6 Q14.5 51.5 14.5 40.6 C14.5 37 14.5 32.5 14.5 29.8 Q14.5 18.6 18.2 12.25 Q21.9 5.9 30 5.9 Q36.6 5.9 40.5 9.95 Q44.4 14 44.4 20.6 C44.4 23 44.4 26 44.4 27.8 C40.725 27.8 33.375 27.8 29.7 27.8 C29.7 29.475 29.7 32.825 29.7 34.5 C35.325 34.5 46.575 34.5 52.2 34.5 C52.2 25.875 52.2 8.625 52.2 0 C50.25 0 46.35 0 44.4 0 C44.4 2.325 44.4 6.975 44.4 9.3 C44.275 9.3 44.025 9.3 43.9 9.3 zM35.7 -6.2 C33.8 -10.925 30 -20.375 28.1 -25.1 C26.575 -25.1 23.525 -25.1 22 -25.1 C22.7 -20.375 24.1 -10.925 24.8 -6.2 C27.525 -6.2 32.975 -6.2 35.7 -6.2 z" />
<glyph unicode="" horiz-adv-x="60" d="M37.7 77.6 C37 72.875 35.6 63.425 34.9 58.7 C32.175 58.7 26.725 58.7 24 58.7 C25.9 63.425 29.7 72.875 31.6 77.6 C33.125 77.6 36.175 77.6 37.7 77.6 zM49.6 -17.4 Q43.1 -21.2 30.1 -21.2 Q17.9 -21.2 12.3 -17.95 Q6.7 -14.7 6.7 -8.4 Q6.7 -0.7 15.1 1.5 C15.1 1.9 15.1 2.4 15.1 2.7 Q10.5 4.9 10.5 9.8 Q10.5 13.5 12.95 15.6 Q15.4 17.7 19.8 18.8 C19.8 18.93333 19.8 19.1 19.8 19.2 Q15 21.3 12.35 25.45 Q9.7 29.6 9.7 35 Q9.7 40.2 12.2 44.25 Q14.7 48.3 19.2 50.5 Q23.7 52.8 29.7 52.8 Q35.6 52.8 39.9 50.7 C39.9 51 39.9 51.375 39.9 51.6 Q39.9 54.8 41.4 56.7 Q42.9 58.6 46.1 58.6 C49.26667 58.6 53.225 58.6 55.6 58.6 C55.6 56.85 55.6 53.35 55.6 51.6 C52.7 51.6 46.9 51.6 44 51.6 C44 50.725 44 48.975 44 48.1 Q49.8 43.1 49.8 35 Q49.8 29.8 47.3 25.75 Q44.8 21.7 40.2 19.4 Q35.7 17.2 29.7 17.2 Q26.9 17.2 24.8 17.6 Q21.9 17 19.65 15.55 Q17.4 14.1 17.4 11.7 Q17.4 9.5 19.5 8.7 Q21.6 7.9 25.7 7.9 C29.5 7.9 34.25 7.9 37.1 7.9 Q46.8 7.9 51.45 4.25 Q56.1 0.6 56.1 -5.9 Q56.1 -13.6 49.6 -17.4 zM38.4 26.1 Q41.4 28.9 41.4 33.6 C41.4 34.56667 41.4 35.775 41.4 36.5 Q41.4 41.2 38.45 43.9 Q35.5 46.6 29.7 46.6 Q23.9 46.6 21 43.9 Q18.1 41.2 18.1 36.5 C18.1 35.53333 18.1 34.325 18.1 33.6 Q18.1 28.9 21 26.15 Q23.9 23.4 29.7 23.4 Q35.5 23.4 38.4 26.1 zM37.4 0.5 C32.925 0.5 23.975 0.5 19.5 0.5 Q14.3 -1.6 14.3 -6.5 Q14.3 -10.2 17.2 -12.5 Q20.1 -14.8 26 -14.8 C28.6 -14.8 31.85 -14.8 33.8 -14.8 Q40.9 -14.8 44.75 -12.65 Q48.6 -10.5 48.6 -6.3 Q48.6 0.5 37.4 0.5 z" />
<glyph unicode="" horiz-adv-x="60" d="M46.1 79.2 C44.975 78.425 42.725 76.875 41.6 76.1 C38.675 79.025 32.825 84.875 29.9 87.8 C26.975 84.875 21.125 79.025 18.2 76.1 C17.125 76.875 14.975 78.425 13.9 79.2 C16.675 82.775 22.225 89.925 25 93.5 C27.5 93.5 32.5 93.5 35 93.5 C37.775 89.925 43.325 82.775 46.1 79.2 zM16.4 31.7 C16.4 23.775 16.4 7.925 16.4 0 C14.3 0 10.1 0 8 0 C8 17.45 8 52.35 8 69.8 C10.1 69.8 14.3 69.8 16.4 69.8 C16.4 62.1 16.4 46.7 16.4 39 C23.2 39 36.8 39 43.6 39 C43.6 46.7 43.6 62.1 43.6 69.8 C45.7 69.8 49.9 69.8 52 69.8 C52 52.35 52 17.45 52 0 C49.9 0 45.7 0 43.6 0 C43.6 7.925 43.6 23.775 43.6 31.7 C36.8 31.7 23.2 31.7 16.4 31.7 z" />
<glyph unicode="" horiz-adv-x="60" d="M29.9 80.4 C28.775 79.625 26.525 78.075 25.4 77.3 C22.475 80.225 16.625 86.075 13.7 89 C10.775 86.075 4.925 80.225 2 77.3 C0.925 78.075 -1.225 79.625 -2.3 80.4 C0.475 83.975 6.025 91.125 8.8 94.7 C11.3 94.7 16.3 94.7 18.8 94.7 C21.575 91.125 27.125 83.975 29.9 80.4 zM17.8 74 C17.8 66.3 17.8 50.9 17.8 43.2 C17.9 43.2 18.1 43.2 18.2 43.2 Q22.3 52.8 32.9 52.8 Q41.1 52.8 45.95 47.6 Q50.8 42.4 50.8 33.1 C50.8 22.06667 50.8 8.275 50.8 0 C48.8 0 44.8 0 42.8 0 C42.8 7.925 42.8 23.775 42.8 31.7 Q42.8 38.7 39.7 42.2 Q36.6 45.7 30.6 45.7 Q25.3 45.7 21.55 43.15 Q17.8 40.6 17.8 35.8 C17.8 23.86667 17.8 8.95 17.8 0 C15.8 0 11.8 0 9.8 0 C9.8 18.5 9.8 55.5 9.8 74 C11.8 74 15.8 74 17.8 74 z" />
<glyph unicode="" horiz-adv-x="60" d="M16.4 31.7 C16.4 23.775 16.4 7.925 16.4 0 C14.3 0 10.1 0 8 0 C8 12.95 8 38.85 8 51.8 C6.25 51.8 2.75 51.8 1 51.8 C1 53.4 1 56.6 1 58.2 C2.75 58.2 6.25 58.2 8 58.2 C8 61.1 8 66.9 8 69.8 C10.1 69.8 14.3 69.8 16.4 69.8 C16.4 66.9 16.4 61.1 16.4 58.2 C23.2 58.2 36.8 58.2 43.6 58.2 C43.6 61.1 43.6 66.9 43.6 69.8 C45.7 69.8 49.9 69.8 52 69.8 C52 66.9 52 61.1 52 58.2 C53.75 58.2 57.25 58.2 59 58.2 C59 56.6 59 53.4 59 51.8 C57.25 51.8 53.75 51.8 52 51.8 C52 38.85 52 12.95 52 0 C49.9 0 45.7 0 43.6 0 C43.6 7.925 43.6 23.775 43.6 31.7 C36.8 31.7 23.2 31.7 16.4 31.7 zM43.6 51.8 C36.8 51.8 23.2 51.8 16.4 51.8 C16.4 48.6 16.4 42.2 16.4 39 C23.2 39 36.8 39 43.6 39 C43.6 42.2 43.6 48.6 43.6 51.8 z" />
<glyph unicode="" horiz-adv-x="60" d="M9.8 60.8 C8.175 60.8 4.925 60.8 3.3 60.8 C3.3 62.35 3.3 65.45 3.3 67 C4.925 67 8.175 67 9.8 67 C9.8 68.75 9.8 72.25 9.8 74 C11.8 74 15.8 74 17.8 74 C17.8 72.25 17.8 68.75 17.8 67 C21.625 67 29.275 67 33.1 67 C33.1 65.45 33.1 62.35 33.1 60.8 C29.275 60.8 21.625 60.8 17.8 60.8 C17.8 56.4 17.8 47.6 17.8 43.2 C17.9 43.2 18.1 43.2 18.2 43.2 Q22.3 52.8 32.9 52.8 Q41.1 52.8 45.95 47.6 Q50.8 42.4 50.8 33.1 C50.8 22.06667 50.8 8.275 50.8 0 C48.8 0 44.8 0 42.8 0 C42.8 7.925 42.8 23.775 42.8 31.7 Q42.8 38.7 39.7 42.2 Q36.6 45.7 30.6 45.7 Q25.3 45.7 21.55 43.15 Q17.8 40.6 17.8 35.8 C17.8 23.86667 17.8 8.95 17.8 0 C15.8 0 11.8 0 9.8 0 C9.8 15.2 9.8 45.6 9.8 60.8 z" />
<glyph unicode="" horiz-adv-x="60" d="M33.6 78.8 Q32 79.4 30.8 80 Q29.6 80.6 29.3 80.8 Q24.8 83.2 22.3 83.2 Q20.8 83.2 19.45 82.55 Q18.1 81.9 16.5 80.5 C15.4 81.83333 14.025 83.5 13.2 84.5 Q14.7 86.8 17.1 88.3 Q19.5 89.8 22.7 89.8 Q24.8 89.8 26.4 89.2 Q28 88.6 29.2 88 Q30.4 87.4 30.7 87.2 Q35.2 84.8 37.7 84.8 Q39.3 84.8 40.6 85.45 Q41.9 86.1 43.5 87.5 C44.6 86.16667 45.975 84.5 46.8 83.5 Q45.3 81.2 42.9 79.7 Q40.5 78.2 37.3 78.2 Q35.2 78.2 33.6 78.8 zM8.4 6.7 C12.75 6.7 21.45 6.7 25.8 6.7 C25.8 20.8 25.8 49 25.8 63.1 C21.45 63.1 12.75 63.1 8.4 63.1 C8.4 64.775 8.4 68.125 8.4 69.8 C19.2 69.8 40.8 69.8 51.6 69.8 C51.6 68.125 51.6 64.775 51.6 63.1 C47.25 63.1 38.55 63.1 34.2 63.1 C34.2 49 34.2 20.8 34.2 6.7 C38.55 6.7 47.25 6.7 51.6 6.7 C51.6 5.025 51.6 1.675 51.6 0 C40.8 0 19.2 0 8.4 0 C8.4 1.675 8.4 5.025 8.4 6.7 z" />
<glyph unicode="" horiz-adv-x="60" d="M36.8 61.8 Q35.2 62.4 34 63 Q32.8 63.6 32.5 63.8 Q28 66.2 25.5 66.2 Q24 66.2 22.65 65.55 Q21.3 64.9 19.7 63.5 C18.6 64.83333 17.225 66.5 16.4 67.5 Q17.9 69.8 20.3 71.3 Q22.7 72.8 25.9 72.8 Q28 72.8 29.6 72.2 Q31.2 71.6 32.4 71 Q33.6 70.4 33.9 70.2 Q38.4 67.8 40.9 67.8 Q42.5 67.8 43.8 68.45 Q45.1 69.1 46.7 70.5 C47.8 69.16667 49.175 67.5 50 66.5 Q48.5 64.2 46.1 62.7 Q43.7 61.2 40.5 61.2 Q38.4 61.2 36.8 61.8 zM29.2 6.8 C29.2 16.3 29.2 35.3 29.2 44.8 C24.55 44.8 15.25 44.8 10.6 44.8 C10.6 46.5 10.6 49.9 10.6 51.6 C17.25 51.6 30.55 51.6 37.2 51.6 C37.2 40.4 37.2 18 37.2 6.8 C41.55 6.8 50.25 6.8 54.6 6.8 C54.6 5.1 54.6 1.7 54.6 0 C43.6 0 21.6 0 10.6 0 C10.6 1.7 10.6 5.1 10.6 6.8 C15.25 6.8 24.55 6.8 29.2 6.8 z" />
<glyph unicode="" horiz-adv-x="60" d="M44 87.5 C44 85.8 44 82.4 44 80.7 C37 80.7 23 80.7 16 80.7 C16 82.4 16 85.8 16 87.5 C23 87.5 37 87.5 44 87.5 zM8.4 6.7 C12.75 6.7 21.45 6.7 25.8 6.7 C25.8 20.8 25.8 49 25.8 63.1 C21.45 63.1 12.75 63.1 8.4 63.1 C8.4 64.775 8.4 68.125 8.4 69.8 C19.2 69.8 40.8 69.8 51.6 69.8 C51.6 68.125 51.6 64.775 51.6 63.1 C47.25 63.1 38.55 63.1 34.2 63.1 C34.2 49 34.2 20.8 34.2 6.7 C38.55 6.7 47.25 6.7 51.6 6.7 C51.6 5.025 51.6 1.675 51.6 0 C40.8 0 19.2 0 8.4 0 C8.4 1.675 8.4 5.025 8.4 6.7 z" />
<glyph unicode="" horiz-adv-x="60" d="M47.2 70.5 C47.2 68.8 47.2 65.4 47.2 63.7 C40.2 63.7 26.2 63.7 19.2 63.7 C19.2 65.4 19.2 68.8 19.2 70.5 C26.2 70.5 40.2 70.5 47.2 70.5 zM29.2 6.8 C29.2 16.3 29.2 35.3 29.2 44.8 C24.55 44.8 15.25 44.8 10.6 44.8 C10.6 46.5 10.6 49.9 10.6 51.6 C17.25 51.6 30.55 51.6 37.2 51.6 C37.2 40.4 37.2 18 37.2 6.8 C41.55 6.8 50.25 6.8 54.6 6.8 C54.6 5.1 54.6 1.7 54.6 0 C43.6 0 21.6 0 10.6 0 C10.6 1.7 10.6 5.1 10.6 6.8 C15.25 6.8 24.55 6.8 29.2 6.8 z" />
<glyph unicode="" horiz-adv-x="60" d="M19.4 80.8 Q15.9 85.1 13.9 91.6 C15.6 92.33333 17.725 93.25 19 93.8 C19.525 92.95 20.575 91.25 21.1 90.4 Q23 87.3 24.05 85.9 Q25.1 84.5 26.5 83.7 Q27.9 83 30 83 Q32.1 83 33.5 83.75 Q34.9 84.5 35.9 85.9 Q37 87.3 38.9 90.4 C39.6 91.53333 40.475 92.95 41 93.8 C42.275 93.25 44.825 92.15 46.1 91.6 Q44.1 85.1 40.6 80.8 Q37.1 76.5 30 76.5 Q22.9 76.5 19.4 80.8 zM8.4 6.7 C12.75 6.7 21.45 6.7 25.8 6.7 C25.8 20.8 25.8 49 25.8 63.1 C21.45 63.1 12.75 63.1 8.4 63.1 C8.4 64.775 8.4 68.125 8.4 69.8 C19.2 69.8 40.8 69.8 51.6 69.8 C51.6 68.125 51.6 64.775 51.6 63.1 C47.25 63.1 38.55 63.1 34.2 63.1 C34.2 49 34.2 20.8 34.2 6.7 C38.55 6.7 47.25 6.7 51.6 6.7 C51.6 5.025 51.6 1.675 51.6 0 C40.8 0 19.2 0 8.4 0 C8.4 1.675 8.4 5.025 8.4 6.7 z" />
<glyph unicode="" horiz-adv-x="60" d="M22.6 63.8 Q19.1 68.1 17.1 74.6 C18.8 75.33333 20.925 76.25 22.2 76.8 C22.725 75.95 23.775 74.25 24.3 73.4 Q26.2 70.3 27.25 68.9 Q28.3 67.5 29.7 66.7 Q31.1 66 33.2 66 Q35.3 66 36.7 66.75 Q38.1 67.5 39.1 68.9 Q40.2 70.3 42.1 73.4 C42.8 74.53333 43.675 75.95 44.2 76.8 C45.475 76.25 48.025 75.15 49.3 74.6 Q47.3 68.1 43.8 63.8 Q40.3 59.5 33.2 59.5 Q26.1 59.5 22.6 63.8 zM29.2 6.8 C29.2 16.3 29.2 35.3 29.2 44.8 C24.55 44.8 15.25 44.8 10.6 44.8 C10.6 46.5 10.6 49.9 10.6 51.6 C17.25 51.6 30.55 51.6 37.2 51.6 C37.2 40.4 37.2 18 37.2 6.8 C41.55 6.8 50.25 6.8 54.6 6.8 C54.6 5.1 54.6 1.7 54.6 0 C43.6 0 21.6 0 10.6 0 C10.6 1.7 10.6 5.1 10.6 6.8 C15.25 6.8 24.55 6.8 29.2 6.8 z" />
<glyph unicode="" horiz-adv-x="60" d="M25.8 6.7 C25.8 20.8 25.8 49 25.8 63.1 C21.45 63.1 12.75 63.1 8.4 63.1 C8.4 64.775 8.4 68.125 8.4 69.8 C19.2 69.8 40.8 69.8 51.6 69.8 C51.6 68.125 51.6 64.775 51.6 63.1 C47.25 63.1 38.55 63.1 34.2 63.1 C34.2 49 34.2 20.8 34.2 6.7 C38.55 6.7 47.25 6.7 51.6 6.7 C51.6 5.025 51.6 1.675 51.6 0 Q44.7 -4.4 42.5 -6.95 Q40.3 -9.5 40.3 -11.4 Q40.3 -13.3 41.5 -14.2 Q42.7 -15.1 44.5 -15.1 Q47.6 -15.1 49.7 -12.5 C51.03333 -13.86667 52.7 -15.575 53.7 -16.6 Q52.6 -18.4 50.25 -19.55 Q47.9 -20.7 44.4 -20.7 Q39.6 -20.7 36.55 -18.6 Q33.5 -16.5 33.5 -12.7 Q33.5 -5.8 45 -0.3 C44.96667 -0.2 44.925 -0.075 44.9 0 C35.775 0 17.525 0 8.4 0 C8.4 1.675 8.4 5.025 8.4 6.7 C12.75 6.7 21.45 6.7 25.8 6.7 z" />
<glyph unicode="" horiz-adv-x="60" d="M28.4 64.4 Q26.9 65.8 26.9 68.1 C26.9 68.63333 26.9 69.3 26.9 69.7 Q26.9 72 28.4 73.4 Q29.9 74.8 33.2 74.8 Q36.5 74.8 38 73.4 Q39.5 72 39.5 69.7 C39.5 69.16667 39.5 68.5 39.5 68.1 Q39.5 65.8 38 64.4 Q36.5 63 33.2 63 Q29.9 63 28.4 64.4 zM39.5 -18.6 Q36.5 -16.5 36.5 -12.7 Q36.5 -5.8 48 -0.3 C47.96667 -0.2 47.925 -0.075 47.9 0 C38.575 0 19.925 0 10.6 0 C10.6 1.7 10.6 5.1 10.6 6.8 C15.25 6.8 24.55 6.8 29.2 6.8 C29.2 16.3 29.2 35.3 29.2 44.8 C24.55 44.8 15.25 44.8 10.6 44.8 C10.6 46.5 10.6 49.9 10.6 51.6 C17.25 51.6 30.55 51.6 37.2 51.6 C37.2 40.4 37.2 18 37.2 6.8 C41.55 6.8 50.25 6.8 54.6 6.8 C54.6 5.1 54.6 1.7 54.6 0 Q47.7 -4.4 45.5 -6.95 Q43.3 -9.5 43.3 -11.4 Q43.3 -13.3 44.5 -14.2 Q45.7 -15.1 47.5 -15.1 Q50.6 -15.1 52.7 -12.5 C54.03333 -13.86667 55.7 -15.575 56.7 -16.6 Q55.6 -18.4 53.25 -19.55 Q50.9 -20.7 47.4 -20.7 Q42.6 -20.7 39.5 -18.6 z" />
<glyph unicode="" horiz-adv-x="60" d="M25.2 79.6 Q23.7 81 23.7 83.3 C23.7 83.83333 23.7 84.5 23.7 84.9 Q23.7 87.2 25.2 88.6 Q26.7 90 30 90 Q33.3 90 34.8 88.6 Q36.3 87.2 36.3 84.9 C36.3 84.36667 36.3 83.7 36.3 83.3 Q36.3 81 34.8 79.6 Q33.3 78.2 30 78.2 Q26.7 78.2 25.2 79.6 zM8.4 6.7 C12.75 6.7 21.45 6.7 25.8 6.7 C25.8 20.8 25.8 49 25.8 63.1 C21.45 63.1 12.75 63.1 8.4 63.1 C8.4 64.775 8.4 68.125 8.4 69.8 C19.2 69.8 40.8 69.8 51.6 69.8 C51.6 68.125 51.6 64.775 51.6 63.1 C47.25 63.1 38.55 63.1 34.2 63.1 C34.2 49 34.2 20.8 34.2 6.7 C38.55 6.7 47.25 6.7 51.6 6.7 C51.6 5.025 51.6 1.675 51.6 0 C40.8 0 19.2 0 8.4 0 C8.4 1.675 8.4 5.025 8.4 6.7 z" />
<glyph unicode="" horiz-adv-x="60" d="M29.2 6.8 C29.2 16.3 29.2 35.3 29.2 44.8 C24.55 44.8 15.25 44.8 10.6 44.8 C10.6 46.5 10.6 49.9 10.6 51.6 C17.25 51.6 30.55 51.6 37.2 51.6 C37.2 40.4 37.2 18 37.2 6.8 C41.55 6.8 50.25 6.8 54.6 6.8 C54.6 5.1 54.6 1.7 54.6 0 C43.6 0 21.6 0 10.6 0 C10.6 1.7 10.6 5.1 10.6 6.8 C15.25 6.8 24.55 6.8 29.2 6.8 z" />
<glyph unicode="" horiz-adv-x="60" d="M51 19.1 Q51 13 48.25 8.4 Q45.5 3.8 40.6 1.3 Q35.7 -1.2 29.3 -1.2 Q21.1 -1.2 15.6 2.9 Q10.1 7 8.5 14.5 C11.3 15.2 14.8 16.075 16.9 16.6 Q18 11.9 20.85 9.05 Q23.7 6.2 29.6 6.2 Q35.9 6.2 39.25 9.8 Q42.6 13.4 42.6 20.6 C42.6 37 42.6 57.5 42.6 69.8 C44.7 69.8 48.9 69.8 51 69.8 C51 57.125 51 31.775 51 19.1 zM17.4 69.8 C17.4 59.6 17.4 39.2 17.4 29 C15.3 29 11.1 29 9 29 C9 39.2 9 59.6 9 69.8 C11.1 69.8 15.3 69.8 17.4 69.8 z" />
<glyph unicode="" horiz-adv-x="60" d="M9.7 64.4 Q8.2 65.8 8.2 68.1 C8.2 68.63333 8.2 69.3 8.2 69.7 Q8.2 72 9.7 73.4 Q11.2 74.8 14.5 74.8 Q17.8 74.8 19.3 73.4 Q20.8 72 20.8 69.7 C20.8 69.16667 20.8 68.5 20.8 68.1 Q20.8 65.8 19.3 64.4 Q17.8 63 14.5 63 Q11.2 63 9.7 64.4 zM40.7 64.4 Q39.2 65.8 39.2 68.1 C39.2 68.63333 39.2 69.3 39.2 69.7 Q39.2 72 40.7 73.4 Q42.2 74.8 45.5 74.8 Q48.8 74.8 50.3 73.4 Q51.8 72 51.8 69.7 C51.8 69.16667 51.8 68.5 51.8 68.1 Q51.8 65.8 50.3 64.4 Q48.8 63 45.5 63 Q42.2 63 40.7 64.4 zM18.5 51.6 C18.5 38.7 18.5 12.9 18.5 0 C16.5 0 12.5 0 10.5 0 C10.5 12.9 10.5 38.7 10.5 51.6 C12.5 51.6 16.5 51.6 18.5 51.6 zM41.5 -13.2 C41.5 3 41.5 35.4 41.5 51.6 C43.5 51.6 47.5 51.6 49.5 51.6 C49.5 36.65 49.5 6.75 49.5 -8.2 Q49.5 -13.6 46.6 -16.8 Q43.7 -20 38.1 -20 C31.56667 -20 23.4 -20 18.5 -20 C18.5 -18.3 18.5 -14.9 18.5 -13.2 C24.25 -13.2 35.75 -13.2 41.5 -13.2 z" />
<glyph unicode="" horiz-adv-x="60" d="M47.4 79.2 C46.275 78.425 44.025 76.875 42.9 76.1 C39.975 79.025 34.125 84.875 31.2 87.8 C28.275 84.875 22.425 79.025 19.5 76.1 C18.425 76.875 16.275 78.425 15.2 79.2 C17.975 82.775 23.525 89.925 26.3 93.5 C28.8 93.5 33.8 93.5 36.3 93.5 C39.075 89.925 44.625 82.775 47.4 79.2 zM48 18.1 Q48 12.3 45.4 7.9 Q42.8 3.5 38.1 1.1 Q33.4 -1.2 27.4 -1.2 Q19.5 -1.2 14.25 2.95 Q9 7.1 7.4 14.6 C10.06667 15.16667 13.4 15.875 15.4 16.3 Q16.5 11.6 19.35 8.9 Q22.2 6.2 27.6 6.2 Q33.4 6.2 36.5 9.55 Q39.6 12.9 39.6 19.6 C39.6 33.9 39.6 51.775 39.6 62.5 C33.3 62.5 20.7 62.5 14.4 62.5 C14.4 64.325 14.4 67.975 14.4 69.8 C22.8 69.8 39.6 69.8 48 69.8 C48 56.875 48 31.025 48 18.1 z" />
<glyph unicode="" horiz-adv-x="60" d="M55.3 62.2 C54.175 61.425 51.925 59.875 50.8 59.1 C47.875 62.025 42.025 67.875 39.1 70.8 C36.175 67.875 30.325 62.025 27.4 59.1 C26.325 59.875 24.175 61.425 23.1 62.2 C25.875 65.775 31.425 72.925 34.2 76.5 C36.7 76.5 41.7 76.5 44.2 76.5 C46.975 72.925 52.525 65.775 55.3 62.2 zM30.6 -11.1 Q35 -7.1 35 -2.7 Q35 -2.7 35.2 15.6 C35.2 25.33333 35.2 37.5 35.2 44.8 C28.725 44.8 15.775 44.8 9.3 44.8 C9.3 46.5 9.3 49.9 9.3 51.6 C17.775 51.6 34.725 51.6 43.2 51.6 C43.175 35.975 43.125 4.725 43.1 -10.9 C42.375 -12.075 40.925 -14.425 40.2 -15.6 C39.275 -16.4 37.425 -18 36.5 -18.8 Q25.2 -20.8 16.1 -17.6 C13.23333 -16.6 9.65 -15.35 7.5 -14.6 C8.1 -12.65 9.3 -8.75 9.9 -6.8 C10.825 -7.05 12.675 -7.55 13.6 -7.8 C15.675 -8.525 19.825 -9.975 21.9 -10.7 C24.075 -10.8 28.425 -11 30.6 -11.1 z" />
<glyph unicode="" horiz-adv-x="60" d="M16.9 22.4 C16.9 16.8 16.9 5.6 16.9 0 C14.8 0 10.6 0 8.5 0 C8.5 17.45 8.5 52.35 8.5 69.8 C10.6 69.8 14.8 69.8 16.9 69.8 C16.9 60.7 16.9 42.5 16.9 33.4 C16.975 33.4 17.125 33.4 17.2 33.4 C19.5 36.3 24.1 42.1 26.4 45 C31.55 51.2 41.85 63.6 47 69.8 C49.525 69.8 54.575 69.8 57.1 69.8 C50.975 62.45 38.725 47.75 32.6 40.4 C38.9 30.3 51.5 10.1 57.8 0 C55.35 0 50.45 0 48 0 C42.725 8.55 32.175 25.65 26.9 34.2 C24.4 31.25 19.4 25.35 16.9 22.4 zM37.9 -6.2 C36 -10.925 32.2 -20.375 30.3 -25.1 C28.775 -25.1 25.725 -25.1 24.2 -25.1 C24.9 -20.375 26.3 -10.925 27 -6.2 C29.725 -6.2 35.175 -6.2 37.9 -6.2 z" />
<glyph unicode="" horiz-adv-x="60" d="M18.5 74 C18.5 62.325 18.5 38.975 18.5 27.3 C18.6 27.3 18.8 27.3 18.9 27.3 C21.15 29.425 25.65 33.675 27.9 35.8 C32.2 39.75 40.8 47.65 45.1 51.6 C47.55 51.6 52.45 51.6 54.9 51.6 C49.55 46.55 38.85 36.45 33.5 31.4 C39.475 23.55 51.425 7.85 57.4 0 C54.925 0 49.975 0 47.5 0 C42.475 6.7 32.425 20.1 27.4 26.8 C25.175 24.775 20.725 20.725 18.5 18.7 C18.5 14.025 18.5 4.675 18.5 0 C16.5 0 12.5 0 10.5 0 C10.5 18.5 10.5 55.5 10.5 74 C12.5 74 16.5 74 18.5 74 zM38 -6.2 C36.1 -10.925 32.3 -20.375 30.4 -25.1 C28.875 -25.1 25.825 -25.1 24.3 -25.1 C25 -20.375 26.4 -10.925 27.1 -6.2 C29.825 -6.2 35.275 -6.2 38 -6.2 z" />
<glyph unicode="" horiz-adv-x="60" d="M18.6 16.5 C18.6 12.375 18.6 4.125 18.6 0 C16.6 0 12.6 0 10.6 0 C10.6 12.9 10.6 38.7 10.6 51.6 C12.6 51.6 16.6 51.6 18.6 51.6 C18.6 45.075 18.6 32.025 18.6 25.5 C18.7 25.5 18.9 25.5 19 25.5 C25.625 32.025 38.875 45.075 45.5 51.6 C47.95 51.6 52.85 51.6 55.3 51.6 C49.95 46.35 39.25 35.85 33.9 30.6 C39.875 22.95 51.825 7.65 57.8 0 C55.325 0 50.375 0 47.9 0 C43 6.325 33.2 18.975 28.3 25.3 C25.875 23.1 21.025 18.7 18.6 16.5 z" />
<glyph unicode="" horiz-adv-x="60" d="M11.7 77.9 C13.825 82.15 18.075 90.65 20.2 94.9 C22.025 94.025 25.675 92.275 27.5 91.4 C24.85 87.425 19.55 79.475 16.9 75.5 C15.6 76.1 13 77.3 11.7 77.9 zM12 69.8 C14.1 69.8 18.3 69.8 20.4 69.8 C20.4 54.175 20.4 22.925 20.4 7.3 C28.675 7.3 45.225 7.3 53.5 7.3 C53.5 5.475 53.5 1.825 53.5 0 C43.125 0 22.375 0 12 0 C12 17.45 12 52.35 12 69.8 z" />
<glyph unicode="" horiz-adv-x="60" d="M25.5 79.1 C27.625 83.35 31.875 91.85 34 96.1 C35.825 95.225 39.475 93.475 41.3 92.6 C38.65 88.625 33.35 80.675 30.7 76.7 C29.4 77.3 26.8 78.5 25.5 79.1 zM26 6.8 C26 21.9 26 52.1 26 67.2 C21.5 67.2 12.5 67.2 8 67.2 C8 68.9 8 72.3 8 74 C14.5 74 27.5 74 34 74 C34 57.2 34 23.6 34 6.8 C38.5 6.8 47.5 6.8 52 6.8 C52 5.1 52 1.7 52 0 C41 0 19 0 8 0 C8 1.7 8 5.1 8 6.8 C12.5 6.8 21.5 6.8 26 6.8 z" />
<glyph unicode="" horiz-adv-x="60" d="M12 69.8 C14.1 69.8 18.3 69.8 20.4 69.8 C20.4 54.175 20.4 22.925 20.4 7.3 C28.675 7.3 45.225 7.3 53.5 7.3 C53.5 5.475 53.5 1.825 53.5 0 C43.125 0 22.375 0 12 0 C12 17.45 12 52.35 12 69.8 zM38.4 -6.2 C36.5 -10.925 32.7 -20.375 30.8 -25.1 C29.275 -25.1 26.225 -25.1 24.7 -25.1 C25.4 -20.375 26.8 -10.925 27.5 -6.2 C30.225 -6.2 35.675 -6.2 38.4 -6.2 z" />
<glyph unicode="" horiz-adv-x="60" d="M26 6.8 C26 21.9 26 52.1 26 67.2 C21.5 67.2 12.5 67.2 8 67.2 C8 68.9 8 72.3 8 74 C14.5 74 27.5 74 34 74 C34 57.2 34 23.6 34 6.8 C38.5 6.8 47.5 6.8 52 6.8 C52 5.1 52 1.7 52 0 C41 0 19 0 8 0 C8 1.7 8 5.1 8 6.8 C12.5 6.8 21.5 6.8 26 6.8 zM35.7 -6.2 C33.8 -10.925 30 -20.375 28.1 -25.1 C26.575 -25.1 23.525 -25.1 22 -25.1 C22.7 -20.375 24.1 -10.925 24.8 -6.2 C27.525 -6.2 32.975 -6.2 35.7 -6.2 z" />
<glyph unicode="" horiz-adv-x="60" d="M29 55.1 C29.175 59.825 29.525 69.275 29.7 74 C32.275 74 37.425 74 40 74 C38.775 69.275 36.325 59.825 35.1 55.1 C33.575 55.1 30.525 55.1 29 55.1 zM12 69.8 C14.1 69.8 18.3 69.8 20.4 69.8 C20.4 54.175 20.4 22.925 20.4 7.3 C28.675 7.3 45.225 7.3 53.5 7.3 C53.5 5.475 53.5 1.825 53.5 0 C43.125 0 22.375 0 12 0 C12 17.45 12 52.35 12 69.8 z" />
<glyph unicode="" horiz-adv-x="60" d="M26 6.8 C26 21.9 26 52.1 26 67.2 C21.5 67.2 12.5 67.2 8 67.2 C8 68.9 8 72.3 8 74 C14.5 74 27.5 74 34 74 C34 57.2 34 23.6 34 6.8 C38.5 6.8 47.5 6.8 52 6.8 C52 5.1 52 1.7 52 0 C41 0 19 0 8 0 C8 1.7 8 5.1 8 6.8 C12.5 6.8 21.5 6.8 26 6.8 zM42.6 55.1 C42.775 59.825 43.125 69.275 43.3 74 C45.875 74 51.025 74 53.6 74 C52.375 69.275 49.925 59.825 48.7 55.1 C47.175 55.1 44.125 55.1 42.6 55.1 z" />
<glyph unicode="" horiz-adv-x="60" d="M12 69.8 C14.1 69.8 18.3 69.8 20.4 69.8 C20.4 54.175 20.4 22.925 20.4 7.3 C28.675 7.3 45.225 7.3 53.5 7.3 C53.5 5.475 53.5 1.825 53.5 0 C43.125 0 22.375 0 12 0 C12 17.45 12 52.35 12 69.8 zM38.7 28 Q37.2 29.4 37.2 31.7 C37.2 32.23333 37.2 32.9 37.2 33.3 Q37.2 35.6 38.7 37 Q40.2 38.4 43.5 38.4 Q46.8 38.4 48.3 37 Q49.8 35.6 49.8 33.3 C49.8 32.76667 49.8 32.1 49.8 31.7 Q49.8 29.4 48.3 28 Q46.8 26.6 43.5 26.6 Q40.2 26.6 38.7 28 z" />
<glyph unicode="" horiz-adv-x="60" d="M26 6.8 C26 21.9 26 52.1 26 67.2 C21.5 67.2 12.5 67.2 8 67.2 C8 68.9 8 72.3 8 74 C14.5 74 27.5 74 34 74 C34 57.2 34 23.6 34 6.8 C38.5 6.8 47.5 6.8 52 6.8 C52 5.1 52 1.7 52 0 C41 0 19 0 8 0 C8 1.7 8 5.1 8 6.8 C12.5 6.8 21.5 6.8 26 6.8 zM46.6 26 Q45.1 27.4 45.1 29.7 C45.1 30.23333 45.1 30.9 45.1 31.3 Q45.1 33.6 46.6 35 Q48.1 36.4 51.4 36.4 Q54.7 36.4 56.2 35 Q57.7 33.6 57.7 31.3 C57.7 30.76667 57.7 30.1 57.7 29.7 Q57.7 27.4 56.2 26 Q54.7 24.6 51.4 24.6 Q48.1 24.6 46.6 26 z" />
<glyph unicode="" horiz-adv-x="60" d="M12 0 C12 6.775 12 20.325 12 27.1 C10 26.45 6 25.15 4 24.5 C4 26.225 4 29.675 4 31.4 C6 32.05 10 33.35 12 34 C12 42.95 12 60.85 12 69.8 C14.1 69.8 18.3 69.8 20.4 69.8 C20.4 61.45 20.4 44.75 20.4 36.4 C25.675 38.125 36.225 41.575 41.5 43.3 C41.5 41.575 41.5 38.125 41.5 36.4 C36.225 34.675 25.675 31.225 20.4 29.5 C20.4 23.95 20.4 12.85 20.4 7.3 C28.675 7.3 45.225 7.3 53.5 7.3 C53.5 5.475 53.5 1.825 53.5 0 C43.125 0 22.375 0 12 0 z" />
<glyph unicode="" horiz-adv-x="60" d="M26 6.8 C26 12.3 26 23.3 26 28.8 C22.175 27.55 14.525 25.05 10.7 23.8 C10.7 25.475 10.7 28.825 10.7 30.5 C14.525 31.75 22.175 34.25 26 35.5 C26 43.425 26 59.275 26 67.2 C21.5 67.2 12.5 67.2 8 67.2 C8 68.9 8 72.3 8 74 C14.5 74 27.5 74 34 74 C34 64.95 34 46.85 34 37.8 C37.825 39.05 45.475 41.55 49.3 42.8 C49.3 41.125 49.3 37.775 49.3 36.1 C45.475 34.85 37.825 32.35 34 31.1 C34 25.025 34 12.875 34 6.8 C38.5 6.8 47.5 6.8 52 6.8 C52 5.1 52 1.7 52 0 C41 0 19 0 8 0 C8 1.7 8 5.1 8 6.8 C12.5 6.8 21.5 6.8 26 6.8 z" />
<glyph unicode="" horiz-adv-x="60" d="M25.5 77.9 C27.625 82.15 31.875 90.65 34 94.9 C35.825 94.025 39.475 92.275 41.3 91.4 C38.65 87.425 33.35 79.475 30.7 75.5 C29.4 76.1 26.8 77.3 25.5 77.9 zM15.6 59.1 C15.6 44.325 15.6 14.775 15.6 0 C13.7 0 9.9 0 8 0 C8 17.45 8 52.35 8 69.8 C10.975 69.8 16.925 69.8 19.9 69.8 C25.85 55.175 37.75 25.925 43.7 11.3 C43.875 11.3 44.225 11.3 44.4 11.3 C44.4 25.925 44.4 55.175 44.4 69.8 C46.3 69.8 50.1 69.8 52 69.8 C52 52.35 52 17.45 52 0 C49.025 0 43.075 0 40.1 0 C34.15 14.775 22.25 44.325 16.3 59.1 C16.125 59.1 15.775 59.1 15.6 59.1 z" />
<glyph unicode="" horiz-adv-x="60" d="M25.8 60.9 C27.925 65.15 32.175 73.65 34.3 77.9 C36.125 77.025 39.775 75.275 41.6 74.4 C38.95 70.425 33.65 62.475 31 58.5 C29.7 59.1 27.1 60.3 25.8 60.9 zM9.8 51.6 C11.8 51.6 15.8 51.6 17.8 51.6 C17.8 49.5 17.8 45.3 17.8 43.2 C17.9 43.2 18.1 43.2 18.2 43.2 Q22.3 52.8 32.9 52.8 Q41.1 52.8 45.95 47.6 Q50.8 42.4 50.8 33.1 C50.8 22.06667 50.8 8.275 50.8 0 C48.8 0 44.8 0 42.8 0 C42.8 7.925 42.8 23.775 42.8 31.7 Q42.8 38.7 39.7 42.2 Q36.6 45.7 30.6 45.7 Q25.3 45.7 21.55 43.15 Q17.8 40.6 17.8 35.8 C17.8 23.86667 17.8 8.95 17.8 0 C15.8 0 11.8 0 9.8 0 C9.8 12.9 9.8 38.7 9.8 51.6 z" />
<glyph unicode="" horiz-adv-x="60" d="M15.6 59.1 C15.6 44.325 15.6 14.775 15.6 0 C13.7 0 9.9 0 8 0 C8 17.45 8 52.35 8 69.8 C10.975 69.8 16.925 69.8 19.9 69.8 C25.85 55.175 37.75 25.925 43.7 11.3 C43.875 11.3 44.225 11.3 44.4 11.3 C44.4 25.925 44.4 55.175 44.4 69.8 C46.3 69.8 50.1 69.8 52 69.8 C52 52.35 52 17.45 52 0 C49.025 0 43.075 0 40.1 0 C34.15 14.775 22.25 44.325 16.3 59.1 C16.125 59.1 15.775 59.1 15.6 59.1 zM35.7 -6.2 C33.8 -10.925 30 -20.375 28.1 -25.1 C26.575 -25.1 23.525 -25.1 22 -25.1 C22.7 -20.375 24.1 -10.925 24.8 -6.2 C27.525 -6.2 32.975 -6.2 35.7 -6.2 z" />
<glyph unicode="" horiz-adv-x="60" d="M9.8 51.6 C11.8 51.6 15.8 51.6 17.8 51.6 C17.8 49.5 17.8 45.3 17.8 43.2 C17.9 43.2 18.1 43.2 18.2 43.2 Q22.3 52.8 32.9 52.8 Q41.1 52.8 45.95 47.6 Q50.8 42.4 50.8 33.1 C50.8 22.06667 50.8 8.275 50.8 0 C48.8 0 44.8 0 42.8 0 C42.8 7.925 42.8 23.775 42.8 31.7 Q42.8 38.7 39.7 42.2 Q36.6 45.7 30.6 45.7 Q25.3 45.7 21.55 43.15 Q17.8 40.6 17.8 35.8 C17.8 23.86667 17.8 8.95 17.8 0 C15.8 0 11.8 0 9.8 0 C9.8 12.9 9.8 38.7 9.8 51.6 zM36 -6.2 C34.1 -10.925 30.3 -20.375 28.4 -25.1 C26.875 -25.1 23.825 -25.1 22.3 -25.1 C23 -20.375 24.4 -10.925 25.1 -6.2 C27.825 -6.2 33.275 -6.2 36 -6.2 z" />
<glyph unicode="" horiz-adv-x="60" d="M13.9 91.2 C15.025 91.975 17.275 93.525 18.4 94.3 C21.325 91.375 27.175 85.525 30.1 82.6 C33.025 85.525 38.875 91.375 41.8 94.3 C42.875 93.525 45.025 91.975 46.1 91.2 C43.325 87.625 37.775 80.475 35 76.9 C32.5 76.9 27.5 76.9 25 76.9 C22.225 80.475 16.675 87.625 13.9 91.2 zM15.6 59.1 C15.6 44.325 15.6 14.775 15.6 0 C13.7 0 9.9 0 8 0 C8 17.45 8 52.35 8 69.8 C10.975 69.8 16.925 69.8 19.9 69.8 C25.85 55.175 37.75 25.925 43.7 11.3 C43.875 11.3 44.225 11.3 44.4 11.3 C44.4 25.925 44.4 55.175 44.4 69.8 C46.3 69.8 50.1 69.8 52 69.8 C52 52.35 52 17.45 52 0 C49.025 0 43.075 0 40.1 0 C34.15 14.775 22.25 44.325 16.3 59.1 C16.125 59.1 15.775 59.1 15.6 59.1 z" />
<glyph unicode="" horiz-adv-x="60" d="M14.2 74.2 C15.35 74.975 17.65 76.525 18.8 77.3 C21.725 74.375 27.575 68.525 30.5 65.6 C33.425 68.525 39.275 74.375 42.2 77.3 C43.25 76.525 45.35 74.975 46.4 74.2 C43.625 70.625 38.075 63.475 35.3 59.9 C32.8 59.9 27.8 59.9 25.3 59.9 C22.525 63.475 16.975 70.625 14.2 74.2 zM9.8 51.6 C11.8 51.6 15.8 51.6 17.8 51.6 C17.8 49.5 17.8 45.3 17.8 43.2 C17.9 43.2 18.1 43.2 18.2 43.2 Q22.3 52.8 32.9 52.8 Q41.1 52.8 45.95 47.6 Q50.8 42.4 50.8 33.1 C50.8 22.06667 50.8 8.275 50.8 0 C48.8 0 44.8 0 42.8 0 C42.8 7.925 42.8 23.775 42.8 31.7 Q42.8 38.7 39.7 42.2 Q36.6 45.7 30.6 45.7 Q25.3 45.7 21.55 43.15 Q17.8 40.6 17.8 35.8 C17.8 23.86667 17.8 8.95 17.8 0 C15.8 0 11.8 0 9.8 0 C9.8 12.9 9.8 38.7 9.8 51.6 z" />
<glyph unicode="" horiz-adv-x="60" d="M10.5 74 C9.2 69.375 6.6 60.125 5.3 55.5 C3.975 55.5 1.325 55.5 0 55.5 C0.3 60.125 0.9 69.375 1.2 74 C3.525 74 8.175 74 10.5 74 zM17.8 51.6 C17.8 49.5 17.8 45.3 17.8 43.2 C17.9 43.2 18.1 43.2 18.2 43.2 Q22.3 52.8 32.9 52.8 Q41.1 52.8 45.95 47.6 Q50.8 42.4 50.8 33.1 C50.8 22.06667 50.8 8.275 50.8 0 C48.8 0 44.8 0 42.8 0 C42.8 7.925 42.8 23.775 42.8 31.7 Q42.8 38.7 39.7 42.2 Q36.6 45.7 30.6 45.7 Q25.3 45.7 21.55 43.15 Q17.8 40.6 17.8 35.8 C17.8 23.86667 17.8 8.95 17.8 0 C15.8 0 11.8 0 9.8 0 C9.8 12.9 9.8 38.7 9.8 51.6 C11.8 51.6 15.8 51.6 17.8 51.6 z" />
<glyph unicode="" horiz-adv-x="60" d="M8 69.8 C10.975 69.8 16.925 69.8 19.9 69.8 C25.85 55.175 37.75 25.925 43.7 11.3 C43.875 11.3 44.225 11.3 44.4 11.3 C44.4 25.925 44.4 55.175 44.4 69.8 C46.3 69.8 50.1 69.8 52 69.8 C52 50.3 52 11.3 52 -8.2 Q52 -13.6 49.1 -16.8 Q46.2 -20 40.6 -20 C32.3 -20 21.925 -20 15.7 -20 C15.7 -18.3 15.7 -14.9 15.7 -13.2 C22.875 -13.2 37.225 -13.2 44.4 -13.2 C44.4 -9.9 44.4 -3.3 44.4 0 C43.325 0 41.175 0 40.1 0 C34.15 14.775 22.25 44.325 16.3 59.1 C16.125 59.1 15.775 59.1 15.6 59.1 C15.6 44.325 15.6 14.775 15.6 0 C13.7 0 9.9 0 8 0 C8 17.45 8 52.35 8 69.8 z" />
<glyph unicode="" horiz-adv-x="60" d="M42.8 -13.2 C42.8 -1.975 42.8 20.475 42.8 31.7 Q42.8 38.7 39.7 42.2 Q36.6 45.7 30.6 45.7 Q25.3 45.7 21.55 43.15 Q17.8 40.6 17.8 35.8 C17.8 23.86667 17.8 8.95 17.8 0 C15.8 0 11.8 0 9.8 0 C9.8 12.9 9.8 38.7 9.8 51.6 C11.8 51.6 15.8 51.6 17.8 51.6 C17.8 49.5 17.8 45.3 17.8 43.2 C17.9 43.2 18.1 43.2 18.2 43.2 Q22.3 52.8 32.9 52.8 Q41.1 52.8 45.95 47.6 Q50.8 42.4 50.8 33.1 C50.8 19.33333 50.8 2.125 50.8 -8.2 Q50.8 -13.6 47.9 -16.8 Q45 -20 39.4 -20 C32.2 -20 23.2 -20 17.8 -20 C17.8 -18.3 17.8 -14.9 17.8 -13.2 C24.05 -13.2 36.55 -13.2 42.8 -13.2 z" />
<glyph unicode="" horiz-adv-x="60" d="M44 87.5 C44 85.8 44 82.4 44 80.7 C37 80.7 23 80.7 16 80.7 C16 82.4 16 85.8 16 87.5 C23 87.5 37 87.5 44 87.5 zM5.6 34.9 Q5.6 71 30 71 Q54.4 71 54.4 34.9 Q54.4 -1.2 30 -1.2 Q5.6 -1.2 5.6 34.9 zM41.7 12.1 Q45.5 18.2 45.5 29.2 C45.5 33 45.5 37.75 45.5 40.6 Q45.5 51.6 41.75 57.65 Q38 63.7 30 63.7 Q22 63.7 18.25 57.65 Q14.5 51.6 14.5 40.6 C14.5 36.8 14.5 32.05 14.5 29.2 Q14.5 18.2 18.25 12.15 Q22 6.1 30 6.1 Q38 6.1 41.7 12.1 z" />
<glyph unicode="" horiz-adv-x="60" d="M44 70.5 C44 68.8 44 65.4 44 63.7 C37 63.7 23 63.7 16 63.7 C16 65.4 16 68.8 16 70.5 C23 70.5 37 70.5 44 70.5 zM17.5 2.1 Q12.3 5.4 9.45 11.5 Q6.6 17.6 6.6 25.8 Q6.6 34 9.45 40.1 Q12.3 46.2 17.5 49.5 Q22.8 52.8 30 52.8 Q37.2 52.8 42.45 49.5 Q47.7 46.2 50.5 40.1 Q53.4 34 53.4 25.8 Q53.4 17.6 50.55 11.5 Q47.7 5.4 42.4 2.1 Q37.2 -1.2 30 -1.2 Q22.8 -1.2 17.5 2.1 zM40.9 9.8 Q44.9 14 44.9 22.1 C44.9 24.56667 44.9 27.65 44.9 29.5 Q44.9 37.6 40.9 41.75 Q36.9 45.9 30 45.9 Q23.1 45.9 19.1 41.75 Q15.1 37.6 15.1 29.5 C15.1 27.03333 15.1 23.95 15.1 22.1 Q15.1 14 19.1 9.85 Q23.1 5.7 30 5.7 Q36.9 5.7 40.9 9.8 z" />
<glyph unicode="" horiz-adv-x="60" d="M19.4 80.8 Q15.9 85.1 13.9 91.6 C15.6 92.33333 17.725 93.25 19 93.8 C19.525 92.95 20.575 91.25 21.1 90.4 Q23 87.3 24.05 85.9 Q25.1 84.5 26.5 83.7 Q27.9 83 30 83 Q32.1 83 33.5 83.75 Q34.9 84.5 35.9 85.9 Q37 87.3 38.9 90.4 C39.6 91.53333 40.475 92.95 41 93.8 C42.275 93.25 44.825 92.15 46.1 91.6 Q44.1 85.1 40.6 80.8 Q37.1 76.5 30 76.5 Q22.9 76.5 19.4 80.8 zM5.6 34.9 Q5.6 71 30 71 Q54.4 71 54.4 34.9 Q54.4 -1.2 30 -1.2 Q5.6 -1.2 5.6 34.9 zM41.7 12.1 Q45.5 18.2 45.5 29.2 C45.5 33 45.5 37.75 45.5 40.6 Q45.5 51.6 41.75 57.65 Q38 63.7 30 63.7 Q22 63.7 18.25 57.65 Q14.5 51.6 14.5 40.6 C14.5 36.8 14.5 32.05 14.5 29.2 Q14.5 18.2 18.25 12.15 Q22 6.1 30 6.1 Q38 6.1 41.7 12.1 z" />
<glyph unicode="" horiz-adv-x="60" d="M19.4 63.8 Q15.9 68.1 13.9 74.6 C15.6 75.33333 17.725 76.25 19 76.8 C19.525 75.95 20.575 74.25 21.1 73.4 Q23 70.3 24.05 68.9 Q25.1 67.5 26.5 66.7 Q27.9 66 30 66 Q32.1 66 33.5 66.75 Q34.9 67.5 35.9 68.9 Q37 70.3 38.9 73.4 C39.6 74.53333 40.475 75.95 41 76.8 C42.275 76.25 44.825 75.15 46.1 74.6 Q44.1 68.1 40.6 63.8 Q37.1 59.5 30 59.5 Q22.9 59.5 19.4 63.8 zM17.5 2.1 Q12.3 5.4 9.45 11.5 Q6.6 17.6 6.6 25.8 Q6.6 34 9.45 40.1 Q12.3 46.2 17.5 49.5 Q22.8 52.8 30 52.8 Q37.2 52.8 42.45 49.5 Q47.7 46.2 50.5 40.1 Q53.4 34 53.4 25.8 Q53.4 17.6 50.55 11.5 Q47.7 5.4 42.4 2.1 Q37.2 -1.2 30 -1.2 Q22.8 -1.2 17.5 2.1 zM40.9 9.8 Q44.9 14 44.9 22.1 C44.9 24.56667 44.9 27.65 44.9 29.5 Q44.9 37.6 40.9 41.75 Q36.9 45.9 30 45.9 Q23.1 45.9 19.1 41.75 Q15.1 37.6 15.1 29.5 C15.1 27.03333 15.1 23.95 15.1 22.1 Q15.1 14 19.1 9.85 Q23.1 5.7 30 5.7 Q36.9 5.7 40.9 9.8 z" />
<glyph unicode="" horiz-adv-x="60" d="M17.9 77.8 C20.025 82.05 24.275 90.55 26.4 94.8 C28.125 93.975 31.575 92.325 33.3 91.5 C30.65 87.525 25.35 79.575 22.7 75.6 C21.5 76.15 19.1 77.25 17.9 77.8 zM33.9 77.8 C36.025 82.05 40.275 90.55 42.4 94.8 C44.125 93.975 47.575 92.325 49.3 91.5 C46.65 87.525 41.35 79.575 38.7 75.6 C37.5 76.15 35.1 77.25 33.9 77.8 zM5.6 34.9 Q5.6 71 30 71 Q54.4 71 54.4 34.9 Q54.4 -1.2 30 -1.2 Q5.6 -1.2 5.6 34.9 zM41.7 12.1 Q45.5 18.2 45.5 29.2 C45.5 33 45.5 37.75 45.5 40.6 Q45.5 51.6 41.75 57.65 Q38 63.7 30 63.7 Q22 63.7 18.25 57.65 Q14.5 51.6 14.5 40.6 C14.5 36.8 14.5 32.05 14.5 29.2 Q14.5 18.2 18.25 12.15 Q22 6.1 30 6.1 Q38 6.1 41.7 12.1 z" />
<glyph unicode="" horiz-adv-x="60" d="M17.9 60.8 C20.025 65.05 24.275 73.55 26.4 77.8 C28.125 76.975 31.575 75.325 33.3 74.5 C30.65 70.525 25.35 62.575 22.7 58.6 C21.5 59.15 19.1 60.25 17.9 60.8 zM33.9 60.8 C36.025 65.05 40.275 73.55 42.4 77.8 C44.125 76.975 47.575 75.325 49.3 74.5 C46.65 70.525 41.35 62.575 38.7 58.6 C37.5 59.15 35.1 60.25 33.9 60.8 zM17.5 2.1 Q12.3 5.4 9.45 11.5 Q6.6 17.6 6.6 25.8 Q6.6 34 9.45 40.1 Q12.3 46.2 17.5 49.5 Q22.8 52.8 30 52.8 Q37.2 52.8 42.45 49.5 Q47.7 46.2 50.5 40.1 Q53.4 34 53.4 25.8 Q53.4 17.6 50.55 11.5 Q47.7 5.4 42.4 2.1 Q37.2 -1.2 30 -1.2 Q22.8 -1.2 17.5 2.1 zM40.9 9.8 Q44.9 14 44.9 22.1 C44.9 24.56667 44.9 27.65 44.9 29.5 Q44.9 37.6 40.9 41.75 Q36.9 45.9 30 45.9 Q23.1 45.9 19.1 41.75 Q15.1 37.6 15.1 29.5 C15.1 27.03333 15.1 23.95 15.1 22.1 Q15.1 14 19.1 9.85 Q23.1 5.7 30 5.7 Q36.9 5.7 40.9 9.8 z" />
<glyph unicode="" horiz-adv-x="90" d="M33.7 -1.2 Q19.1 -1.2 10.95 8.1 Q2.8 17.4 2.8 34.9 Q2.8 52.4 10.95 61.7 Q19.1 71 33.7 71 Q40.2 71 46.5 69.8 C59.7 69.8 76.2 69.8 86.1 69.8 C86.1 67.95 86.1 64.25 86.1 62.4 C78.275 62.4 62.625 62.4 54.8 62.4 C54.8 56.55 54.8 44.85 54.8 39 C62.125 39 76.775 39 84.1 39 C84.1 37.15 84.1 33.45 84.1 31.6 C76.775 31.6 62.125 31.6 54.8 31.6 C54.8 25.55 54.8 13.45 54.8 7.4 C62.625 7.4 78.275 7.4 86.1 7.4 C86.1 5.55 86.1 1.85 86.1 0 C76.2 0 56.4 0 46.5 0 C43.3 -0.3 36.9 -0.9 33.7 -1.2 zM46.4 8.1 C46.4 21.5 46.4 48.3 46.4 61.7 Q41 63.5 34.7 63.5 Q23.3 63.5 17.55 57.45 Q11.8 51.4 11.8 40.7 C11.8 36.83333 11.8 32 11.8 29.1 Q11.8 18.4 17.55 12.35 Q23.3 6.3 34.7 6.3 Q41 6.3 46.4 8.1 z" />
<glyph unicode="" horiz-adv-x="90" d="M54.7 2 Q49.8 5.2 47.3 10.3 C47.13333 10.3 46.925 10.3 46.8 10.3 Q44.5 5.2 39.4 2 Q34.3 -1.2 28 -1.2 Q21.1 -1.2 15.85 2.15 Q10.6 5.5 7.6 11.6 Q4.7 17.7 4.7 25.8 Q4.7 33.9 7.65 40 Q10.6 46.1 15.8 49.4 Q21.1 52.8 28 52.8 Q34.6 52.8 39.5 49.8 Q44.4 46.8 46.8 41.3 C47 41.3 47.25 41.3 47.4 41.3 Q49.6 46.6 54.5 49.7 Q59.4 52.8 66.1 52.8 Q72.8 52.8 77.85 49.6 Q82.9 46.4 85.6 40.6 Q88.4 34.9 88.4 27.6 C88.4 26.33333 88.4 24.75 88.4 23.8 C79.125 23.8 60.575 23.8 51.3 23.8 C51.3 23.2 51.3 22 51.3 21.4 Q51.3 14.6 55.45 10.2 Q59.6 5.8 66.6 5.8 Q71.5 5.8 75.15 8.1 Q78.8 10.4 80.9 14.7 C82.76667 13.33333 85.1 11.625 86.5 10.6 Q83.9 5.2 78.75 2 Q73.6 -1.2 66.7 -1.2 Q59.6 -1.2 54.7 2 zM79.8 30.9 Q79.8 37.7 76.05 41.9 Q72.3 46.1 66.1 46.1 Q59.6 46.1 55.45 41.7 Q51.3 37.3 51.3 30.5 C51.3 30.26667 51.3 29.975 51.3 29.8 C58.425 29.8 72.675 29.8 79.8 29.8 C79.8 30.075 79.8 30.625 79.8 30.9 zM38.7 10 Q42.7 14.2 42.7 22.1 C42.7 24.56667 42.7 27.65 42.7 29.5 Q42.7 37.4 38.7 41.55 Q34.7 45.7 28 45.7 Q21.3 45.7 17.3 41.55 Q13.3 37.4 13.3 29.5 C13.3 27.03333 13.3 23.95 13.3 22.1 Q13.3 14.2 17.3 10.05 Q21.3 5.9 28 5.9 Q34.7 5.9 38.7 10 z" />
<glyph unicode="" horiz-adv-x="60" d="M26.3 77.9 C28.425 82.15 32.675 90.65 34.8 94.9 C36.625 94.025 40.275 92.275 42.1 91.4 C39.45 87.425 34.15 79.475 31.5 75.5 C30.2 76.1 27.6 77.3 26.3 77.9 zM9 0 C9 17.45 9 52.35 9 69.8 C15.35 69.8 28.05 69.8 34.4 69.8 Q44 69.8 49.15 64.5 Q54.3 59.2 54.3 49.7 Q54.3 41.2 49.85 36.1 Q45.4 31 37.1 30.2 C43.03333 20.13333 50.45 7.55 54.9 0 C52.55 0 47.85 0 45.5 0 C41.25 7.45 32.75 22.35 28.5 29.8 C25.725 29.8 20.175 29.8 17.4 29.8 C17.4 22.35 17.4 7.45 17.4 0 C15.3 0 11.1 0 9 0 zM42.4 39.5 Q45.4 42.2 45.4 47.1 C45.4 48.83333 45.4 51 45.4 52.3 Q45.4 57.2 42.45 59.85 Q39.5 62.5 34.2 62.5 C28.6 62.5 21.6 62.5 17.4 62.5 C17.4 56.1 17.4 43.3 17.4 36.9 C21.6 36.9 30 36.9 34.2 36.9 Q39.5 36.9 42.4 39.5 z" />
<glyph unicode="" horiz-adv-x="60" d="M30.8 60.9 C32.925 65.15 37.175 73.65 39.3 77.9 C41.125 77.025 44.775 75.275 46.6 74.4 C43.95 70.425 38.65 62.475 36 58.5 C34.7 59.1 32.1 60.3 30.8 60.9 zM22.8 6.8 C22.8 16.3 22.8 35.3 22.8 44.8 C19.025 44.8 11.475 44.8 7.7 44.8 C7.7 46.5 7.7 49.9 7.7 51.6 C13.475 51.6 25.025 51.6 30.8 51.6 C30.8 49.3 30.8 44.7 30.8 42.4 C30.925 42.4 31.175 42.4 31.3 42.4 Q32.9 46.4 36.8 49 Q40.7 51.6 46.8 51.6 C49.83333 51.6 53.625 51.6 55.9 51.6 C55.9 49.6 55.9 45.6 55.9 43.6 C53.225 43.6 47.875 43.6 45.2 43.6 Q38.6 43.6 34.7 41.25 Q30.8 38.9 30.8 35.1 C30.8 25.66667 30.8 13.875 30.8 6.8 C35.8 6.8 45.8 6.8 50.8 6.8 C50.8 5.1 50.8 1.7 50.8 0 C40.025 0 18.475 0 7.7 0 C7.7 1.7 7.7 5.1 7.7 6.8 C11.475 6.8 19.025 6.8 22.8 6.8 z" />
<glyph unicode="" horiz-adv-x="60" d="M9 0 C9 17.45 9 52.35 9 69.8 C15.35 69.8 28.05 69.8 34.4 69.8 Q44 69.8 49.15 64.5 Q54.3 59.2 54.3 49.7 Q54.3 41.2 49.85 36.1 Q45.4 31 37.1 30.2 C43.03333 20.13333 50.45 7.55 54.9 0 C52.55 0 47.85 0 45.5 0 C41.25 7.45 32.75 22.35 28.5 29.8 C25.725 29.8 20.175 29.8 17.4 29.8 C17.4 22.35 17.4 7.45 17.4 0 C15.3 0 11.1 0 9 0 zM42.4 39.5 Q45.4 42.2 45.4 47.1 C45.4 48.83333 45.4 51 45.4 52.3 Q45.4 57.2 42.45 59.85 Q39.5 62.5 34.2 62.5 C28.6 62.5 21.6 62.5 17.4 62.5 C17.4 56.1 17.4 43.3 17.4 36.9 C21.6 36.9 30 36.9 34.2 36.9 Q39.5 36.9 42.4 39.5 zM36.5 -6.2 C34.6 -10.925 30.8 -20.375 28.9 -25.1 C27.375 -25.1 24.325 -25.1 22.8 -25.1 C23.5 -20.375 24.9 -10.925 25.6 -6.2 C28.325 -6.2 33.775 -6.2 36.5 -6.2 z" />
<glyph unicode="" horiz-adv-x="60" d="M22.8 6.8 C22.8 16.3 22.8 35.3 22.8 44.8 C19.025 44.8 11.475 44.8 7.7 44.8 C7.7 46.5 7.7 49.9 7.7 51.6 C13.475 51.6 25.025 51.6 30.8 51.6 C30.8 49.3 30.8 44.7 30.8 42.4 C30.925 42.4 31.175 42.4 31.3 42.4 Q32.9 46.4 36.8 49 Q40.7 51.6 46.8 51.6 C49.83333 51.6 53.625 51.6 55.9 51.6 C55.9 49.6 55.9 45.6 55.9 43.6 C53.225 43.6 47.875 43.6 45.2 43.6 Q38.6 43.6 34.7 41.25 Q30.8 38.9 30.8 35.1 C30.8 25.66667 30.8 13.875 30.8 6.8 C35.8 6.8 45.8 6.8 50.8 6.8 C50.8 5.1 50.8 1.7 50.8 0 C40.025 0 18.475 0 7.7 0 C7.7 1.7 7.7 5.1 7.7 6.8 C11.475 6.8 19.025 6.8 22.8 6.8 zM32.5 -6.2 C30.6 -10.925 26.8 -20.375 24.9 -25.1 C23.375 -25.1 20.325 -25.1 18.8 -25.1 C19.5 -20.375 20.9 -10.925 21.6 -6.2 C24.325 -6.2 29.775 -6.2 32.5 -6.2 z" />
<glyph unicode="" horiz-adv-x="60" d="M14.7 91.2 C15.825 91.975 18.075 93.525 19.2 94.3 C22.125 91.375 27.975 85.525 30.9 82.6 C33.825 85.525 39.675 91.375 42.6 94.3 C43.675 93.525 45.825 91.975 46.9 91.2 C44.125 87.625 38.575 80.475 35.8 76.9 C33.3 76.9 28.3 76.9 25.8 76.9 C23.025 80.475 17.475 87.625 14.7 91.2 zM9 0 C9 17.45 9 52.35 9 69.8 C15.35 69.8 28.05 69.8 34.4 69.8 Q44 69.8 49.15 64.5 Q54.3 59.2 54.3 49.7 Q54.3 41.2 49.85 36.1 Q45.4 31 37.1 30.2 C43.03333 20.13333 50.45 7.55 54.9 0 C52.55 0 47.85 0 45.5 0 C41.25 7.45 32.75 22.35 28.5 29.8 C25.725 29.8 20.175 29.8 17.4 29.8 C17.4 22.35 17.4 7.45 17.4 0 C15.3 0 11.1 0 9 0 zM42.4 39.5 Q45.4 42.2 45.4 47.1 C45.4 48.83333 45.4 51 45.4 52.3 Q45.4 57.2 42.45 59.85 Q39.5 62.5 34.2 62.5 C28.6 62.5 21.6 62.5 17.4 62.5 C17.4 56.1 17.4 43.3 17.4 36.9 C21.6 36.9 30 36.9 34.2 36.9 Q39.5 36.9 42.4 39.5 z" />
<glyph unicode="" horiz-adv-x="60" d="M19.2 74.2 C20.35 74.975 22.65 76.525 23.8 77.3 C26.725 74.375 32.575 68.525 35.5 65.6 C38.425 68.525 44.275 74.375 47.2 77.3 C48.25 76.525 50.35 74.975 51.4 74.2 C48.625 70.625 43.075 63.475 40.3 59.9 C37.8 59.9 32.8 59.9 30.3 59.9 C27.525 63.475 21.975 70.625 19.2 74.2 zM22.8 6.8 C22.8 16.3 22.8 35.3 22.8 44.8 C19.025 44.8 11.475 44.8 7.7 44.8 C7.7 46.5 7.7 49.9 7.7 51.6 C13.475 51.6 25.025 51.6 30.8 51.6 C30.8 49.3 30.8 44.7 30.8 42.4 C30.925 42.4 31.175 42.4 31.3 42.4 Q32.9 46.4 36.8 49 Q40.7 51.6 46.8 51.6 C49.83333 51.6 53.625 51.6 55.9 51.6 C55.9 49.6 55.9 45.6 55.9 43.6 C53.225 43.6 47.875 43.6 45.2 43.6 Q38.6 43.6 34.7 41.25 Q30.8 38.9 30.8 35.1 C30.8 25.66667 30.8 13.875 30.8 6.8 C35.8 6.8 45.8 6.8 50.8 6.8 C50.8 5.1 50.8 1.7 50.8 0 C40.025 0 18.475 0 7.7 0 C7.7 1.7 7.7 5.1 7.7 6.8 C11.475 6.8 19.025 6.8 22.8 6.8 z" />
<glyph unicode="" horiz-adv-x="60" d="M25.3 77.9 C27.425 82.15 31.675 90.65 33.8 94.9 C35.625 94.025 39.275 92.275 41.1 91.4 C38.45 87.425 33.15 79.475 30.5 75.5 C29.2 76.1 26.6 77.3 25.3 77.9 zM14.8 2 Q8.7 5.3 4.5 11.1 C6.53333 12.76667 9.075 14.85 10.6 16.1 Q14.7 10.9 19.3 8.45 Q23.9 6 30.1 6 Q37.6 6 41.65 9.5 Q45.7 13 45.7 19.3 Q45.7 24.5 42.7 27.3 Q39.7 30.1 32.7 31.3 C30.1 31.73333 26.85 32.275 24.9 32.6 Q15.3 34.2 11.1 39.25 Q6.9 44.3 6.9 51.6 Q6.9 61 13.1 66 Q19.3 71 30.2 71 Q46.1 71 53.6 60.3 C51.63333 58.6 49.175 56.475 47.7 55.2 Q44.5 59.4 40.35 61.6 Q36.2 63.8 30.1 63.8 Q23 63.8 19.2 60.75 Q15.4 57.7 15.4 51.8 Q15.4 46.9 18.35 44 Q21.3 41.1 28.5 39.9 C31 39.46667 34.125 38.925 36 38.6 Q54.2 35.4 54.2 19.5 Q54.2 9.8 47.8 4.3 Q41.4 -1.2 29.8 -1.2 Q20.9 -1.2 14.8 2 z" />
<glyph unicode="" horiz-adv-x="60" d="M25.3 60.9 C27.425 65.15 31.675 73.65 33.8 77.9 C35.625 77.025 39.275 75.275 41.1 74.4 C38.45 70.425 33.15 62.475 30.5 58.5 C29.2 59.1 26.6 60.3 25.3 60.9 zM6.7 8.9 C8.05 10.075 10.75 12.425 12.1 13.6 Q15.9 9.5 20.4 7.5 Q24.9 5.5 30.8 5.5 Q37.1 5.5 40.8 7.75 Q44.5 10 44.5 14.4 Q44.5 18.1 42.1 19.7 Q39.7 21.3 35.4 21.9 C32.7 22.3 29.325 22.8 27.3 23.1 Q22.4 23.8 18.7 25.05 Q15 26.3 12.3 29.2 Q9.6 32.2 9.6 37.4 Q9.6 44.9 15.3 48.85 Q21 52.8 30.4 52.8 Q43.6 52.8 51.4 44.5 C49.66667 42.86667 47.5 40.825 46.2 39.6 Q40.8 46.1 30.1 46.1 Q24 46.1 20.75 44 Q17.5 41.9 17.5 37.9 Q17.5 34.2 19.95 32.6 Q22.4 31 26.6 30.4 C29.3 30 32.675 29.5 34.7 29.2 Q39.7 28.5 43.4 27.25 Q47.1 26 49.7 23 Q52.4 20.1 52.4 14.9 Q52.4 7.3 46.5 3.05 Q40.6 -1.2 30.6 -1.2 Q15.6 -1.2 6.7 8.9 z" />
<glyph unicode="" horiz-adv-x="60" d="M45.9 79.2 C44.775 78.425 42.525 76.875 41.4 76.1 C38.475 79.025 32.625 84.875 29.7 87.8 C26.775 84.875 20.925 79.025 18 76.1 C16.925 76.875 14.775 78.425 13.7 79.2 C16.475 82.775 22.025 89.925 24.8 93.5 C27.3 93.5 32.3 93.5 34.8 93.5 C37.575 89.925 43.125 82.775 45.9 79.2 zM14.8 2 Q8.7 5.3 4.5 11.1 C6.53333 12.76667 9.075 14.85 10.6 16.1 Q14.7 10.9 19.3 8.45 Q23.9 6 30.1 6 Q37.6 6 41.65 9.5 Q45.7 13 45.7 19.3 Q45.7 24.5 42.7 27.3 Q39.7 30.1 32.7 31.3 C30.1 31.73333 26.85 32.275 24.9 32.6 Q15.3 34.2 11.1 39.25 Q6.9 44.3 6.9 51.6 Q6.9 61 13.1 66 Q19.3 71 30.2 71 Q46.1 71 53.6 60.3 C51.63333 58.6 49.175 56.475 47.7 55.2 Q44.5 59.4 40.35 61.6 Q36.2 63.8 30.1 63.8 Q23 63.8 19.2 60.75 Q15.4 57.7 15.4 51.8 Q15.4 46.9 18.35 44 Q21.3 41.1 28.5 39.9 C31 39.46667 34.125 38.925 36 38.6 Q54.2 35.4 54.2 19.5 Q54.2 9.8 47.8 4.3 Q41.4 -1.2 29.8 -1.2 Q20.9 -1.2 14.8 2 z" />
<glyph unicode="" horiz-adv-x="60" d="M45.9 62.2 C44.775 61.425 42.525 59.875 41.4 59.1 C38.475 62.025 32.625 67.875 29.7 70.8 C26.775 67.875 20.925 62.025 18 59.1 C16.925 59.875 14.775 61.425 13.7 62.2 C16.475 65.775 22.025 72.925 24.8 76.5 C27.3 76.5 32.3 76.5 34.8 76.5 C37.575 72.925 43.125 65.775 45.9 62.2 zM6.7 8.9 C8.05 10.075 10.75 12.425 12.1 13.6 Q15.9 9.5 20.4 7.5 Q24.9 5.5 30.8 5.5 Q37.1 5.5 40.8 7.75 Q44.5 10 44.5 14.4 Q44.5 18.1 42.1 19.7 Q39.7 21.3 35.4 21.9 C32.7 22.3 29.325 22.8 27.3 23.1 Q22.4 23.8 18.7 25.05 Q15 26.3 12.3 29.2 Q9.6 32.2 9.6 37.4 Q9.6 44.9 15.3 48.85 Q21 52.8 30.4 52.8 Q43.6 52.8 51.4 44.5 C49.66667 42.86667 47.5 40.825 46.2 39.6 Q40.8 46.1 30.1 46.1 Q24 46.1 20.75 44 Q17.5 41.9 17.5 37.9 Q17.5 34.2 19.95 32.6 Q22.4 31 26.6 30.4 C29.3 30 32.675 29.5 34.7 29.2 Q39.7 28.5 43.4 27.25 Q47.1 26 49.7 23 Q52.4 20.1 52.4 14.9 Q52.4 7.3 46.5 3.05 Q40.6 -1.2 30.6 -1.2 Q15.6 -1.2 6.7 8.9 z" />
<glyph unicode="" horiz-adv-x="60" d="M24.7 -19.5 Q22.2 -18.3 21 -16.6 C22.26667 -15.23333 23.85 -13.525 24.8 -12.5 Q27 -15.3 30.9 -15.3 Q32.9 -15.3 34.1 -14.5 Q35.3 -13.7 35.3 -12.2 Q35.3 -10.7 33.85 -9.7 Q32.4 -8.7 28.5 -8.1 C27.56667 -7.96667 26.4 -7.8 25.7 -7.7 C26.025 -6.05 26.675 -2.75 27 -1.1 Q19.2 -0.6 13.8 2.55 Q8.4 5.7 4.5 11.1 C6.53333 12.76667 9.075 14.85 10.6 16.1 Q14.7 10.9 19.3 8.45 Q23.9 6 30.1 6 Q37.6 6 41.65 9.5 Q45.7 13 45.7 19.3 Q45.7 24.5 42.7 27.3 Q39.7 30.1 32.7 31.3 C30.1 31.73333 26.85 32.275 24.9 32.6 Q15.3 34.2 11.1 39.25 Q6.9 44.3 6.9 51.6 Q6.9 61 13.1 66 Q19.3 71 30.2 71 Q46.1 71 53.6 60.3 C51.63333 58.6 49.175 56.475 47.7 55.2 Q44.5 59.4 40.35 61.6 Q36.2 63.8 30.1 63.8 Q23 63.8 19.2 60.75 Q15.4 57.7 15.4 51.8 Q15.4 46.9 18.35 44 Q21.3 41.1 28.5 39.9 C31 39.46667 34.125 38.925 36 38.6 Q54.2 35.4 54.2 19.5 Q54.2 10.3 48.4 4.85 Q42.6 -0.6 32 -1.1 C31.66667 -2.76667 31.25 -4.85 31 -6.1 C31.075 -6.175 31.225 -6.325 31.3 -6.4 Q33.3 -5.8 35.2 -5.8 Q38.2 -5.8 40.1 -7.55 Q42 -9.3 42 -12.4 Q42 -16.5 38.85 -18.6 Q35.7 -20.7 30.9 -20.7 Q27.2 -20.7 24.7 -19.5 z" />
<glyph unicode="" horiz-adv-x="60" d="M24.8 -19.5 Q22.3 -18.3 21.1 -16.6 C22.36667 -15.23333 23.95 -13.525 24.9 -12.5 Q27.1 -15.3 31 -15.3 Q33 -15.3 34.2 -14.5 Q35.4 -13.7 35.4 -12.2 Q35.4 -10.7 33.95 -9.7 Q32.5 -8.7 28.6 -8.1 C27.66667 -7.96667 26.5 -7.8 25.8 -7.7 C26.125 -6.025 26.775 -2.675 27.1 -1 Q14.6 0 6.7 8.9 C8.5 10.46667 10.75 12.425 12.1 13.6 Q15.9 9.5 20.4 7.5 Q24.9 5.5 30.8 5.5 Q37.1 5.5 40.8 7.75 Q44.5 10 44.5 14.4 Q44.5 18.1 42.1 19.7 Q39.7 21.3 35.4 21.9 C32.7 22.3 29.325 22.8 27.3 23.1 Q22.4 23.8 18.7 25.05 Q15 26.3 12.3 29.2 Q9.6 32.2 9.6 37.4 Q9.6 44.9 15.3 48.85 Q21 52.8 30.4 52.8 Q43.6 52.8 51.4 44.5 C49.66667 42.86667 47.5 40.825 46.2 39.6 Q40.8 46.1 30.1 46.1 Q24 46.1 20.75 44 Q17.5 41.9 17.5 37.9 Q17.5 34.2 19.95 32.6 Q22.4 31 26.6 30.4 C29.3 30 32.675 29.5 34.7 29.2 Q39.7 28.5 43.4 27.25 Q47.1 26 49.7 23 Q52.4 20.1 52.4 14.9 Q52.4 7.6 46.9 3.35 Q41.4 -0.9 32 -1.2 C31.7 -2.83333 31.325 -4.875 31.1 -6.1 C31.175 -6.175 31.325 -6.325 31.4 -6.4 Q33.4 -5.8 35.3 -5.8 Q38.3 -5.8 40.2 -7.55 Q42.1 -9.3 42.1 -12.4 Q42.1 -16.5 38.95 -18.6 Q35.8 -20.7 31 -20.7 Q27.3 -20.7 24.8 -19.5 z" />
<glyph unicode="" horiz-adv-x="60" d="M13.7 91.2 C14.825 91.975 17.075 93.525 18.2 94.3 C21.125 91.375 26.975 85.525 29.9 82.6 C32.825 85.525 38.675 91.375 41.6 94.3 C42.675 93.525 44.825 91.975 45.9 91.2 C43.125 87.625 37.575 80.475 34.8 76.9 C32.3 76.9 27.3 76.9 24.8 76.9 C22.025 80.475 16.475 87.625 13.7 91.2 zM14.8 2 Q8.7 5.3 4.5 11.1 C6.53333 12.76667 9.075 14.85 10.6 16.1 Q14.7 10.9 19.3 8.45 Q23.9 6 30.1 6 Q37.6 6 41.65 9.5 Q45.7 13 45.7 19.3 Q45.7 24.5 42.7 27.3 Q39.7 30.1 32.7 31.3 C30.1 31.73333 26.85 32.275 24.9 32.6 Q15.3 34.2 11.1 39.25 Q6.9 44.3 6.9 51.6 Q6.9 61 13.1 66 Q19.3 71 30.2 71 Q46.1 71 53.6 60.3 C51.63333 58.6 49.175 56.475 47.7 55.2 Q44.5 59.4 40.35 61.6 Q36.2 63.8 30.1 63.8 Q23 63.8 19.2 60.75 Q15.4 57.7 15.4 51.8 Q15.4 46.9 18.35 44 Q21.3 41.1 28.5 39.9 C31 39.46667 34.125 38.925 36 38.6 Q54.2 35.4 54.2 19.5 Q54.2 9.8 47.8 4.3 Q41.4 -1.2 29.8 -1.2 Q20.9 -1.2 14.8 2 z" />
<glyph unicode="" horiz-adv-x="60" d="M13.7 74.2 C14.85 74.975 17.15 76.525 18.3 77.3 C21.225 74.375 27.075 68.525 30 65.6 C32.925 68.525 38.775 74.375 41.7 77.3 C42.75 76.525 44.85 74.975 45.9 74.2 C43.125 70.625 37.575 63.475 34.8 59.9 C32.3 59.9 27.3 59.9 24.8 59.9 C22.025 63.475 16.475 70.625 13.7 74.2 zM6.7 8.9 C8.05 10.075 10.75 12.425 12.1 13.6 Q15.9 9.5 20.4 7.5 Q24.9 5.5 30.8 5.5 Q37.1 5.5 40.8 7.75 Q44.5 10 44.5 14.4 Q44.5 18.1 42.1 19.7 Q39.7 21.3 35.4 21.9 C32.7 22.3 29.325 22.8 27.3 23.1 Q22.4 23.8 18.7 25.05 Q15 26.3 12.3 29.2 Q9.6 32.2 9.6 37.4 Q9.6 44.9 15.3 48.85 Q21 52.8 30.4 52.8 Q43.6 52.8 51.4 44.5 C49.66667 42.86667 47.5 40.825 46.2 39.6 Q40.8 46.1 30.1 46.1 Q24 46.1 20.75 44 Q17.5 41.9 17.5 37.9 Q17.5 34.2 19.95 32.6 Q22.4 31 26.6 30.4 C29.3 30 32.675 29.5 34.7 29.2 Q39.7 28.5 43.4 27.25 Q47.1 26 49.7 23 Q52.4 20.1 52.4 14.9 Q52.4 7.3 46.5 3.05 Q40.6 -1.2 30.6 -1.2 Q15.6 -1.2 6.7 8.9 z" />
<glyph unicode="" horiz-adv-x="60" d="M34.2 0 C32.1 0 27.9 0 25.8 0 C25.8 15.625 25.8 46.875 25.8 62.5 C19.975 62.5 8.325 62.5 2.5 62.5 C2.5 64.325 2.5 67.975 2.5 69.8 C16.25 69.8 43.75 69.8 57.5 69.8 C57.5 67.975 57.5 64.325 57.5 62.5 C51.675 62.5 40.025 62.5 34.2 62.5 C34.2 46.875 34.2 15.625 34.2 0 zM35.7 -6.2 C33.8 -10.925 30 -20.375 28.1 -25.1 C26.575 -25.1 23.525 -25.1 22 -25.1 C22.7 -20.375 24.1 -10.925 24.8 -6.2 C27.525 -6.2 32.975 -6.2 35.7 -6.2 z" />
</font>
</svg>
